<?xml version="1.0" encoding="UTF-8"?>
<svg xmlns="http://www.w3.org/2000/svg" viewBox="0 0 2000 1800">
  <g id="borders">
    <path d="M180.879,0l-1.97,96.181,189.828-3.434,299.441-6.966c33.172-.772,63.823-1.398,96.721.149,46.639,2.193,91.081-.418,137.907-.617l385.432-1.638,65.943.295,155.344-.734c2.343,10.521.09,19.38,1.302,30.093l76.865-2.213,183.063-3.937c2.762-.059,5.299.161,7.053,1.367,1.19.818,1.384,3.375,2.222,6.593,8.912,1.063,17.797,1.222,27.189,1.334l96.34,1.148-1.75-117.621h15.504l.275,120.823c.012,5.185.327,9.763.269,14.997l-.907,81.924-.346,123.378-1.158,116.557.812,109.633.578,89.386-.971,169.549-2.178,101.204-.976,106.135c-20.388,5.971-13.533,23.33-27.362,26.98-6.375,1.683-8.528-3.869-13.643-6.107-4.644-2.031-7.548,8.109-7.638,12.012-.201,8.731-3.364,14.353-10.821,18.39-4.648,2.516-4.16,11.228.29,14.078,7.535,4.826,10.455,10.631,9.124,18.262-2.666,15.282-16.755,11.343-20.672,15.73-5.119,5.734,6.562,12.225,2.79,31.015-3.051,15.201-18.531,4.562-24.619,13.876,6.413,4.094,8.889,9.504,8.258,15.753-1.635,16.192-19.18,10.414-23.947,20.229-2.367,4.873-3.42,9.66-.984,15.442,6.836,16.222,4.019,34.715-9.536,47.016-6.191,5.618-16.124,2.518-22.444-3.404-5.19,15.437-29.661,32.854-44.418,25.066-3.65-1.926-6.958-11.203-12.723-6.542-4.599,3.718-2.603,12.985-6.574,17.718-13.419,15.991-29.875,7.855-43.35,15.757,3.195,16.841,4.605,20.743,23.214,26.009,4.56-13.28,15.879-18.63,29.642-16.024l20.769,3.933c14.823,2.807,15.909,19.745,10.7,31.127-2.53,5.529-2.077,9.486-7.518,13.599-7.875,5.952-13.135,18.63-23.126,22.492-7.337,2.837-15.569,1.528-23.575,5.826-7.654,4.109-18.772,6.246-26.07,1.744-4.781-2.949-7.674-5.884-13.69-4.208-7.346,2.047-14.401.442-20.235-6.074-5.811,10.6-28.325,31.409-37.174,37.406-3.147,2.133-6.991,9.476-6.719,13.367.395,5.665,6.747,12.474,11.798,15.279,4.61-.3,13.711-3.098,16.88-6.648,7.107-8.217,16.059-12.617,27.04-7.553,8.324,3.839,10.394,14.481,15.189,21.432,3.592,5.206,8.617,8.636,6.208,15.707-4.427,12.997-21.413,4.666-29.024,4.139l-29.019,30.057c-20.934,21.683-16.443,23.295-22.605,54.711,6.571,4.065,9.953,9.843,8.75,16.853-1.183,6.894-7.457,10.489-14.805,12.892-5.054,1.653-7.446,7.622-12.437,9.968-8.887,4.179-15.064,12.264-12.527,23.115,7.526-9.145,14.952-18.521,24.287-26.266,7.359-6.105,15.786-1.798,20.634,4.907,3.999,5.532,11.889,6.303,16.492,11.063,4.737,4.899-4.269,15.118-3.35,23.551,14.633,2.419,13.247,20.747,15.035,29.288,1.127,5.383,8.904,8.626,7.862,15.684-.328,2.225-3.867,2.499-3.948,6.048l366.882.876v13.687l-173.964-.616-156.017-.886c-12.227-.069-21.628-3.734-34.075.09-9.082,2.79-21.042-.619-30.381.521-2.003-4.433-1.356-6.886-2.524-11.387l-126.695-.43-131.1-1.133-270.2-1.416-113.798.212-69.033-.132-139.3,1.569-43.154.151.636,90.614h-14.175l-.368-90.114-228.929,4.612-86.626,2.923-215.517,1.328,1.442-67.264c-3.082-1.16-4.911,1.992-7.961,2.529l-19.702-3.225c-5.734,7.571-12.822,4.259-19.878,3.021-4.314-.757-10.956,5.321-15.247.195-2.562-3.06-5.878-4.047-9.429-3.357-9.905,1.923,1.676,14.202-12.357,17.966-5.756,1.544-11.869-.766-17.801,1.301-3.058,1.066-2.986,6.312-5.537,8.058-6.458,4.419-16.221-.238-22.506,3.436-5.567,3.255-10.891,4.408-16.52,3.026-2.298,6.324-13.683,19.441-19.287,19.565v-18.857c8.05-2.825-1.2-10.961,4.561-17.064,6.899-7.309,28.936,2.922,42.872-3.238,6.188-2.735-4.316-8.918,27.08-10.822,2.844-7.857,6.226-15.884,12.595-20.573,14.474.42,12.558-3.485,20.94-1.83,2.745.542,3.579,5.043,6.217,6.073,12.437,4.854,18.344-9.729,37.485,1.613,5.929-2.8,9.788-7.427,15.313-11.34l3.453-169.151,2.44-222.66-1.573-82.681c-2.432-127.792-4.353-253.902-3.635-381.792l.637-113.494.843-145.743-84.94-1.379,5.583-310.25.607-102.519c1.819-2.926,4.816-3.077,8.042-3.034l66.701.897,1.873-96.155h13.781ZM713.219,99.37l-3.486.058h-3.445l-3.445-.162-46.83.401-316.355,7.232-127.771,2.2-107.203-.179-.526,57.674-6.176,331.181,84.561,2.759.059,3.465v3.429l.411,3.775-.569,109.561-1.42,279.029c-.007,1.313.153,2.641.244,3.95.105,1.507.094,2.997.009,4.504-.076,1.352-.013,2.718,0,4.072l1.068,114.63,4.515,196.91-.863,78.998c-.014,1.245.338,2.496.425,3.739.106,1.514.108,3.022-.009,4.535-.096,1.24-.405,2.482-.42,3.726l-1.976,154.407-4.957,235.761,166-.047c13.586-.004,25.892-.384,39.286-2.097l134.227-3.448,179.102-3.955,3.445-.049h3.445l3.445.049,48.288-.267,92.999-.901,105.047-.13,56.797-.593c26.744-.279,52.489-.707,79.173,1.328,4.687.358,8.804.094,12.243-1.336,2.002-.358,4.704.777,6.832.229,1.089-.28,2.417-.051,3.545-.045l227.151,1.204,106.944.52,3.445.022,3.83-.076,4.323-.117,155.369,1.7c-6.923-10.734,1.241-12.435-.459-17.404-1.588-4.64-5.839,6.627-14.274,6.917-4.157.143-9.654-.829-11.802-5.542-9.472-20.787,21.545-30.539,13.11-40.034-3.451-3.885-10.056-5.028-12.631-10.922-14.796,10.956-19.804,33.215-37.237,28.397-7.301-2.018-8.806-8.868-9.393-15.87-1.301-15.514,6.322-25.856,18.644-33.763,6.917-4.438,11.465-12.015,21.596-13.456-7.198-5.924-10.687-12.517-8.114-21.444,4.607-15.987,3.561-34.038,16.853-47.883l34.484-35.921c5.63-5.865,12.01-9.653,20.663-10.661.026-4.955-3.449-11.819-8.622-11.913-4.768-.087-5.894,6.239-8.74,8.528-3.811,3.066-10.19,2.684-13.62,4.844-12.379,7.799-20.967,2.124-28.898-6.955-9.192-10.522-13.274-21.841-4.877-34.811,3.373-5.21,6.682-11.152,13.404-13.971,5.464-2.292,8.201-8.02,12.424-11.673,14.102-12.2,17.931-23.802,25.879-24.641,4.652-.491,8.429.768,11.816,4.264,8.44,8.712,12.255-6.622,32.446,8.149,16.168-.061,16.65-9.033,35.374-7.769,7.04-7.355,14.435-14.315,20.334-22.707-1.507,2.144,9.677-17.701.341-18.087-16.221-.67-24.977-10.9-29.956.411-2.439,5.541-7.096,9.583-11.137,10.803-6.74,2.034-13.425-.576-18.92-2.888-11.269-4.74-17.637-12.018-20.309-24.113-1.342-6.073-5.107-13.046-.737-19.324,9.008-12.942,29.662-9.141,38.286-12.904,2.959-1.291,5.896-3.187,6.362-6.56l.529-3.829.244-3.415c3.325-3.059,4.33-9.083,7.795-11.916,11.109-9.081,22.468.616,31.338,4.538,12.277,2.386,19.183-12.824,23.913-20.413,5.388-8.642,18.028-4.605,24.572.928,16.894-16.972,2.152-28.186,2.476-42.179.249-10.721,7.038-21.231,15.746-26.955,3.162-2.079,7.131.312,10.342-3.48-9.471-6.498-9.532-17.978-2.45-25.356,5.292-5.512,12.193-7.064,20.638-7.191-.578-11.299-11.245-23.241-1.162-35.733,3.738-4.632,10.534-5.087,18.336-8.741-13.694-9.002-17.34-26.752-7.659-38.198,3.076-3.637,8.856-5.076,8.932-10.588.14-10.106,4.266-18.88,12.573-24.66,6.225-4.331,14.516-.518,19.934.328,4.957-5.08,8.348-13.887,16.411-18.098l1.453-141.93,1.618-61.799-.054-3.429v-7.096l.675-100.946-.043-123.417-.885-126.609c-.096-13.793-.564-26.531-.199-39.278.039-1.366.125-2.756.05-4.121-.062-1.129-.247-2.277-.407-3.397-.21-1.472-.091-2.915-.054-4.387l1.728-69.069-.044-107.613,1.331-98.001-77.968-1.43-58.787-.991c-.833-2.764-1.017-5.517-1.874-6.665-1.24-1.661-3.807-1.919-6.606-1.855l-165.238,3.747-84.041,2-3.848-.013h-5.168l-1.736-.112c-3.822-4.176-.599-21.079-2.185-28.918l-83.919.323-89.73-.539-213.125-1.178c-1.258-.007-2.54-.537-3.793-.432-1.239.104-2.595.148-3.802.441-1.451.352-2.835.459-4.323.477l-205.37,2.434c-46.275.549-90.134,2.761-136.157-.017-14.915-.9-29.203-.198-43.072.035ZM1105.943,96c.779,3.297-2.091,42.24,3.061,39.235l.131,5.192c.63,24.961-.436,50.854-1.541,77.227-.416,9.941,1.612,19.301,1.638,29.256l.264,97.591c-.968,11.765,1.351,22.68,1.419,34.379l.673,114.594c41.653-2.614,81.645-.567,123.678-.438l244.293.752c7.474.023,13.851-2.441,21.212-1.593,2.799-12.115.122-23.585-.062-36.202-.328-22.502-.223-44.379.229-66.865l.757-37.688.577-77.172c.012-1.646-2.718-2.982-3.561-1.972l-.014-8.063c.806.953,3.489-.068,3.487-2.069l-.069-83.628c-.002-2.15-2.258-4.061-3.49-3.838l.081-4.535c.711.578,1.669,1.32,3.447,1.084l.057-37.651c.004-2.79-.656-5.054-1.781-6.74h5.168l-.018,232.806c.725,2.402,1.746,3.406,3.183,3.765-.005,1.615-.238,3.254-.045,4.868-2.399-.785-3.163,1.114-3.247,2.834-.131,2.658.165,5.384,3.256,4.559-.096.93-.091,1.967,0,2.898-.834-.571-1.766-.224-2.13.329-.464.703-1.334,1.822-1.293,3.454l.638,25.285c1.85,3.464,12.836,3.572,13.736-1.239,1.044-.182,2.092-.355,3.147-.468-4.928,3.548,63.679,3.024,60.433-1.201.987-1.021,3.711-.577,5.028-.72,1.475,5.167,51.985.857,62.042.863l89.509.051,51.732,1.745,41.341,1.629c15.712.619,30.817.302,46.507,1.362l21.582,1.459c.16,1.12.344,2.268.407,3.397-12.757,1.501-25.623-.38-39.195-.847l-51.66-1.777-51.698-1.727-132.554-.54c-3.092-.013-40.352-.284-34.943,4.751l-4.449.027c6.558-6.031-39.849-1.802-43.377-1.484-20.377,1.839-47.605-5.195-36.068,10.447,1.493,2.024.043,6.271.253,8.616.069.772-.111,1.994,1.035,1.714l-.05,3.145c-.842-.825-3.101.237-3.093,2.13l.305,71.816c.006,1.446.475,2.382,1.083,3.178.376.492,1.124.892,1.985.428l-.24,57.899c-.833-.759-3.154.064-3.154,2.245l.01,198c1.678,1.012,2.701.693,3.532.587v3.429c-2.071.317-3.647,2.257-3.601,5.062l.508,31.302,23.853,1.123,180.529.285,22.708-1.638,168.683-.134v3.429l-142.839.012-29.682,1.686-223.81-.21-.142,260.496-.025,55.033c-2.777,8.082.117,15.814.12,24.233l.047,141.602c20.023,1.889,38.939-.515,58.682-.967,18.661-.427,36.539.101,55.116-2,29.006,1.321,50.783-1.675,77.538-1.6l-.529,3.829c-12.644-1.627-25.514,1.245-39.11,1.151-21.575-.15-42.186.694-63.719,1.643-19.25.849-37.745-.43-56.906,2.495-4.16-2.718-8.014-.797-12.109-.775l-68.467.36-.338,171.131-1.688,31.143.354,133.526c.052,19.768,2.853,38.103.002,56.644l-3.83.076.032-250.224c0-2.411-.662-3.51-2.076-3.711.021-3.867.582-7.811.574-11.69,2.833-.853,2.673-5.528,2.694-8.92l.747-117.752-55.567-1.501-99.657-.69c-1.63-.011-3.002,2.293-2.112,3.139-.925-.008-1.859,0-2.785,0,.861-1.12-.397-2.895-2.169-2.903l-137.602-.614-44.46-.499c-1.312,24.647.575,48.077.761,73.11l1.146,154.114c.214,28.78,1.248,55.51.082,84.037-.668,16.328,2.822,32.057-.067,48.524-1.995,11.371.25,23.035-.626,33.879-2.128.547-4.829-.587-6.832-.229l-.118-27.109c2.806,9.426,3.927-22.584,4.318-15.852-1.343-23.128-1.667-45.574.278-68.674.439-5.211-.987-10.059-.994-15.253l-.114-85.515c-.002-1.654-2.079-2.866-3.076-2.045.009-1.531-.008-3.041-.018-4.571.685.833,3.243-.248,3.225-2.126l-.638-67.985-.71-22.707-.592-66.755c-.033-3.765-1.441-6.664-3.513-8.701-.662-.651-1.212-2.359-1.709-3.15-.612-.973-.768-3.827-3.45-3.817l-106.638.402c-28.006.106-54.658,2.18-82.672,1.369-20.524-.594-39.87,1.306-60.328,1.462l-96.389.738c-5.571.043-10.113,1.257-15.747.571-10.314-1.257-19.965.848-31.284.664l1.168,100.439-.903,17.963c-.072,1.44.536,2.49,1.16,3.327.403.541,1.213,1.061,2.081.364-.016,8.367-.068,16.684-.045,25.039-1.031-.885-2.967.479-2.971,2.116l-.184,87.309,1.713,25.867.158,128.478h-3.445l-.119-90.364c-.001-.861-3.782-.596-3.398-.493l-.032-22.286c1.413.162,1.888-1.312,1.886-3.642l-.258-273.904c-22.133-1.089-43.287.458-65.252,1.332-19.251.767-37.674-.548-56.847,2.409-19.229-2.284-37.745.611-56.801,1.008l-76.053,1.583-257.834.06c.117-1.513.115-3.022.009-4.535,8.175-.462,16.313,1.183,25.601,1.199l151.374.268c2.297.004,2.095-2.765,1.806-3.582,1.145.012,2.299-.013,3.445,0-.123-.301-.332,3.445.473,3.442l65.021-.227c16.319-.057,31.875-2.182,48.203-1.396,18.092.871,35.374-.852,53.391-1.402l55.149-1.685,60.258-1.894,46.582-.888c1.485-3.694,1.392-8.29,1.426-13.173l1.133-161.706c.024-3.366,3.645-71.176-2.233-62.993.017-.938.02-1.883,0-2.821.984.874,2.931-.272,2.956-2.155l.903-66.126,1.536-88.787c-17.77-2.451-34.392-.068-52.302.562-21.61.76-42.47-.623-63.916,1.266-2.247.198-4.297.502-4.644,2.286-1.16-.073-2.627.293-3.771.531-1.499-4.568-55.478-1.305-65.427-.797l-36.491,1.864-295.617-.135c.084-1.507.096-2.997-.009-4.504l221.621.113c16.984.009,31.752.678,48.538.17l68.804-2.082c16.877-.511,33.197.803,49.948-2.326,18.731,1.198,36.458-.705,55.151-.916l77.779-.877-.283-225.654c-.476-2.137-1.897-2.798-3.284-2.092,0-1.001-.06-2.011,0-3.01.981.793,3.234-.011,3.252-2.003l.173-18.901c.018-2.017-.959-3.379-2.272-3.447.521-1.372-.685-3.422-.032-4.864,1.468-.032,2.092-1.444,2.508-3.483-1.237-20.908,1.017-40.846,1.105-61.79l.281-66.625-60.277-.324-26.022-1.61-190.918-.081c-21.332,2.17-40.991,1.899-62.153,1.757-25.083-.168-48.903.953-74.092,1.099l-108.495.631v-3.429l67.193-.273c22.138-.09,43.252-1.983,65.457-1.468,23.343.542,45.603-1.274,68.896-1.514l65.411-.676c14.963-.155,28.135.048,43.224.095l187.513.579c8.955.028,16.474,1.85,24.964.65,1.014-8.776,1.501-17.573,1.045-26.512-.987-19.323,1.372-37.255,1.363-56.702l-.068-145.526c-.006-13.242-1.328-24.849.057-37.836,1.898-17.798-1.207-35.245-1.236-53.102l-.13-82.285h3.445c-.553,13.974,1.427,27.976,1.528,42.896l.533,78.106-.828,33.393.232,172.932c.034,25.663-2.788,49.363-1.472,75.336l101.622-.317,80.976-4.106,51.682-1.937,68.906-1.72,44.815-.827c16.618-.307,32.461,2,49.794-.118l-.165-59.336-1.668-53.184-.243-86.394c-.008-2.702-1.369-4.967-2.887-6.067-.004-1.154-.343-2.361-.466-3.514.77.312,2.108-.377,2.11-1.795l.123-82.143c.014-9.402-1.392-18.129-1.478-27.507l-.705-76.685c1.208-.293,2.563-.337,3.802-.441ZM708.101,897.377c11.435,1.395,21.4-.605,32.717-.646l108.412-.4,29.452-1.225,175.439-.364c6.251-.013,11.485-1.337,17.454-.69,10.88,1.18,21.672,1.441,32.19-.872l.995-116.627,1.232-94.228c.121-9.263,2.082-18.323,1.17-27.509-1.278-12.868.215-24.794.24-37.75l.228-119.806-70.638.132c-26.701.05-52.372,2.362-79.198,1.146-28.177,3.331-60.678,2.229-87.887,3.912l-49.966,3.092-110.406.345-1.368,37.56-.649,67.025c-.113,11.629.361,22.431-.56,34.146-1.896,24.105-.028,47.559-.477,71.666-.561,30.101,1.04,59.068,1.249,89.406l.555,80.576c.025,3.561,1.104,6.66-.183,11.11ZM1372.155,896.974l129.98-.577-.038-362.847c0-6.877-1.185-11.711-1.648-17.717-.47-6.095,3.412-11.93.713-18.987l-116.056.484c-10.579.044-20.238,1.668-30.504.099-30.417,3.048-59.441.172-90.259.079l-153.003-.461-.527,173.15c-.061,20.017-2.675,38.5-1.173,58.392l-1.607,50.634c1.968,8.902.266,17.401.184,26.537l-.79,88.67,146.585.699c14.839.071,28.491,1.938,43.162,1.094,25,3.684,48.628.867,74.981.75ZM708.349,1054.286c-.052,2.807-.253,5.746-.276,8.567-.737-.02-1.884-.309-2.563.078-.825.471-1.041,1.757-1.038,3.268l.111,54.933c.003,1.579,2.002,2.891,2.996,2.036-.012,1.523-.046,2.997,0,4.517-.86-.679-1.674-.177-2.067.351-.334.449-2.067,75.123-2.132,83.945l-.654,88.442c6.602.989,11.391-.783,17.345-.817l80.952-.461c22.149-.126,43.303-2.179,65.449-1.388,22.332.798,43.156-1.394,65.585-1.451l159.981-.4c1.806-.005,2.914-1.862,2.128-2.947,1.159-.002,2.318.103,3.477.031.175,1.632,2.834,3.145,5.292,2.465,1.33-8.244-.357-17.386-.362-27.072l-.108-205.321,1.735-32.892-.245-131.983-177.086.346c-27.087.053-52.358,2.62-79.333,1.321-22.746-.057-44.451,1.285-67.17,1.505l-72.437.7c.61,12.334-.681,24.192-.803,36.63l-1.098,112.211c-.019,1.94.852,3.64,2.318,3.388ZM1261.294,1292.963c2.77.528,5.533.182,9.667.022-.728.862-.199,1.705.382,2.052.839.502,1.904,1.295,3.395,1.237,27.959-1.09,54.739,1.085,82.673,1.227l72.372.366c8.334.042,50.235,4.446,46.531-1.971l21.463-.854.778-19.614c2.511,2.341,2.014-25.074,2.771-35.221,2.013-26.988.306-53.801.756-81.2-.17,10.356-2.535-30.076-3.49-17.293l.032-8.562c3.565-1.745,3.716-6.024,3.579-10.237l-1.372-42.225c-.246-7.568-1.996-15.07,1.391-22.944-3.005-7.654-.183-14.656-.2-22.375l-.298-134.944c-30.73-.266-59.961.113-90.211.411l-105.617,1.038c-1.368.166-2.103.743-1.848,1.724l-82.687-1.759c-.242-1.087-1.31-3.539-3.659-3.54l-109.652-.043-1.286,187.474-.428,134.81c-.081,25.498,2.475,49.613,1.079,75.223l151.634.277c1.982.004,3.123-2.295,2.245-3.077ZM1758.97,816.012l-29.682,1.686-223.81-.21-.142,260.496-.025,55.033c-2.777,8.082.117,15.814.12,24.233l.047,141.602c20.023,1.889,38.939-.515,58.682-.967,18.661-.427,36.539.101,55.116-2,29.006,1.321,50.783-1.675,77.538-1.6l.244-3.415-188.169,4.998-.348-135.074.115-33.107.256-306.845,150.216.809c6.077.033,12.82.078,18.89-.022l56.863-.942,166.982-1.258-.054-3.429-142.839.012ZM709.733,99.429c-.553,13.974,1.427,27.976,1.528,42.896l.533,78.106-.828,33.393.232,172.932c.034,25.663-2.788,49.363-1.472,75.336l101.622-.317,80.976-4.106,51.682-1.937,68.906-1.72,44.815-.827c16.618-.307,32.461,2,49.794-.118l-.165-59.336-1.668-53.184-.243-86.394c-.008-2.702-1.369-4.967-2.887-6.067l.42,119.707,1.484,82.76c-43.339-2.181-84.908-.032-127.594,1.138l-67.358,1.846-98.353,4.87-98.123.335,1.367-66.955.663-102.71c.161-24.93-1.425-48.823-.824-73.649l.897-37.032-.726-77.73-1.189-41.296-3.486.058ZM702.842,99.267l.308,77.28c.087,21.926,1.38,42.292,1.25,64.315l-1.164,197.807-1.316,58.638c-7.801,2.071-14.21.079-21.655.057l-182.284-.552c-22.576-.068-43.235.141-65.522.295l-51.791.357c-34.196.236-67.327,1.082-101.522,1.491-7.635.091-14.856,1.586-22.517,1.586l-74.085-.004.059,3.465,67.193-.273c22.138-.09,43.252-1.983,65.457-1.468,23.343.542,45.603-1.274,68.896-1.514l65.411-.676c14.963-.155,28.135.048,43.224.095l187.513.579c8.955.028,16.474,1.85,24.964.65,1.014-8.776,1.501-17.573,1.045-26.512-.987-19.323,1.372-37.255,1.363-56.702l-.068-145.526c-.006-13.242-1.328-24.849.057-37.836,1.898-17.798-1.207-35.245-1.236-53.102l-.13-82.285-3.445-.162ZM699.456,1578.644l-.258-273.904c-22.133-1.089-43.287.458-65.252,1.332-19.251.767-37.674-.548-56.847,2.409-19.229-2.284-37.745.611-56.801,1.008l-76.053,1.583-257.834.06c-.096,1.24-.405,2.482-.42,3.726l259.909-.279,41.851-.941,207.183-5.907c2.106,14.499.571,28.417.621,43.55l.671,202.533c2.587,10.007,1.329,19.304,1.342,28.472,1.413.162,1.888-1.312,1.886-3.642ZM402.888,903.856c16.984.009,31.752.678,48.538.17l68.804-2.082c16.877-.511,33.197.803,49.948-2.326,18.731,1.198,36.458-.705,55.151-.916l77.779-.877-.283-225.654c-.476-2.137-1.897-2.798-3.284-2.092l.081,224.344-72.499.832c-17.557.202-34.218,2.066-51.801.953-18.456,2.768-36.502,1.869-55.066,2.412l-61.968,1.811c-19.566.572-37.319.157-57.168.091l-220.096-.729c-.007,1.313.153,2.641.244,3.95l221.621.113ZM1657.174,1299.265c-21.575-.15-42.186.694-63.719,1.643-19.25.849-37.745-.43-56.906,2.495-4.16-2.718-8.014-.797-12.109-.775l-68.467.36-.338,171.131-1.688,31.143.354,133.526c.052,19.768,2.853,38.103.002,56.644l4.323-.117c-1.485-6.457.654-13.224.302-20.583l-.818-17.058.514-176.478.701-149.139.694-25.645,183.195-3.502,40.185-1.328c2.92-.097,5.989.652,6.524,3.093,2.959-1.291,5.896-3.187,6.362-6.56-12.644-1.627-25.514,1.245-39.11,1.151ZM703.171,634.371c-1.237-20.908,1.017-40.846,1.105-61.79l.281-66.625-60.277-.324-26.022-1.61-190.918-.081c-21.332,2.17-40.991,1.899-62.153,1.757-25.083-.168-48.903.953-74.092,1.099l-108.495.631.411,3.775,106.275-.957c24.016-.216,46.864-.465,70.721-.974l70.7-1.508,184.25-.044c29.402-.007,56.428,2.973,86.779.754l-1.462,81.148c-.229,12.712-2.228,24.979,1.245,37.249-2.556,4.007-3.004,8.043-.859,10.982,1.468-.032,2.092-1.444,2.508-3.483ZM1290.155,1301.259l-137.602-.614-44.46-.499c-1.312,24.647.575,48.077.761,73.11l1.146,154.114c.214,28.78,1.248,55.51.082,84.037-.668,16.328,2.822,32.057-.067,48.524-1.995,11.371.25,23.035-.626,33.879,1.089-.28,2.417-.051,3.545-.045.879-9.21-1.575-19.295-.081-29.162,2.826-18.665.661-36.08.654-54.44-.008-21.633.91-41.95.665-64.077l-1.891-171.026-1.547-70.986c16.195-1.568,31.049.192,47.049.181l134.542-.092c.861-1.12-.397-2.895-2.169-2.903ZM1738.318,809.292l-27.796,1.672-135.923-.259-64.61-.467c-1.537-11.926-.858-22.7-.858-33.666-2.071.317-3.647,2.257-3.601,5.062l.508,31.302,23.853,1.123,180.529.285,22.708-1.638,168.683-.134v-3.667l-163.491.388ZM513.385,906.519l-36.491,1.864-295.617-.135c-.076,1.352-.013,2.718,0,4.072l295.56-.824,61.074-2.806c14.071-.647,27.873,1.334,40.901-1.373-1.499-4.568-55.478-1.305-65.427-.797ZM1881.137,406.397c-16.977.405-33.056-.826-49.969-1.463l-41.399-1.558-53.378-1.843c-28.864-.997-123.589-.17-148.105,2.494,1.475,5.167,51.985.857,62.042.863l89.509.051,51.732,1.745,41.341,1.629c15.712.619,30.817.302,46.507,1.362l21.582,1.459c-.21-1.472-.091-2.915-.054-4.387-6.084,2.282-12.792-.52-19.808-.352ZM1862.211,413.686l-51.66-1.777-51.698-1.727-132.554-.54c-3.092-.013-40.352-.284-34.943,4.751l33.185-1.2,133.948.379,50.233,1.638,92.635,3.444c.039-1.366.125-2.756.05-4.121-12.757,1.501-25.623-.38-39.195-.847ZM1450.506,1445.286c0-2.411-.662-3.51-2.076-3.711l-1.402,253.912,3.445.022.032-250.224ZM702.879,1453.774l-.184,87.309,1.713,25.867.158,128.478,3.445.049-.353-125.08-1.588-36.176-.221-82.564c-1.031-.885-2.967.479-2.971,2.116ZM320.194,1304.02l-123.742-.217-10.455-.946c-.014,1.245.338,2.496.425,3.739,8.175-.462,16.313,1.183,25.601,1.199l151.374.268c2.297.004,2.095-2.765,1.806-3.582l-45.008-.461ZM1505.599,126.857l-.018,232.806c.725,2.402,1.746,3.406,3.183,3.765l.683-236.558-3.848-.013ZM1097.818,96.918c1.068,2.112.984,4.689,1.008,7.737l.493,63.319,1.261,24.792c1.583,31.123-1.7,61.738,1.51,91.805.77.312,2.108-.377,2.11-1.795l.123-82.143c.014-9.402-1.392-18.129-1.478-27.507l-.705-76.685c-1.451.352-2.835.459-4.323.477ZM701,1605.065c-.001-.861-3.782-.596-3.398-.493l.072,90.907,3.445-.049-.119-90.364ZM1502.155,171.248l.057-37.651c.004-2.79-.656-5.054-1.781-6.74l-1.736-.112.014,43.42c.711.578,1.669,1.32,3.447,1.084ZM1105.943,96c.779,3.297-2.091,42.24,3.061,39.235l.732-38.803c-1.258-.007-2.54-.537-3.793-.432ZM702.794,665.066l.173-18.901c.018-2.017-.959-3.379-2.272-3.447-2.945,7.756-.664,16.239-1.153,24.351.981.793,3.234-.011,3.252-2.003ZM369.121,1307.923l65.021-.227c16.319-.057,31.875-2.182,48.203-1.396,18.092.871,35.374-.852,53.391-1.402l55.149-1.685,60.258-1.894,46.582-.888c1.485-3.694,1.392-8.29,1.426-13.173l1.133-161.706c.024-3.366,3.645-71.176-2.233-62.993l-1.15,64.651-1.139,137.809c-.092,11.16-.014,21.634-1.132,32.211l-43.452.714-56.852,1.829-60.246,1.94-77.52,1.658c-30.047.643-58.9,1.45-87.91,1.109-.123-.301-.332,3.445.473,3.442ZM701.006,1057.584l.903-66.126,1.536-88.787c-17.77-2.451-34.392-.068-52.302.562-21.61.76-42.47-.623-63.916,1.266-2.247.198-4.297.502-4.644,2.286,35.425,2.222,78.83-2.408,117.419-1.089l-1.524,95.982c-.317,19.948-.839,38.995-.427,58.061.984.874,2.931-.272,2.956-2.155ZM1505.587,574.556l.01,198c1.678,1.012,2.701.693,3.532.587l-.389-200.832c-.833-.759-3.154.064-3.154,2.245ZM1543.53,412.937c-20.377,1.839-47.605-5.195-36.068,10.447.776-1.63,1.482-6.328,4.878-6.443l74.567-2.52c6.558-6.031-39.849-1.802-43.377-1.484ZM1505.607,438.99l.305,71.816c.006,1.446.475,2.382,1.083,3.178.376.492,1.124.892,1.985.428l-.28-77.552c-.842-.825-3.101.237-3.093,2.13ZM1507.715,432c.069.772-.111,1.994,1.035,1.714.012-.769.023-1.864-1.035-1.714ZM1095.444,1299.319l-106.638.402c-28.006.106-54.658,2.18-82.672,1.369-20.524-.594-39.87,1.306-60.328,1.462l-96.389.738c-5.571.043-10.113,1.257-15.747.571-10.314-1.257-19.965.848-31.284.664l1.168,100.439-.903,17.963c-.072,1.44.536,2.49,1.16,3.327.403.541,1.213,1.061,2.081.364l.224-118.59c57.499-3.815,107.337.435,163.752-3.339l91.426-.631,137.598-.923c-.612-.973-.768-3.827-3.45-3.817ZM1106.757,1650.618c-1.343-23.128-1.667-45.574.278-68.674.439-5.211-.987-10.059-.994-15.253l-.114-85.515c-.002-1.654-2.079-2.866-3.076-2.045l-.482,84.126c2.409,6.003,1.535,11.87,1.316,18.049-.652,18.446-2.685,36.717-.312,55.042,1.367,10.56-.976,20.322-.934,30.122,2.806,9.426,3.927-22.584,4.318-15.852ZM1106.057,1472.434l-.638-67.985-.71-22.707-.592-66.755c-.033-3.765-1.441-6.664-3.513-8.701l.355,68.541,1.374,24.81.5,74.923c.685.833,3.243-.248,3.225-2.126ZM1497.446,390.739l-.33,56.724c-.081,13.901,2.025,27.21.325,41.901l-35.039,1.059-218.449-.587c-43.193-.116-84.421-2.808-128.855.298l-.766-109.495c-.069-9.924-1.775-19.219-1.24-29.243l-.909-106.186-1.034-97.829c-.031-2.961-.6-5.282-2.013-6.953.63,24.961-.436,50.854-1.541,77.227-.416,9.941,1.612,19.301,1.638,29.256l.264,97.591c-.968,11.765,1.351,22.68,1.419,34.379l.673,114.594c41.653-2.614,81.645-.567,123.678-.438l244.293.752c7.474.023,13.851-2.441,21.212-1.593,2.799-12.115.122-23.585-.062-36.202-.328-22.502-.223-44.379.229-66.865l.757-37.688.577-77.172c.012-1.646-2.718-2.982-3.561-1.972l-1.266,118.442ZM1502.186,262.165l-.069-83.628c-.002-2.15-2.258-4.061-3.49-3.838l.072,89.534c.806.953,3.489-.068,3.487-2.069ZM1451.698,1420.966l.747-117.752-55.567-1.501-99.657-.69c-1.63-.011-3.002,2.293-2.112,3.139l73.651.64,52.378,1.036,27.629.524.237,123.522c2.833-.853,2.673-5.528,2.694-8.92ZM1522.825,405.948c-4.928,3.548,63.679,3.024,60.433-1.201-19.978-.943-40.617-.918-60.433,1.201ZM1506.597,378.916c-.464.703-1.334,1.822-1.293,3.454l.638,25.285c1.85,3.464,12.836,3.572,13.736-1.239-3.233-.828-6.795-.105-10.798-1.826-.163-9.306.66-17.712-.152-26.003-.834-.571-1.766-.224-2.13.329ZM1505.471,371.131c-.131,2.658.165,5.384,3.256,4.559.255-2.467.286-4.926-.009-7.393-2.399-.785-3.163,1.114-3.247,2.834ZM708.101,897.377c1.288-4.45.208-7.549.183-11.11l-.555-80.576c-.209-30.338-1.809-59.305-1.249-89.406.449-24.107-1.419-47.562.477-71.666.921-11.715.447-22.518.56-34.146l.649-67.025,1.368-37.56,110.406-.345,49.966-3.092c27.209-1.684,59.71-.581,87.887-3.912,26.827,1.216,52.498-1.096,79.198-1.146l70.638-.132-.228,119.806c-.025,12.956-1.518,24.882-.24,37.75.912,9.186-1.049,18.246-1.17,27.509l-1.232,94.228-.995,116.627c-10.518,2.313-21.309,2.052-32.19.872-5.969-.647-11.203.677-17.454.69l-175.439.364-29.452,1.225-108.412.4c-11.317.042-21.281,2.042-32.717.646ZM711.944,893.187c12.828,2.797,24.028.095,35.74-.039l134.325-1.538,136.109-.571,82.379-.639.832-110.325,1.725-101.366,1.35-178.185-67.442.219c-24.457.079-47.734,2.495-72.31,1.318l-89.512,3.735-56.965,3.12-105.332.582-2.274,102.454c-.166,7.46,2.218,14.153-.641,21.429l1.1,167.083.421,82.44c.011,2.235-2.949,9.53.496,10.282ZM1372.155,896.974c-26.353.117-49.981,2.935-74.981-.75-14.671.844-28.322-1.024-43.162-1.094l-146.585-.699.79-88.67c.081-9.136,1.784-17.635-.184-26.537l1.607-50.634c-1.502-19.892,1.112-38.375,1.173-58.392l.527-173.15,153.003.461c30.818.093,59.842,2.969,90.259-.079,10.265,1.569,19.925-.055,30.504-.099l116.056-.484c2.699,7.057-1.183,12.892-.713,18.987.463,6.006,1.647,10.84,1.648,17.717l.038,362.847-129.98.577ZM1498.509,893.287l.015-81.971.151-287.549c-6.415-7.267,3.332-23.219-1.724-23.184l-50.033.351-110.031.574c-23.643,2.274-45.63-.515-69.266-.594l-153.1-.512-.067,166.285-1.579,29.281-.48,68.724-1.574,126.288,139.66.961,58.619,1.921c23.218,2.358,45.585-.526,69.08-.534l120.328-.042ZM1102.939,1295.454c1.33-8.244-.357-17.386-.362-27.072l-.108-205.321,1.735-32.892-.245-131.983-177.086.346c-27.087.053-52.358,2.62-79.333,1.321-22.746-.057-44.451,1.285-67.17,1.505l-72.437.7c.61,12.334-.681,24.192-.803,36.63l-1.098,112.211c-.019,1.94.852,3.64,2.318,3.388l2.14-115.99c.197-10.701,1.652-20.29-.133-32.922l68.312-.575c36.518-.307,71.901-1.338,108.457-1.278,15.436-1.164,29.583-1.462,45.152-1.507l168.509-.491-1.083,152.68-.743,132.025c.06,30.192-1.026,71.11,1.429,99.527.264,3.053-.625,6.367-2.742,7.234.175,1.632,2.834,3.145,5.292,2.465ZM1217.702,898.3l-109.652-.043-1.286,187.474-.428,134.81c-.081,25.498,2.475,49.613,1.079,75.223l151.634.277c1.982.004,3.123-2.295,2.245-3.077l-150.602-.209c1.828-24.914-1.146-47.779-1.038-72.174l.618-139.64,1.086-179.433,110.002.333c-.242-1.087-1.31-3.539-3.659-3.54ZM705.514,1128.036c-.334.449-2.067,75.123-2.132,83.945l-.654,88.442c6.602.989,11.391-.783,17.345-.817l80.952-.461c22.149-.126,43.303-2.179,65.449-1.388,22.332.798,43.156-1.394,65.585-1.451l159.981-.4c1.806-.005,2.914-1.862,2.128-2.947l-165.479.271-100.056,1.585-105.066,1.18c-6.014.068-11.442,2.809-17.464.004l1.412-102.807c.31-22.559.722-44.008.064-65.506-.86-.679-1.674-.177-2.067.351ZM1502.202,1122.914l-1.372-42.225c-.246-7.568-1.996-15.07,1.391-22.944-3.005-7.654-.183-14.656-.2-22.375l-.298-134.944c-30.73-.266-59.961.113-90.211.411l-105.617,1.038c-1.368.166-2.103.743-1.848,1.724l8.701,1.475c24.031,4.073,48.382-.572,73.089-.76l106.003-.807c2.215-.017,5.238.505,5.779,1.714.427.955.957,3.198.952,5.077l-.321,126.754c-.032,12.694-1.014,24.45-.14,36.83,1.421,20.151.583,39.783.511,59.27,3.565-1.745,3.716-6.024,3.579-10.237ZM1434.847,1294.747l-104.884-1.709c-20.392-.332-39.683-.797-59.003-.052-.728.862-.199,1.705.382,2.052.839.502,1.904,1.295,3.395,1.237,27.959-1.09,54.739,1.085,82.673,1.227l72.372.366c8.334.042,50.235,4.446,46.531-1.971-14.468.576-27.454-.922-41.467-1.15ZM1501.325,1240.207c2.013-26.988.306-53.801.756-81.2-.17,10.356-2.535-30.076-3.49-17.293l-.036,133.714c2.511,2.341,2.014-25.074,2.771-35.221ZM705.511,1062.931c-.825.471-1.041,1.757-1.038,3.268l.111,54.933c.003,1.579,2.002,2.891,2.996,2.036l.493-60.315c-.737-.02-1.884-.309-2.563.078Z" fill="#110d13"/>
  </g>
  <g id="wethersfield">
    <path d="M1097.646,1292.99c-1.159.071-2.318-.033-3.477-.031l-165.479.271-100.056,1.585-105.066,1.18c-6.014.068-11.442,2.809-17.464.004l1.412-102.807c.31-22.559.722-44.008.064-65.506-.046-1.52-.012-2.995,0-4.517l.493-60.315c.023-2.821.224-5.76.276-8.567l2.14-115.99c.197-10.701,1.652-20.29-.133-32.922l68.312-.575c36.518-.307,71.901-1.338,108.457-1.278,15.436-1.164,29.583-1.462,45.152-1.507l168.509-.491-1.083,152.68-.743,132.025c.06,30.192-1.026,71.11,1.429,99.527.264,3.053-.625,6.367-2.742,7.234Z" fill="#fefefe"/>
  </g>
  <g id="warsaw">
    <path d="M1498.509,893.287l-120.328.042c-23.495.008-45.861,2.892-69.08.534l-58.619-1.921-139.66-.961,1.574-126.288.48-68.724,1.579-29.281.067-166.285,153.1.512c23.635.079,45.622,2.869,69.266.594l110.031-.574,50.033-.351c5.057-.036-4.691,15.916,1.724,23.184l-.151,287.549-.015,81.971Z" fill="#fefefe"/>
  </g>
  <g id="sheldon">
    <path d="M700.663,637.854c-.654,1.442.552,3.492.032,4.864-2.945,7.756-.664,16.239-1.153,24.351-.06.999,0,2.009,0,3.01l.081,224.344-72.499.832c-17.557.202-34.218,2.066-51.801.953-18.456,2.768-36.502,1.869-55.066,2.412l-61.968,1.811c-19.566.572-37.319.157-57.168.091l-220.096-.729,1.42-279.029.569-109.561,106.275-.957c24.016-.216,46.864-.465,70.721-.974l70.7-1.508,184.25-.044c29.402-.007,56.428,2.973,86.779.754l-1.462,81.148c-.229,12.712-2.228,24.979,1.245,37.249-2.556,4.007-3.004,8.043-.859,10.982Z" fill="#fefefe"/>
  </g>
  <g id="pike">
    <path d="M1292.324,1304.162c.926,0,1.86-.008,2.785,0l73.651.64,52.378,1.036,27.629.524.237,123.522c.007,3.878-.553,7.822-.574,11.69l-1.402,253.912-106.944-.52-227.151-1.204c.879-9.21-1.575-19.295-.081-29.162,2.826-18.665.661-36.08.654-54.44-.008-21.633.91-41.95.665-64.077l-1.891-171.026-1.547-70.986c16.195-1.568,31.049.192,47.049.181l134.542-.092Z" fill="#fefefe"/>
  </g>
  <g id="perry">
    <path d="M1901.357,418.655c-.365,12.747.103,25.484.199,39.278l.885,126.609.043,123.417-.675,100.946-163.491.388-27.796,1.672-135.923-.259-64.61-.467c-1.537-11.926-.858-22.7-.858-33.666v-3.429l-.389-200.832.24-57.899-.28-77.552.05-3.145c.012-.769.023-1.864-1.035-1.714-.21-2.346,1.24-6.593-.253-8.616.776-1.63,1.482-6.328,4.878-6.443l74.567-2.52,4.449-.027,33.185-1.2,133.948.379,50.233,1.638,92.635,3.444Z" fill="#fefefe"/>
  </g>
  <g id="orangeville">
    <path d="M711.944,893.187c-3.444-.752-.484-8.047-.496-10.282l-.421-82.44-1.1-167.083c2.858-7.276.475-13.968.641-21.429l2.274-102.454,105.332-.582,56.965-3.12,89.512-3.735c24.576,1.177,47.852-1.238,72.31-1.318l67.442-.219-1.35,178.185-1.725,101.366-.832,110.325-82.379.639-136.109.571-134.325,1.538c-11.712.134-22.912,2.836-35.74.039Z" fill="#fefefe"/>
  </g>
  <g id="middlebury">
    <path d="M1498.694,126.745l.014,43.42-.081,4.535.072,89.534.014,8.063-1.266,118.442-.33,56.724c-.081,13.901,2.025,27.21.325,41.901l-35.039,1.059-218.449-.587c-43.193-.116-84.421-2.808-128.855.298l-.766-109.495c-.069-9.924-1.775-19.219-1.24-29.243l-.909-106.186-1.034-97.829c-.031-2.961-.6-5.282-2.013-6.953l-.131-5.192.732-38.803,213.125,1.178,89.73.539,83.919-.323c1.586,7.839-1.637,24.742,2.185,28.918Z" fill="#fefefe"/>
  </g>
  <g id="java">
    <path d="M698.05,1059.739c.02.938.017,1.883,0,2.821l-1.15,64.651-1.139,137.809c-.092,11.16-.014,21.634-1.132,32.211l-43.452.714-56.852,1.829-60.246,1.94-77.52,1.658c-30.047.643-58.9,1.45-87.91,1.109-1.146-.013-2.301.012-3.445,0l-45.008-.461-123.742-.217-10.455-.946.863-78.998-4.515-196.91-1.068-114.63,295.56-.824,61.074-2.806c14.071-.647,27.873,1.334,40.901-1.373,1.144-.238,2.611-.604,3.771-.531,35.425,2.222,78.83-2.408,117.419-1.089l-1.524,95.982c-.317,19.948-.839,38.995-.427,58.061Z" fill="#fefefe"/>
  </g>
  <g id="genesee_falls">
    <path d="M1689.922,1304.675c-8.624,3.762-29.278-.038-38.286,12.904-4.37,6.278-.605,13.251.737,19.324,2.672,12.095,9.04,19.373,20.309,24.113,5.495,2.311,12.18,4.922,18.92,2.888,4.041-1.22,8.698-5.262,11.137-10.803,4.979-11.311,13.735-1.081,29.956-.411,9.336.386-1.848,20.231-.341,18.087-5.899,8.392-13.293,15.351-20.334,22.707-18.724-1.264-19.206,7.708-35.374,7.769-20.192-14.771-24.006.562-32.446-8.149-3.387-3.496-7.164-4.756-11.816-4.264-7.948.839-11.777,12.441-25.879,24.641-4.223,3.653-6.96,9.381-12.424,11.673-6.721,2.819-10.031,8.761-13.404,13.971-8.396,12.97-4.314,24.289,4.877,34.811,7.931,9.079,16.519,14.755,28.898,6.955,3.43-2.161,9.809-1.779,13.62-4.844,2.846-2.289,3.972-8.614,8.74-8.528,5.172.094,8.647,6.958,8.622,11.913-8.653,1.007-15.033,4.796-20.663,10.661l-34.484,35.921c-13.291,13.845-12.245,31.896-16.853,47.883-2.573,8.927.916,15.52,8.114,21.444-10.13,1.441-14.679,9.017-21.596,13.456-12.322,7.907-19.945,18.249-18.644,33.763.587,7.002,2.092,13.852,9.393,15.87,17.433,4.818,22.441-17.441,37.237-28.397,2.575,5.894,9.18,7.037,12.631,10.922,8.434,9.495-22.582,19.247-13.11,40.034,2.148,4.713,7.645,5.685,11.802,5.542,8.435-.29,12.686-11.557,14.274-6.917,1.7,4.968-6.463,6.67.459,17.404l-155.369-1.7c-1.485-6.457.654-13.224.302-20.583l-.818-17.058.514-176.478.701-149.139.694-25.645,183.195-3.502,40.185-1.328c2.92-.097,5.989.652,6.524,3.093Z" fill="#fefefe"/>
  </g>
  <g id="gainesville">
    <path d="M1221.361,901.84l82.687,1.759,8.701,1.475c24.031,4.073,48.382-.572,73.089-.76l106.003-.807c2.215-.017,5.238.505,5.779,1.714.427.955.957,3.198.952,5.077l-.321,126.754c-.032,12.694-1.014,24.45-.14,36.83,1.421,20.151.583,39.783.511,59.27l-.032,8.562-.036,133.714-.778,19.614-21.463.854c-14.468.576-27.454-.922-41.467-1.15l-104.884-1.709c-20.392-.332-39.683-.797-59.003-.052-4.133.159-6.897.506-9.667-.022l-150.602-.209c1.828-24.914-1.146-47.779-1.038-72.174l.618-139.64,1.086-179.433,110.002.333Z" fill="#fefefe"/>
  </g>
  <g id="eagle">
    <path d="M1098.894,1303.136c.497.79,1.047,2.499,1.709,3.15l.355,68.541,1.374,24.81.5,74.923c.01,1.531.027,3.04.018,4.571l-.482,84.126c2.409,6.003,1.535,11.87,1.316,18.049-.652,18.446-2.685,36.717-.312,55.042,1.367,10.56-.976,20.322-.934,30.122l.118,27.109c-3.439,1.43-7.555,1.694-12.243,1.336-26.683-2.036-52.429-1.608-79.173-1.328l-56.797.593-105.047.13-92.999.901-48.288.267-.353-125.08-1.588-36.176-.221-82.564c-.022-8.355.029-16.673.045-25.039l.224-118.59c57.499-3.815,107.337.435,163.752-3.339l91.426-.631,137.598-.923Z" fill="#fefefe"/>
  </g>
  <g id="covington">
    <path d="M1900.945,406.749c-6.084,2.282-12.792-.52-19.808-.352-16.977.405-33.056-.826-49.969-1.463l-41.399-1.558-53.378-1.843c-28.864-.997-123.589-.17-148.105,2.494-1.317.143-4.04-.301-5.028.72-19.978-.943-40.617-.918-60.433,1.201-1.055.113-2.102.286-3.147.468-3.233-.828-6.795-.105-10.798-1.826-.163-9.306.66-17.712-.152-26.003-.091-.931-.096-1.967,0-2.898.255-2.467.286-4.926-.009-7.393-.193-1.614.041-3.253.045-4.868l.683-236.558,84.041-2,165.238-3.747c2.799-.063,5.366.194,6.606,1.855.857,1.148,1.04,3.902,1.874,6.665l58.787.991,77.968,1.43-1.331,98.001.044,107.613-1.728,69.069Z" fill="#fefefe"/>
  </g>
  <g id="castile">
    <path d="M1901.863,819.429l-1.618,61.799-1.453,141.93c-8.063,4.211-11.454,13.017-16.411,18.098-5.418-.846-13.709-4.659-19.934-.328-8.308,5.78-12.434,14.554-12.573,24.66-.076,5.512-5.856,6.951-8.932,10.588-9.681,11.445-6.035,29.195,7.659,38.198-7.802,3.654-14.598,4.109-18.336,8.741-10.082,12.492.585,24.434,1.162,35.733-8.445.127-15.346,1.678-20.638,7.191-7.083,7.378-7.022,18.859,2.45,25.356-3.211,3.792-7.18,1.402-10.342,3.48-8.707,5.724-15.497,16.234-15.746,26.955-.324,13.993,14.417,25.208-2.476,42.179-6.544-5.533-19.185-9.57-24.572-.928-4.731,7.589-11.636,22.799-23.913,20.413-8.87-3.922-20.229-13.619-31.338-4.538-3.465,2.833-4.47,8.856-7.795,11.916l-188.169,4.998-.348-135.074.115-33.107.256-306.845,150.216.809c2.061,9.116-3.298,18.888-2.089,28.201.906,6.979-6.916,34.21-9.754,43.07-2.459,7.677-2.877,15.54-9.363,22.533-15.036,16.21-55.874,36.925-48.274,50.255,3.137,5.502,9.811,12.405,16.057,14.617,6.079,2.152,11.898-4.949,14.454-8.903,10.456-16.172,16.627-4.143,25.722-19.525,15.531-26.268,26.006-54.456,31.068-85.013,2.529-15.267-.093-30.45,1.07-45.259l56.863-.942,166.982-1.258Z" fill="#fefefe"/>
  </g>
  <g id="bennington">
    <path d="M702.842,99.267l.308,77.28c.087,21.926,1.38,42.292,1.25,64.315l-1.164,197.807-1.316,58.638c-7.801,2.071-14.21.079-21.655.057l-182.284-.552c-22.576-.068-43.235.141-65.522.295l-51.791.357c-34.196.236-67.327,1.082-101.522,1.491-7.635.091-14.856,1.586-22.517,1.586l-74.085-.004-84.561-2.759,6.176-331.181.526-57.674,107.203.179,127.771-2.2,316.355-7.232,46.83-.401Z" fill="#fefefe"/>
  </g>
  <g id="attica">
    <path d="M1097.818,96.918c1.068,2.112.984,4.689,1.008,7.737l.493,63.319,1.261,24.792c1.583,31.123-1.7,61.738,1.51,91.805.123,1.153.462,2.36.466,3.514l.42,119.707,1.484,82.76c-43.339-2.181-84.908-.032-127.594,1.138l-67.358,1.846-98.353,4.87-98.123.335,1.367-66.955.663-102.71c.161-24.93-1.425-48.823-.824-73.649l.897-37.032-.726-77.73-1.189-41.296c13.869-.233,28.157-.935,43.072-.035,46.022,2.778,89.882.566,136.157.017l205.37-2.434Z" fill="#fefefe"/>
  </g>
  <g id="arcade">
    <path d="M697.57,1582.286l.032,22.286.072,90.907-179.102,3.955-134.227,3.448c-13.395,1.713-25.7,2.093-39.286,2.097l-166,.047,4.957-235.761,1.976-154.407,259.909-.279,41.851-.941,207.183-5.907c2.106,14.499.571,28.417.621,43.55l.671,202.533c2.587,10.007,1.329,19.304,1.342,28.472Z" fill="#fefefe"/>
  </g>
  <g id="water">
    <path d="M1678.018,821.629c-1.163,14.809,1.459,29.992-1.07,45.259-5.062,30.557-15.537,58.745-31.068,85.013-9.095,15.382-15.266,3.352-25.722,19.525-2.556,3.953-8.375,11.055-14.454,8.903-6.246-2.212-12.92-9.114-16.057-14.617-7.599-13.33,33.238-34.046,48.274-50.255,6.487-6.993,6.904-14.856,9.363-22.533,2.838-8.861,10.66-36.091,9.754-43.07-1.209-9.314,4.149-19.085,2.089-28.201,6.077.033,12.82.078,18.89-.022Z" fill="#a1d8ee"/>
  </g>
  <g id="context_land">
    <path d="M1917.313,0h82.687v1709.156l-366.882-.876c.08-3.549,3.619-3.823,3.948-6.048,1.042-7.058-6.735-10.301-7.862-15.684-1.788-8.541-.403-26.869-15.035-29.288-.919-8.433,8.088-18.652,3.35-23.551-4.604-4.761-12.493-5.532-16.492-11.063-4.848-6.705-13.275-11.013-20.634-4.907-9.336,7.745-16.761,17.121-24.287,26.266-2.537-10.851,3.64-18.936,12.527-23.115,4.991-2.347,7.383-8.315,12.437-9.968,7.348-2.403,13.622-5.998,14.805-12.892,1.203-7.01-2.179-12.788-8.75-16.853,6.162-31.416,1.671-33.028,22.605-54.711l29.019-30.057c7.611.527,24.597,8.858,29.024-4.139,2.408-7.071-2.617-10.501-6.208-15.707-4.796-6.951-6.865-17.594-15.189-21.432-10.981-5.064-19.933-.665-27.04,7.553-3.169,3.55-12.271,6.348-16.88,6.648-5.051-2.806-11.402-9.614-11.798-15.279-.272-3.891,3.573-11.234,6.719-13.367,8.849-5.997,31.363-26.806,37.174-37.406,5.834,6.516,12.889,8.122,20.235,6.074,6.017-1.677,8.909,1.258,13.69,4.208,7.299,4.502,18.416,2.365,26.07-1.744,8.006-4.298,16.238-2.989,23.575-5.826,9.991-3.862,15.252-16.54,23.126-22.492,5.441-4.113,4.988-8.07,7.518-13.599,5.209-11.383,4.123-28.321-10.7-31.127l-20.769-3.933c-13.763-2.606-25.082,2.744-29.642,16.024-18.609-5.266-20.019-9.168-23.214-26.009,13.475-7.903,29.93.234,43.35-15.757,3.972-4.733,1.975-14,6.574-17.718,5.765-4.661,9.073,4.616,12.723,6.542,14.757,7.788,39.228-9.629,44.418-25.066,6.32,5.922,16.253,9.022,22.444,3.404,13.556-12.301,16.373-30.794,9.536-47.016-2.436-5.782-1.383-10.568.984-15.442,4.768-9.815,22.313-4.037,23.947-20.229.631-6.25-1.845-11.659-8.258-15.753,6.088-9.314,21.568,1.325,24.619-13.876,3.771-18.79-7.91-25.281-2.79-31.015,3.917-4.387,18.005-.447,20.672-15.73,1.331-7.631-1.589-13.435-9.124-18.262-4.449-2.85-4.937-11.562-.29-14.078,7.457-4.037,10.62-9.658,10.821-18.39.09-3.903,2.993-14.043,7.638-12.012,5.115,2.237,7.267,7.789,13.643,6.107,13.829-3.65,6.975-21.009,27.362-26.98l.976-106.135,2.178-101.204.971-169.549-.578-89.386-.812-109.633,1.158-116.557.346-123.378.907-81.924c.058-5.234-.257-9.813-.269-14.997l-.275-120.823ZM0,0v1685.143c8.05-2.825-1.2-10.961,4.561-17.064,6.899-7.309,28.936,2.922,42.872-3.238,6.188-2.735-4.316-8.918,27.08-10.822,2.844-7.857,6.226-15.884,12.595-20.573,14.474.42,12.558-3.485,20.94-1.83,2.745.542,3.579,5.043,6.217,6.073,12.437,4.854,18.344-9.729,37.485,1.613,5.929-2.8,9.788-7.427,15.313-11.34l3.453-169.151,2.44-222.66-1.573-82.681c-2.432-127.792-4.353-253.902-3.635-381.792l.637-113.494.843-145.743-84.94-1.379,5.583-310.25.607-102.519c1.819-2.926,4.816-3.077,8.042-3.034l66.701.897,1.873-96.155H0ZM180.879,0l-1.97,96.181,189.828-3.434,299.441-6.966c33.172-.772,63.823-1.398,96.721.149,46.639,2.193,91.081-.418,137.907-.617l385.432-1.638,65.943.295,155.344-.734c2.343,10.521.09,19.38,1.302,30.093l76.865-2.213,183.063-3.937c2.762-.059,5.299.161,7.053,1.367,1.19.818,1.384,3.375,2.222,6.593,8.912,1.063,17.797,1.222,27.189,1.334l96.34,1.148-1.75-117.621H180.879ZM1826.036,1722.228l-156.017-.886c-12.227-.069-21.628-3.734-34.075.09-9.082,2.79-21.042-.619-30.381.521-2.003-4.433-1.356-6.886-2.524-11.387l-126.695-.43-131.1-1.133-270.2-1.416-113.798.212-69.033-.132-139.3,1.569-43.154.151.636,90.614h1289.602v-77.156l-173.964-.616ZM695.855,1709.886l-228.929,4.612-86.626,2.923-215.517,1.328,1.442-67.264c-3.082-1.16-4.911,1.992-7.961,2.529l-19.702-3.225c-5.734,7.571-12.822,4.259-19.878,3.021-4.314-.757-10.956,5.321-15.247.195-2.562-3.06-5.878-4.047-9.429-3.357-9.905,1.923,1.676,14.202-12.357,17.966-5.756,1.544-11.869-.766-17.801,1.301-3.058,1.066-2.986,6.312-5.537,8.058-6.458,4.419-16.221-.238-22.506,3.436-5.567,3.255-10.891,4.408-16.52,3.026-2.298,6.324-13.683,19.441-19.287,19.565v96h696.223l-.368-90.114Z" fill="#804095"/>
  </g>
</svg>