<?xml version="1.0" encoding="UTF-8"?>
<svg xmlns="http://www.w3.org/2000/svg" viewBox="0 0 2000 1500">
  <g id="borders">
    <g>
      <path d="M334.767,0l-.377,94.882c-.027,6.909-1.785,12.868.218,19.637,15.835-1.874,30.746-1.186,46.19-1.48l39.316-.749,51.582-.573,287.432-6.937,6.282.007,71.497,1.576c24.248.534,47.397-.849,71.461-1.138l47.112-.566,61.894-.697,62.572-.573,6.282.004,142.552.439,66.928.243,97.431.148,9.023-.827c2.061-.189,4.176.117,6.264.044.916.297,3.273.933,3.322,2.721l.596,21.501c5.31,1.309,10.521-.223,15.979-.32l39.155-.696,57.939-1.76,102.178-1.812c2.04,1.474,1.671,5.064,3.1,7.084,7.235-.611,13.836.438,20.949.464l57.068.207c7.457.027,14.453,1.418,21.626.275.891-9.456-.23-18.39-.32-27.795l-.453-47.516-.34-48.84c-.019-2.729-.087-5.013-.993-6.952h11.159l1.589,69.702.558,63.651c.041,4.689-.056,8.785-.089,13.471l-.527,74.989c-.189,26.852-.66,52.737.073,79.552.432,15.797-1.008,30.729-.988,45.732l.007,5.662-.034,111.299.888,103.833-.711,138.198c-.18,34.917-.929,68.299-1.612,103.161l-.629,32.144c-.043,2.178.065,4.705.018,6.882l-.615,28.558c-15.556,4.069-11.116,17.964-20.959,21.585-5.689,2.092-7.871-4.052-11.908-5.106-4.53-1.183-6.177,7.636-6.401,10.98-1.014,15.124-11.4,11.631-11.279,18.737.202,11.746,13.052,8.017,10.281,21.97-2.403,12.095-12.561,8.592-16.769,12.475-4.538,4.188,5.363,11.639,2.306,25.085-3.163,13.91-16.671,3.409-19.943,11.94,4.486,3.327,7.294,7.07,6.75,12.132-1.441,13.421-16.231,8.922-19.611,16.738-1.658,3.835-2.87,7.913-.771,12.896,5.616,13.335,3.233,28.954-8.52,38.507-4.886,3.971-12.382.902-17.052-3.735-2.701,5.66-5.246,10.178-9.377,13.476-3.976,3.174-8.466,5.582-12.883,7.845-5.37.127-11.448,4.224-15.457-2.569-1.478-2.503-5.783-6.424-8.967-3.307-3.337,3.266-1.935,9.655-4.548,13.552-9.469,14.124-30.892,7.875-34.674,14.17-1.806,3.006,1.335,10.53,3.4,13.43,3.262,4.582,9.102,6.033,14.685,7.799,3.939-10.985,12.484-16.294,23.479-13.359,21.368,5.706,13.961-.101,22.666,7.181,7.068,5.913,6.065,12.713,3.235,20.223-1.903,5.052-2.377,8.721-6.85,12.627-6.027,5.264-10.242,12.762-16.977,17.612-3.257,2.345-8.018.041-11.431,1.529-7.92,3.453-23.312,10.286-30.509,4.225-10.586-8.915-10.599,4.064-26.862-6.932-6.591,8.688-22.073,24.288-30.172,29.549-2.544,1.653-5.774,8.046-5.32,11.446.639,4.782,5.894,10.641,10.012,12.413,4.134-.621,10.467-3.149,13.723-5.398,5.633-7.982,15.397-10.981,23.519-4.984,5.62,4.149,6.851,11.631,10.549,16.866,2.402,3.401,5.728,5.173,5.009,9.768-.506,3.233-2.254,6.496-6.793,7.473-5.639,1.213-10.843-1.318-16.211-2.871l-24.496,25.007c-9.091,9.281-15.538,19.745-15.974,33.209-.101,3.127-3.953,8.368-1.647,11.43,3.191,4.238,7.341,6.435,6.651,12.231-1.455,12.236-10.31,7.926-17.764,16.297-4.198,4.714-18.889,8.893-14.269,23.001,7.832-8.463,17.734-24.404,27.291-23.598,3.572.301,5.294,3.986,8.757,6.355l14.432,9.874-4.238,18.092c13.689,2.714,9.831,17.139,13.137,25.237,1.633,4,7.881,6.954,5.179,12.512-.747,1.537-4.612,1.186-4.288,3.866l240.012-.084,6.348-.037,226.041,1.027c6.487.029,11.566-.116,16.973.559v10.504l-89.337-.324-153.398-.163-5.803.048-77.966-.578-132.04-.883c-9.217-.062-16.368-2.932-25.74.219-5.769,1.94-13.263-.839-18.943.465-2.148.493-4.787-.392-6.854-.857l-1.341-8.252-77.167-.483-89.119-.602-164.674-.559-68.204-.406c-1.889-.011-3.908.211-5.784.128-37.895-1.668-75.648-.888-114.347-.36-17.827.243-34.428-1.864-52.071-.091l-90.265.545-62.508.45.856,73.418h-11.269l-.307-73.097-186.651,4.055-69.011,2.416-118.792,1.019c-1.869.016-3.875.042-5.741.029l-49.29-.318.191-55.248c-7.423,6.016-14.741,2.341-20.347,3.468-7.187,1.444-11.001,2.38-18.545-.268-3.802-1.335-11.818,4.621-14.853-4.067-4.535,5.173-6.201,8.304-9.531,12.592-5.616,7.233-15.166-1.052-19.211,6.904-2.946,5.792-8.896,9.204-15.372,8.102-9.177-1.562-5.412,4.596-21.708,3.688-5.544,25.048-21.242,10.243-26.981,19.133-8.328,12.902-23.073,5.126-30.835,15.247-8.433,10.997-17.896,4.773-24.586,14.597-11.016,16.18-44.552,10.42-64.105,11.226s-38.281,3.38-57.192,2.615v-15.349c18.99.182,37.436-1.408,57.313-3.011,15.481-1.249,34.201,4.425,48.484-3.157,8.678-4.607,14.155-15.186,26.565-14.915,4.023-3.126,7.807-10.094,13.479-11.268l17.754-3.674c4.43-9.152,13.352-12.75,23.52-10.822l6.194-16.311c2.187-5.758,11.36-1.079,16.63-1.814l17.036-2.373c12.422-18.738,22.758-6.747,26.25-15.734,2.25-5.788,6.005-8.306,10.064-10.102,6.267-2.774,10.518.547,16.677,1.571,21.687,3.607,13.323-2.375,30.125,1.605,5.116,1.212,10.211-5.172,14.333-8.089l2.739-118.693.549-60.936.829-72.774-.004-6.457.666-50.725-3.81-197.745-.994-69.827-.044-5.907.646-107.194.58-90.731c.055-8.608.137-16.479.106-25.082l-.227-64.255c-.043-12.068,1.36-23.551.178-35.604l-38.283-.379c-8.568-.085-16.631-.939-25.202-.299-2.379.178-3.886-1.472-4.495-2.958-.139-2.164-.308-4.337-.267-6.508l4.48-237.286.477-82.85.139-6.314c.464-2.376,2.564-2.798,5.24-2.768l55.187.609.47-31.62c.417-28.087.461-55.394.221-82.346h11.159ZM767.324,115.975c-4.191-.056-8.473-.328-12.66-.077-10.685.64-21.424.508-32.126.308-1.79-.244-4.546-1.175-5.579.776l-252.285,5.55-93.675,1.613c-32.899.566-64.603,1.041-97.434-.112.694,16.143.017,30.269-.276,46.457l-4.894,270.418,63.621.87c2.948.04,4.983,1.205,5.519,3.474-.01,6.086-2.435,12.022-.992,18.004l-.175,143.676-.444,113.069c-2.228-.092-.971,33.965-.772,36.279.241,2.811.535,5.555.084,8.372-.682,4.27.798,8.426.86,12.716l2.742,189.512,1.296,97.773c-.407.46-.346.902-.029,1.395.111.88.018,1.891-.004,2.791-2.42,4.491-.851,10.288-.754,15.349l.271,14.232c.058,3.059-.367,6.139-.007,9.2l-1.873,141.257-3.775,174.549,134.598-.072c10.795-.006,20.21-.14,30.921-1.639l153.25-3.852,103.55-2.236c2.738-.059,5.633-.087,8.369-.004,12.36.378,24.722-.141,37.751-.244l73.515-.58,83.902-.222,79.321-.876,39.16,1.237,8.347-.037,198.019.319c4.558,2.344,10.269.712,15.343.7l61.162-.154,8.765.245,125.165.528c-2.895-5.664.139-9.24.575-14.773-4.983,1.825-6.601,5.839-9.739,6.242-4.183.537-8.857.384-11.111-3.471-9.605-16.425,17.445-25.424,9.933-33.398-2.883-3.061-7.683-4.378-10.157-8.634-9.503,7.027-15.525,22.807-24.799,23.363-3.255.195-8.723-.706-10.24-4.012-7.148-15.578.51-29.774,13.928-37.895,5.247-3.176,8.451-8.824,16.063-9.917-6-5.048-8.474-10.151-6.543-16.947,3.66-12.883,2.772-27.989,13.649-39.371l28.642-29.972c4.617-4.831,10.096-7.403,16.733-7.77-1.084-4.641-2.831-7.253-5.584-9.575-1.913-1.614-5.496.492-6.277,2.47-2.216,5.617-6.118,5.786-11.17,7.227-5.692,1.625-12.357,6.374-18.502,2.189-5.276-3.593-9.907-9.744-13.364-15.231-6.267-9.945,3.921-27.001,10.88-30.328,4.677-2.236,21.308-19.48,24.424-24.524,1.947-3.151,5.177-5.54,7.7-5.957,10.189-1.684,11.291,8.251,17.443,5.414,7.859-3.625,12.317,1.329,18.677,4.035,5.407,2.301,13.293-3.195,18.301-5.135,3.697-1.432,8.177.651,11.125-1.542,6.081-5.251,11.105-11.341,16.047-17.523,1.926-2.41,1.468-6.533,3.267-9.33,1.6-2.487-.93-5.654-3.597-5.718-11.065-.268-19.943-8.198-23.284-.213-2.01,4.804-5.725,8.072-9.442,9.45-5.657,2.097-10.207-.376-15.117-2.323-9.389-3.723-14.39-9.948-16.732-19.901-1.299-5.523-4.281-11.911.643-16.919,11.158-11.35,23.955-2.605,33.268-12.311,2.537-2.644,1.815-5.104,2.914-8.361.929-2.755,3.854-7.4,5.95-9.205,8.685-7.479,18.022.372,24.931,3.625,9.456,2.517,15.979-10.324,19.561-16.465,4.737-8.123,14.598-2.578,19.698.107,19.278-17.165-9.343-25.26,8.721-50.244,3.274-4.528,8.45-6.312,14.373-7.505-3.864-4.973-7.643-10.691-4.692-16.912,5.858-12.347,17.701-8.9,18.906-10.638,3.217-4.637-8.671-16.014-.776-27.887,3.428-5.155,9.123-4.989,15.667-8.045-10.713-6.97-13.576-19.759-7.66-29.831,1.78-3.03,6.78-3.97,7.748-7.414,1.64-5.835,1.298-11.529,4.715-16.415,5.328-7.619,13.572-10.656,22.923-5.123,1.519-6.643,8.605-10.951,11.913-15.443,2.64-17.76,1.176-35.436,1.364-53.607l.724-70.284c.084-8.11,1.174-15.681.711-23.193,1.771-.532.913-2.836.849-4.186-.218-4.645-.249-9.309-.264-13.961l-.026-8.394.581-82.247-.095-101.896-.732-101.749-.413-32.519-.128-8.152,1.438-58.54-.085-82.34,1.062-84.345c-16.699-1.502-32.026-.511-48.443-.866l-55.807-1.208c-2.139-.046-4.018.821-5.856-.372-1.256-.816-1.458-3.368-2.217-6.443l-138.968,3.162-69.057,2.141c-2.561.079-5.232-.699-7.798-.084-3.303-5.599-.371-16.915-1.998-24.346l-75.333.396-59.967-.36-50.354-.309-128.345-.461-8.12-.004-94.919,1.106-65.699.585c-39.777.354-78.254.941-117.833.41l-32.582-.438Z" fill="#120d13"/>
      <path d="M1998.837,1077.737v5.955l-250.234,5.12,7.221,337.385-6.348.037-6.552-337.233-141.739,3.36c4.417-2.262,8.907-4.671,12.883-7.845-.369.862.229.893,1.6,1.189l383.169-7.968Z" fill="#896896"/>
      <path d="M1998.837,580.333l-19.477,22.764c-11.969,13.989-27.745,30.171-46.225,30.981l-40.705,1.784c-3.606.158-5.036,7.064-9.739,7.026-7.485-.061-19.136-.413-23.108,7.81-3.143,6.507,2.991,26.815-4.681,30.755-3.073,1.579-6.26,1.73-8.706-.058l-10.279-7.517c-5.533-4.046-14.891-2.939-21.359,1.031,10.674,5.395,38.823,17.046,37.957,29.008-.593,8.198-11.985,11.498-17.354,17.22,4.23,5.52,2.998,11.013,1.578,16.762-3.879,15.698-7.883,10.411-19.399,19.625-10.751,8.602,9.91,9.134,8.217,32.166-1.344,18.284-38.634.846-44.498,9.777-11.751,17.894-9.486,37.421-20.247,33.06l-10.299-4.174c-9.672-3.92,5.326,15.173-12.578,19.924.047-2.176-.061-4.703-.018-6.882,6.362-1.293-.536-12.602,5.607-17.479,6.545-5.197,13.048,1.663,19.815,2.631,3.971-10.608,6.76-22.326,13.342-31.493,6.663-9.279,34.849.634,41.252-3.871,5.044-4.787-.426-16.171-5.228-19.936-6.243-4.895-5.305-11.303-.827-16.739,4.144-5.03,10.715-6.006,15.728-10.576,3.377-3.078,5.054-11.441,4.149-15.713-.958-4.519-4.514-8.988-.018-12.197l12.136-8.664c11.562-8.254-24.324-23.381-29.933-25.807-3.076-1.331-4.718-4.472-4.806-6.988-.349-9.901,21.179-10.255,29.104-6.303,4.685,2.336,7.339,7.24,13.344,8.649,4.409-8.029-2.561-24.862,4.059-31.769,7.073-7.38,16.912-8.663,26.517-8.33,3.145-1.739,5.457-6.682,9.463-7.348,13.129-2.183,26.717,1.866,39.92-1.211,19.005-4.43,34.825-18.503,46.967-33.133l20.33-24.496v9.713Z" fill="#896896"/>
      <polygon points="328.539 1099.791 328.543 1106.248 0 1106.512 0 1099.535 328.539 1099.791" fill="#896896"/>
      <polygon points="324.358 775.587 324.402 781.494 0 781.395 0 775.814 324.358 775.587" fill="#896896"/>
      <path d="M257.394,442.575c-.041,2.171.128,4.344.267,6.508l-257.661.22v-6.977l257.394.249Z" fill="#896896"/>
      <polygon points="262.49 116.125 262.351 122.439 0 120 0 114.419 262.49 116.125" fill="#896896"/>
      <path d="M1998.837,343.168v5.735l-60.754.103c-1.133,2.439-.991,4.229-2.486,6.236l-195.582-2.482-.007-5.662,190.347,2.023c2.015-1.758,1.977-3.746,3.43-6.01l65.052.058Z" fill="#896896"/>
      <polygon points="765.779 0 765.409 104.787 759.127 104.779 758.805 0 765.779 0" fill="#896896"/>
      <polygon points="1086.597 0 1086.228 103.391 1079.945 103.388 1079.623 0 1086.597 0" fill="#896896"/>
      <path d="M1408.811,0l-.384,103.439c-2.088.073-4.203-.233-6.264-.044l-.326-103.395h6.974Z" fill="#896896"/>
      <path d="M1088.252,1425.911l2.804,74.089h-5.854l-2.735-73.961c1.876.083,3.896-.139,5.784-.128Z" fill="#896896"/>
      <path d="M1495.611,1437.07c1.177,6.607-17.671,7.512-8.768,26.786l.097,22.024c-7.007,11.8-6.328,7.005-12.218,14.12h-6.019c-1.812-5.105,10.257-8.356,12.015-18.337,4.092-23.226-11.696-25.143,8.04-45.45,2.066.465,4.706,1.35,6.854.857Z" fill="#896896"/>
      <path d="M378.103,1434.393l1.014,65.607h-5.755l-.999-65.578c1.865.012,3.871-.013,5.741-.029Z" fill="#896896"/>
      <polygon points="1756.102 1437.799 1758.921 1500 1753.221 1500 1750.299 1437.847 1756.102 1437.799" fill="#896896"/>
      <path d="M1086.477,114.316l2.622,318.382,313.557.028-.182-293.331c2.566-.615,5.237.164,7.798.084l.446,227.321,133.468-6.675,184.02,8.166.128,8.152-177.366-7.614-140.359,5.987.071,314.544,123.665,2.693c-.607,2.238-2.339,4.902-1.984,7.321l-121.731-1.719.023,390.142,153.002-1.922c-1.099,3.258-.377,5.717-2.914,8.361l-191.006,2.334.203,319.439-8.765-.245.133-319.068-274.925-2.926,2.702,284.575-2.434,36.555-8.347.037c.588-11.945,2.862-23.388,2.735-36.593l-2.746-284.641-321.045,2.969,7.406,318.95c-2.736-.084-5.631-.055-8.369.004l-6.984-318.671-166.018,9.414-243.67,1.251c-.359-3.061.066-6.141.007-9.2l240.584-.098,169.002-9.479,2.783-321.419-168.161,7.142-247.73,2.802c-.062-4.289-1.543-8.446-.86-12.716.764,1.384.516,3.095,2.345,4.939l245.351-2.705,169.146-7.735,4.615-313.425-418.845,7.56c-.928,4.049.645,7.341-1.306,9.97-1.442-5.982.982-11.918.992-18.004l419.309-7.687,2.807-318.728-4.986-2.938c4.186-.251,8.469.021,12.66.077l-2.345,321.43,265.561-4.667,50.613-.187-2.798-318.239,8.12.004ZM1081.215,760.852l.06-319.984-127.26,1.092-189.269,3.515-4.687,313.641,321.157,1.736ZM1402.646,761.921l-.045-321.198-313.421.006.094,320.3,313.371.892ZM1078.336,1085.572l2.774-316.491-321.087-1.875-2.795,321.193,321.108-2.827ZM1402.708,1087.199l-.109-317.22-313.371-.848-2.848,316.519,283.101,2.792c11.822.117,22.063.154,33.226-1.243Z" fill="#6b6a6a"/>
      <path d="M1728.992,694.854l.026,8.394-180.098-3.029c.328-6.246,1.618-2.251,3.668-7.951l176.404,2.586Z" fill="#6b6a6a"/>
      <path d="M335.151,756.279c-.198-2.314-1.455-36.371.772-36.279l.139,34.746c.004.956-.07,1.782-.911,1.533Z" fill="#6b6a6a"/>
      <path d="M339.347,1084.186c-.096-5.061-1.666-10.858.754-15.349-.121,5.1,1.506,10.739-.754,15.349Z" fill="#6b6a6a"/>
      <path d="M1300.011,1415.917c-5.075.013-10.786,1.644-15.343-.7,5.083.008,10.756-1.666,15.343.7Z" fill="#6b6a6a"/>
      <path d="M722.539,116.206c-1.574.661-3.705.735-5.579.776,1.034-1.951,3.79-1.02,5.579-.776Z" fill="#6b6a6a"/>
      <path d="M1728.432,721.395c-.082-1.332-.734-3.609.849-4.186.063,1.351.921,3.654-.849,4.186Z" fill="#6b6a6a"/>
      <path d="M340.105,1066.047c-.317-.493-.378-.936.029-1.395l-.029,1.395Z" fill="#6b6a6a"/>
    </g>
  </g>
  <g id="context_land">
    <path d="M1998.837,1077.737l-383.169,7.968c-1.371-.296-1.969-.327-1.6-1.189,4.131-3.298,6.676-7.816,9.377-13.476,4.67,4.637,12.166,7.706,17.052,3.735,11.753-9.553,14.136-25.171,8.52-38.507-2.099-4.983-.887-9.061.771-12.896,3.379-7.816,18.17-3.318,19.611-16.738.543-5.062-2.265-8.804-6.75-12.132,3.272-8.531,16.781,1.97,19.943-11.94,3.057-13.446-6.844-20.898-2.306-25.085,4.208-3.883,14.367-.38,16.769-12.475,2.772-13.953-10.079-10.225-10.281-21.97-.122-7.106,10.265-3.613,11.279-18.737.224-3.344,1.871-12.162,6.401-10.98,4.036,1.054,6.219,7.199,11.908,5.106,9.843-3.62,5.403-17.516,20.959-21.585l.615-28.558c17.903-4.751,2.906-23.844,12.578-19.924l10.299,4.174c10.76,4.361,8.496-15.165,20.247-33.06,5.865-8.931,43.154,8.506,44.498-9.777,1.693-23.032-18.968-23.564-8.217-32.166,11.515-9.213,15.52-3.926,19.399-19.625,1.421-5.749,2.653-11.242-1.578-16.762,5.369-5.722,16.761-9.022,17.354-17.22.866-11.962-27.283-23.613-37.957-29.008,6.468-3.971,15.826-5.077,21.359-1.031l10.279,7.517c2.445,1.788,5.632,1.636,8.706.058,7.672-3.94,1.537-24.248,4.681-30.755,3.972-8.223,15.623-7.871,23.108-7.81,4.704.038,6.133-6.868,9.739-7.026l40.705-1.784c18.48-.81,34.256-16.992,46.225-30.981l19.477-22.764v497.403Z" fill="#804095"/>
    <path d="M257.661,449.083c.609,1.486,2.115,3.136,4.495,2.958,8.572-.64,16.634.214,25.202.299l38.283.379c1.182,12.053-.22,23.536-.178,35.604l.227,64.255c.03,8.604-.051,16.475-.106,25.082l-.58,90.731-.646,107.194-324.358.227v-326.512l257.661-.22Z" fill="#804095"/>
    <polygon points="324.402 781.494 325.396 851.321 329.206 1049.066 328.539 1099.791 0 1099.535 0 781.395 324.402 781.494" fill="#804095"/>
    <path d="M328.543,1106.248l-.829,72.774-.549,60.936-2.739,118.693c-4.122,2.917-9.217,9.3-14.333,8.089-16.802-3.98-8.438,2.002-30.125-1.605-6.16-1.025-10.41-4.345-16.677-1.571-4.058,1.796-7.814,4.314-10.064,10.102-3.493,8.987-13.829-3.004-26.25,15.734l-17.036,2.373c-5.271.734-14.444-3.945-16.63,1.814l-6.194,16.311c-10.168-1.929-19.09,1.67-23.52,10.822l-17.754,3.674c-5.673,1.174-9.456,8.143-13.479,11.268-12.41-.27-17.887,10.309-26.565,14.915-14.283,7.582-33.003,1.908-48.484,3.157-19.877,1.604-38.324,3.193-57.313,3.011v-350.233l328.543-.264Z" fill="#804095"/>
    <path d="M1739.393,0h259.444v343.168l-65.052-.058c-1.453,2.264-1.415,4.252-3.43,6.01l-190.347-2.023c-.019-15.003,1.42-29.935.988-45.732-.733-26.815-.261-52.7-.073-79.552l.527-74.989c.033-4.686.13-8.782.089-13.471l-.558-63.651-1.589-69.702Z" fill="#804095"/>
    <path d="M1998.837,348.903v221.718l-20.33,24.496c-12.142,14.63-27.963,28.703-46.967,33.133-13.203,3.077-26.791-.972-39.92,1.211-4.006.666-6.318,5.609-9.463,7.348-9.605-.333-19.443.95-26.517,8.33-6.62,6.908.35,23.741-4.059,31.769-6.005-1.409-8.659-6.313-13.344-8.649-7.925-3.951-29.453-3.597-29.104,6.303.089,2.516,1.731,5.657,4.806,6.988,5.609,2.427,41.494,17.554,29.933,25.807l-12.136,8.664c-4.496,3.21-.94,7.678.018,12.197.905,4.271-.772,12.635-4.149,15.713-5.014,4.57-11.585,5.547-15.728,10.576-4.478,5.435-5.416,11.844.827,16.739,4.802,3.765,10.272,15.149,5.228,19.936-6.403,4.505-34.589-5.409-41.252,3.871-6.583,9.168-9.371,20.886-13.342,31.493-6.767-.967-13.27-7.828-19.815-2.631-6.142,4.877.755,16.186-5.607,17.479l.629-32.144c.682-34.862,1.432-68.245,1.612-103.161l.711-138.198-.888-103.833.034-111.299,195.582,2.482c1.494-2.006,1.352-3.796,2.486-6.236l60.754-.103Z" fill="#804095"/>
    <path d="M1998.837,1083.692v344.091c-5.406-.675-10.486-.53-16.973-.559l-226.041-1.027-7.221-337.385,250.234-5.12Z" fill="#804095"/>
    <polygon points="262.351 122.439 261.875 205.289 257.394 442.575 0 442.326 0 120 262.351 122.439" fill="#804095"/>
    <path d="M758.805,0l.322,104.779-287.432,6.937-51.582.573-39.316.749c-15.444.294-30.354-.394-46.19,1.48-2.003-6.769-.245-12.728-.218-19.637l.377-94.882h424.038Z" fill="#804095"/>
    <path d="M1728.234,0c.906,1.94.974,4.223.993,6.952l.34,48.84.453,47.516c.09,9.405,1.211,18.339.32,27.795-7.173,1.143-14.169-.248-21.626-.275l-57.068-.207c-7.112-.026-13.714-1.074-20.949-.464-1.43-2.02-1.061-5.61-3.1-7.084l-102.178,1.812-57.939,1.76-39.155.696c-5.458.097-10.668,1.629-15.979.32l-.596-21.501c-.05-1.788-2.407-2.424-3.322-2.721l.384-103.439h319.423Z" fill="#804095"/>
    <path d="M323.608,0c.24,26.953.197,54.26-.221,82.346l-.47,31.62-55.187-.609c-2.676-.03-4.777.392-5.24,2.768L0,114.419V0h323.608Z" fill="#804095"/>
    <path d="M1079.623,0l.322,103.388-62.572.573-61.894.697-47.112.566c-24.064.289-47.212,1.673-71.461,1.138l-71.497-1.576.37-104.787h313.844Z" fill="#804095"/>
    <polygon points="1401.836 0 1402.162 103.395 1393.139 104.221 1295.708 104.074 1228.78 103.83 1086.228 103.391 1086.597 0 1401.836 0" fill="#804095"/>
    <path d="M1488.757,1436.213c-19.736,20.307-3.948,22.224-8.04,45.45-1.758,9.981-13.828,13.232-12.015,18.337h-377.645l-2.804-74.089,68.204.406,164.674.559,89.119.602,77.167.483,1.341,8.252Z" fill="#804095"/>
    <polygon points="752.863 1500 379.117 1500 378.103 1434.393 496.894 1433.374 565.906 1430.958 752.556 1426.903 752.863 1500" fill="#804095"/>
    <path d="M372.362,1434.422l.999,65.578H0v-27.907c18.911.764,37.63-1.809,57.192-2.615s53.089,4.954,64.105-11.226c6.689-9.825,16.152-3.6,24.586-14.597,7.762-10.122,22.506-2.345,30.835-15.247,5.738-8.89,21.437,5.916,26.981-19.133,16.296.907,12.531-5.25,21.708-3.688,6.476,1.102,12.426-2.31,15.372-8.102,4.046-7.956,13.595.329,19.211-6.904,3.33-4.288,4.996-7.419,9.531-12.592,3.035,8.688,11.052,2.732,14.853,4.067,7.544,2.648,11.358,1.713,18.545.268,5.606-1.127,12.923,2.548,20.347-3.468l-.191,55.248,49.29.318Z" fill="#804095"/>
    <path d="M1082.468,1426.039l2.735,73.961h-321.071l-.856-73.418,62.508-.45,90.265-.545c17.644-1.773,34.244.335,52.071.091,38.699-.528,76.453-1.309,114.347.36Z" fill="#804095"/>
    <path d="M1750.299,1437.847l2.922,62.153h-278.5c5.89-7.115,5.211-2.32,12.218-14.12l-.097-22.024c-8.903-19.274,9.945-20.178,8.768-26.786,5.68-1.304,13.174,1.475,18.943-.465,9.372-3.151,16.523-.281,25.74-.219l132.04.883,77.966.578Z" fill="#804095"/>
    <polygon points="1998.837 1438.286 1998.837 1500 1758.921 1500 1756.102 1437.799 1909.5 1437.962 1998.837 1438.286" fill="#804095"/>
    <path d="M1601.184,1092.36l141.739-3.36,6.552,337.233-240.012.084c-.324-2.68,3.541-2.328,4.288-3.866,2.702-5.558-3.546-8.512-5.179-12.512-3.307-8.099.551-22.523-13.137-25.237l4.238-18.092-14.432-9.874c-3.463-2.369-5.184-6.054-8.757-6.355-9.557-.805-19.458,15.135-27.291,23.598-4.62-14.109,10.071-18.287,14.269-23.001,7.454-8.371,16.309-4.061,17.764-16.297.689-5.796-3.46-7.993-6.651-12.231-2.306-3.062,1.546-8.303,1.647-11.43.436-13.464,6.883-23.927,15.974-33.209l24.496-25.007c5.368,1.553,10.572,4.084,16.211,2.871,4.538-.977,6.287-4.24,6.793-7.473.719-4.595-2.607-6.367-5.009-9.768-3.697-5.235-4.929-12.717-10.549-16.866-8.123-5.997-17.886-2.998-23.519,4.984-3.256,2.249-9.589,4.777-13.723,5.398-4.118-1.773-9.373-7.631-10.012-12.413-.454-3.4,2.775-9.793,5.32-11.446,8.098-5.26,23.581-20.86,30.172-29.549,16.264,10.996,16.276-1.982,26.862,6.932,7.197,6.061,22.589-.772,30.509-4.225,3.413-1.488,8.174.816,11.431-1.529,6.735-4.85,10.95-12.349,16.977-17.612,4.473-3.906,4.946-7.575,6.85-12.627,2.83-7.51,3.832-14.31-3.235-20.223-8.704-7.283-1.298-1.476-22.666-7.181-10.995-2.936-19.539,2.373-23.479,13.359-5.582-1.766-11.422-3.217-14.685-7.799-2.064-2.899-5.205-10.424-3.4-13.43,3.782-6.295,25.205-.047,34.674-14.17,2.613-3.897,1.211-10.285,4.548-13.552,3.184-3.117,7.49.804,8.967,3.307,4.01,6.793,10.088,2.696,15.457,2.569Z" fill="#804095"/>
  </g>
  <g id="wethersfield">
    <polygon points="1078.336 1085.572 757.228 1088.399 760.023 767.205 1081.11 769.081 1078.336 1085.572" fill="#fefefe"/>
  </g>
  <g id="warsaw">
    <polygon points="1402.646 761.921 1089.274 761.029 1089.18 440.729 1402.601 440.724 1402.646 761.921" fill="#fefefe"/>
  </g>
  <g id="sheldon">
    <path d="M335.235,764.651c.45-2.817.157-5.561-.084-8.372.841.249.915-.577.911-1.533l-.139-34.746.444-113.069.175-143.676c1.951-2.63.377-5.921,1.306-9.97l418.845-7.56-4.615,313.425-169.146,7.735-245.351,2.705c-1.83-1.845-1.581-3.556-2.345-4.939Z" fill="#fefefe"/>
  </g>
  <g id="pike">
    <path d="M1361.173,1415.763l-61.162.154c-4.587-2.366-10.26-.691-15.343-.7l-198.019-.319,2.434-36.555-2.702-284.575,274.925,2.926-.133,319.068Z" fill="#fefefe"/>
  </g>
  <g id="perry">
    <path d="M1728.333,376.444l.413,32.519.732,101.749.095,101.896-.581,82.247-176.404-2.586c-.132-.983-.741-1.782-1.26-2.608.593.942-19.207,2.343-16.983,2.391l-123.665-2.693-.071-314.544,140.359-5.987,177.366,7.614Z" fill="#fefefe"/>
  </g>
  <g id="orangeville">
    <polygon points="1081.215 760.852 760.058 759.116 764.745 445.474 954.015 441.959 1081.275 440.867 1081.215 760.852" fill="#fefefe"/>
  </g>
  <g id="middlebury">
    <path d="M1402.473,139.396l.182,293.331-313.557-.028-2.622-318.382,128.345.461,50.354.309,59.967.36,75.333-.396c1.627,7.431-1.305,18.747,1.998,24.346Z" fill="#fefefe"/>
  </g>
  <g id="java">
    <path d="M339.618,1098.418l-.271-14.232c2.26-4.61.634-10.249.754-15.349.021-.9.115-1.91.004-2.791l.029-1.395-1.296-97.773-2.742-189.512,247.73-2.802,168.161-7.142-2.783,321.419-169.002,9.479-240.584.098Z" fill="#fefefe"/>
  </g>
  <g id="genesee_falls">
    <path d="M1560.741,1094.235c-9.313,9.706-22.109.961-33.268,12.311-4.924,5.008-1.943,11.397-.643,16.919,2.342,9.954,7.343,16.178,16.732,19.901,4.91,1.947,9.46,4.42,15.117,2.323,3.717-1.378,7.432-4.646,9.442-9.45,3.341-7.985,12.219-.056,23.284.213,2.667.065,5.197,3.231,3.597,5.718-1.799,2.797-1.341,6.92-3.267,9.33-4.942,6.183-9.966,12.272-16.047,17.523-2.948,2.193-7.428.109-11.125,1.542-5.008,1.94-12.893,7.436-18.301,5.135-6.359-2.706-10.817-7.66-18.677-4.035-6.152,2.838-7.254-7.098-17.443-5.414-2.523.417-5.753,2.806-7.7,5.957-3.116,5.044-19.747,22.288-24.424,24.524-6.959,3.327-17.146,20.383-10.88,30.328,3.457,5.486,8.088,11.637,13.364,15.231,6.145,4.185,12.809-.564,18.502-2.189,5.052-1.442,8.953-1.611,11.17-7.227.781-1.978,4.363-4.084,6.277-2.47,2.753,2.322,4.5,4.933,5.584,9.575-6.637.367-12.116,2.938-16.733,7.77l-28.642,29.972c-10.877,11.382-9.989,26.488-13.649,39.371-1.931,6.797.543,11.899,6.543,16.947-7.611,1.093-10.816,6.741-16.063,9.917-13.418,8.121-21.076,22.318-13.928,37.895,1.517,3.306,6.985,4.207,10.24,4.012,9.274-.556,15.296-16.336,24.799-23.363,2.474,4.256,7.274,5.573,10.157,8.634,7.512,7.975-19.538,16.973-9.933,33.398,2.254,3.854,6.928,4.007,11.111,3.471,3.138-.403,4.756-4.416,9.739-6.242-.436,5.533-3.47,9.109-.575,14.773l-125.165-.528-.203-319.439,191.006-2.334Z" fill="#fefefe"/>
  </g>
  <g id="gainesville">
    <path d="M1402.708,1087.199c-11.163,1.397-21.405,1.36-33.226,1.243l-283.101-2.792,2.848-316.519,313.371.848.109,317.22Z" fill="#fefefe"/>
  </g>
  <g id="eagle">
    <path d="M1078.302,1414.935l-39.16-1.237-79.321.876-83.902.222-73.515.58c-13.029.103-25.391.622-37.751.244l-7.406-318.95,321.045-2.969,2.746,284.641c.127,13.205-2.147,24.648-2.735,36.593Z" fill="#fefefe"/>
  </g>
  <g id="covington">
    <path d="M1728.205,368.292l-184.02-8.166-133.468,6.675-.446-227.321,69.057-2.141,138.968-3.162c.759,3.075.961,5.627,2.217,6.443,1.838,1.193,3.717.326,5.856.372l55.807,1.208c16.417.355,31.745-.636,48.443.866l-1.062,84.345.085,82.34-1.438,58.54Z" fill="#fefefe"/>
  </g>
  <g id="castile">
    <path d="M1532.36,699.374c1.327,9.031-1.052,17.97-1.882,27.607-.318,3.688,2.421,7.983-2.388,10.765.455,7.932-1.684,15.106-4.957,22.326.136-.301-2.304,16.325-8.859,22.084-12.712,11.168-22.816,16.68-33.38,26.867-3.143,3.031-7.887,7.777-4.676,12.848,2.748,4.341,7.719,9.635,12.716,11.731,9.204,3.862,13.371-17.598,27.083-16.393,13.754-12.749,29.922-60.238,30.847-77.838l2.057-39.152,180.098,3.029c.014,4.651.046,9.316.264,13.961-1.583.577-.931,2.854-.849,4.186.463,7.512-.628,15.083-.711,23.193l-.724,70.284c-.187,18.171,1.276,35.847-1.364,53.607-3.308,4.491-10.394,8.8-11.913,15.443-9.351-5.533-17.594-2.496-22.923,5.123-3.417,4.886-3.075,10.58-4.715,16.415-.968,3.444-5.968,4.384-7.748,7.414-5.916,10.071-3.053,22.86,7.66,29.831-6.544,3.056-12.239,2.89-15.667,8.045-7.895,11.872,3.993,23.25.776,27.887-1.206,1.738-13.049-1.709-18.906,10.638-2.951,6.221.828,11.939,4.692,16.912-5.922,1.193-11.099,2.978-14.373,7.505-18.064,24.984,10.557,33.08-8.721,50.244-5.101-2.685-14.961-8.231-19.698-.107-3.581,6.142-10.104,18.983-19.561,16.465-6.909-3.253-16.246-11.104-24.931-3.625-2.096,1.805-5.02,6.45-5.95,9.205l-153.002,1.922-.023-390.142,121.731,1.719Z" fill="#fefefe"/>
  </g>
  <g id="attica">
    <path d="M1078.356,114.312l2.798,318.239-50.613.187-265.561,4.667,2.345-321.43,32.582.438c39.578.532,78.056-.056,117.833-.41l65.699-.585,94.919-1.106Z" fill="#fefefe"/>
  </g>
  <g id="arcade">
    <path d="M756.282,1415.624l-103.55,2.236-153.25,3.852c-10.711,1.498-20.126,1.633-30.921,1.639l-134.598.072,3.775-174.549,1.873-141.257,243.67-1.251,166.018-9.414,6.984,318.671Z" fill="#fefefe"/>
  </g>
  <g id="bennington">
    <path d="M754.664,115.898l4.986,2.938-2.807,318.728-419.309,7.687c-.535-2.269-2.571-3.434-5.519-3.474l-63.621-.87,4.894-270.418c.293-16.188.97-30.314.276-46.457,32.832,1.153,64.535.678,97.434.112l93.675-1.613,252.285-5.55c1.875-.041,4.005-.115,5.579-.776,10.702.2,21.44.333,32.126-.308Z" fill="#fefefe"/>
  </g>
  <g id="water">
    <path d="M1552.588,692.269c-2.05,5.7-3.34,1.704-3.668,7.951l-2.057,39.152c-.925,17.6-17.093,65.089-30.847,77.838-13.712-1.205-17.878,20.255-27.083,16.393-4.997-2.097-9.968-7.39-12.716-11.731-3.21-5.072,1.534-9.818,4.676-12.848,10.564-10.187,20.669-15.7,33.38-26.867,6.555-5.759,8.995-22.385,8.859-22.084,3.273-7.22,5.412-14.394,4.957-22.326,4.809-2.783,2.07-7.077,2.388-10.765.83-9.636,3.209-18.576,1.882-27.607-.355-2.419,1.377-5.083,1.984-7.321-2.224-.048,17.576-1.449,16.983-2.391.519.825,1.128,1.624,1.26,2.608Z" fill="#a1d8ee"/>
  </g>
</svg>