<?xml version="1.0" encoding="UTF-8"?>
<svg xmlns="http://www.w3.org/2000/svg" viewBox="0 0 1584 1224">
  <g id="color">
    <g>
      <path d="M508.632,1177.722c22.261,3.832,46.274,1.124,49.788-21.821l7.068-46.157c3.942-4.226,5.863-9.373,5.494-15.374,4.895-3.011,8.245-7.341,9.001-12.977,6.996-2.766,8.599-9.498,10.273-15.769,13.44-4.466,9.571-19.903,21.685-32.609l21.13-22.162,27.402-27.059c16.922-16.71,28.861-36.914,37.099-59.249,8.279-2.899,13.258-10.064,13.576-18.825,6.258-4.389,9.558-11.018,8.771-18.791,6.59-6.431,8.242-15.67,4.488-23.932l7.877-22.842c9.616-11.255,22.824-18.685,36.017-26.746l18.909,38.994c4.582,9.449,6.746,19.997,16.507,25.994,9.183,6.891,20.895,9.648,32.782,9.246,6.775,7.092,16.43,9.313,25.985,5.474,7.517,4.82,16.564,5.368,24.374.609l49.39,3.35c15.092,1.024,29.418,4.382,43.456,9.498,3.698,5.734,8.238,9.549,14.281,12.411,5.808,16.741,6.792,34.257,4.063,51.688l-3.683,23.528c-1.632,10.424,2.002,20.129,9.317,26.509,16.217,14.144,37.538,7.046,52.522-8.956,19.669-21.005,28.761-49.27,25.241-78.079-1.849-15.131-1.089-29.085,2.594-43.968,2.847-11.503,4.52-23.171,3.252-34.716-1.532-13.944-10.439-23.954-24.466-26.092-9.519-1.451-19.041.224-28.492,2.345l-11.293,2.534c-7.36-6.32-16.727-6.989-24.463-1.239-12.372-3.349-23.267-8.41-33.974-15.151-17.953-11.304-37.638-17.597-58.871-17.34-4.799-4.416-10.84-5.456-17.05-4.516-5.005-2.936-9.443-4.272-16.635-3.135l.444-34.037,44.882-6.188c3.813-.526,9.208-2.041,11.639-5.059,7.982-26.431,13.212-52.45,14.343-80.276l17.848,63.997,9.298,33.068c1.31,4.66,5.902,7.371,11.012,5.831,22.574-6.805,42.564-19.577,58.83-36.593,3.529-3.691,5.012-8.758,3.422-13.423l-3.74-10.975c1.96-2.471,4.695-3.933,8.838-3.786,174.629,2.544,347.836,7.21,523.078,14.016l.167,489.732-1558.408.043.157-495.165c106.909-6.022,213.902-8.755,321.629-9.762l344.859-1.23c-3.067,11.656-4.138,21.708-.226,31.757-10.46,11.003-19.207,21.97-27.415,34.266-4.764,8.792-7.974,17.73-10.366,27.431l-4.809,19.504c-12.094.251-17.73,9.135-19.141,20.032-4.341,3.688-7.955,10.253-9.754,15.733-7.427,6.144-14.26,14.68-9.187,24.999-25.475,32.372-35.066,70.58-56.117,105.893-7.628,12.796-18.65,14.402-19.263,28.46-6.967,2.325-10.077,7.994-12.107,14.815l-2.439,8.191c-7.463,1.267-10.745,6.375-12.855,12.742-6.58,1.806-11.294,6.085-13.009,12.84-13.287,5.644-26.447,10.482-40.481,13.742-12.156,2.824-23.521,2.126-35.515-1.078l-25.5-6.811c-10.773-2.877-22.767.521-29.928,9.119-10.573,12.694-10.74,30.333-2.005,43.985,15.188,23.738,53.749,41.493,80.586,46.113l77.822,13.397Z" fill="#fff"/>
      <path d="M1122.269,353.889l-8.734,7.122c-14.484,3.009-10.794,12.455-18.17,12.8-7.528-23.745-21.293-43.86-41.572-58.227-4.641-33.067-22.198-62.027-54.019-73.772-14.985-5.509-30.525-7.75-46.354-6.938-14.349-6.127-28.203-10.647-43.902-14.681l7.896-37.285c2.138-10.097,1.083-19.565-2.857-29.145-4.632-11.261,5.455-16.087-1.154-33.134l-5.555-14.328c-3.108-8.016-6.746-15.89-11.645-22.799.183-11.349-3.973-22.073-14.968-27.522l-12.084-4.5c-10.324-4.462-21.269-8.247-32.901-5.785-17.479-3.457-35.129-1.27-51.418,5.778-6.406,2.772-10.755,7.853-16.56,11.165l-14.262,8.136c-4.084,2.33-6.262,6.55-7.946,10.925-8.51,8.239-13.713,19.471-12.467,31.438-8.421,13.289-9.986,29.377-3.935,44.267-9.866,5.186-11.867,16.611-7.598,26.562-9,2.694-15.067,9.64-17.291,18.397-7.48,2.865-11.958,8.838-13.68,16.278-4.474,1.31-7.26,5.201-8.951,9.041-7.684,1.994-13.485,8.313-17.006,14.61-6.585-1.307-14.866.918-16.543,8.703-2.32,1.792-5.335,4.527-4.692,8.59-20.368.424-37.258,10.668-38.498,31.304l-8.015,14.036c-.624,1.092.243,4.792,1.205,5.381,4.085,2.499,10.592-10.56,23.828-12.659l-4.779,10.734c-.44.988.102,3.857.962,4.143s3.007.14,3.887-.351l12.012-6.704c10.052-5.61,17.602-13.314,21.023-24.709l4.506,2.718c-18.214,17.624-29.188,40.444-34.489,65.283l-14.701,12.972c-17.449,17.518-29.501,38.393-40.302,60.626l-10.561,21.737c-15.276,31.443-10.363,56.359,6.912,87.096,6.272,11.159,11.68,21.97,13.823,34.773l-2.331,10.153c-73.921-6.952-135.738-34.968-201.593-66.926-56.038-27.194-102.46-44.875-164.249-16.774,3.489-16.114-5.914-30.822-22.29-32.191-.188-17.427-15.616-28.949-32.244-26.04,1.995-10.26.702-19.886-4.986-27.638-6.709-9.144-17.184-13.375-28.116-10.809-3.163-10.056-12.341-16.147-21.278-17.507-11.324-1.723-21.172,3.13-27.377,12.542-7.407-1.722-14.564-1.363-20.744,3.507-5.213,4.108-7.981,10.95-9.001,18.285-11.548,4.898-16.702,18.305-10.952,30.829-8.404,2.587-14.035,8.682-14.914,17.576l-6.8.408-.052-446.941,1558.317-.032-.073,569.054c-.799,1.263-1.414,2.232-1.227,1.942-8.83-2.956-16.968-5.213-23.256-10.654l-2.209-1.911c-1.551-1.342,14.684-5.118,17.497-21.249,2.652-15.205-14.742-15.247-25.748-25.66,7.778-3.647,12.339-8.94,13.88-16.563,1.215-6.01-1.579-11.821-7.4-14.056-12.036-4.622-19.524-12.025-19.266-12.047,2.614-.225,11.871-6.236,13.94-13.853,1.97-7.252-1.961-11.848-7.736-15.485l-11.626-7.321c3.914-2.701,6.655-5.051,7.385-7.937.942-3.725-1.096-7.458-3.421-10.229l-13.658-16.275c3.86-2.377,6.63-4.506,7.699-7.203,1.396-3.523-.422-8.219-3.117-10.666-7.366-6.69-11.372-14.538-13.648-24.185l-6.349-26.913c-.683-2.896-4.625-5.97-6.956-6.075-3.142-.142-7.318,2.611-8.126,6.122l-5.59,24.283c-2.44,10.597-6.038,19.57-14.146,27.015-2.678,2.459-4.41,6.924-3.192,10.216,1.243,3.359,4.211,5.625,8.788,7.579-6.842,12.821-21.072,17.936-22.351,24.86-1.363,7.382,5.868,12.846,15.309,14.502-5.615,8.391-13.055,14.595-21.483,19.67-5.032,3.03-5.357,9.698-3.003,15.012,1.31,1.779.539,2.101-1.404,1.251-47.801-21.036-97.767-34.634-148.753-19.544-17.145,5.074-33.128,11.478-48.873,20.08l-61.048,33.351c-31.003,16.937-62.354,30.287-96.904,38.465-29.983,7.097-59.809,12.063-90.187,13.918l-12.182-18.359c1.398-10.267-2.694-20.439-11.283-26.417,2.423-12.12.657-20.493-10.608-25.203l8.896-32.69,38.367-16.787c3.642,10.627,12.678,16.944,24.087,16.018,3.512-.285,9.148.24,12.283.891l16.799,13.288c13.815,7.521,28.753,10.045,43.943,5.631,13.261,2.535,24.299-5.406,27.928-17.926l3.548-23.957c1.381-15.921-2.473-30.887-12.713-43.107l-.431-2.03c-.125-.588,1.705-.213,2.581.083,6.616,1.265,11.978-3.233,16.462-7.714,6.745.199,12.796-1.205,18.002-5.347l10.376-2.441c5.818,1.19,10.478-1.863,15.327-4.128l196.28-39.919c17.321-3.523,32.861-10.538,44.776-23.256,28.311-30.221,26.467-80.884-1.597-113.399-33.512-38.826-86.963-42.5-129.639-15.491-10.397,6.58-19.943,13.669-28.622,22.473l-46.854,47.526-63.733,68.288-10.409,10.902-7.936,7.204-7.228,5.859Z" fill="#fff"/>
      <path d="M715.472,317.808c-7.795,5.192-7.407,14.276-9.521,21.416l-2.323-1.715c-.422-.312-1.497,1.672-1.332,2.17l2.588,7.806,2.629,19.484c-8.936-2.77-19.815-6.663-29.302-.647,10.17,1.985,18.934,2.243,27.553,6.679-16.65,36.838-44.426,66.153-79.303,86.298-6.633-8.929-15.923-16.732-28.587-16.464,3.057,2.977,6.918,4.793,10.509,6.91,21.955,12.947,21.91,37.253,18.83,61.821-1.142,9.105-.508,17.67,3.485,25.878-4.577-.798-7.47-1.68-11.194,1.295l21.336,8.434,17.799,5.552c5.142,1.604,9.85,5.393,10.925,9.98l-5.712-1.437c-1.051-.264-1.874,3.252-1.465,4.308l11.105,28.681c1.834,4.735.271,8.79-3.923,10.787-4.614,2.198-8.268.155-10.781-4.993l-10.353-21.212c-.338-.693-2.096-1.834-2.759-1.954-.885-.16-1.557,2.151-1.836,3.483l13.787,29.218c-.711,3.126-4.385,6.149-7.259,6.566-4.526.657-7.527-1.536-9.8-5.637l-12.084-21.803c-.312-.562-2.426-2.376-2.71-1.829l-1.652,3.188,14.278,27.565c-.164,2.545-2.835,5.463-5.576,6.248-2.616.75-7.09-.339-9.005-3.301l-13.214-20.428c-.308-.476-1.531-1.569-1.847-1.795-.473-.339-1.132.761-2.006,2.183l12.339,23.048c-3.936,5.053-11.596,4.442-15.141-.837l-10.647-15.856c-4.966-7.396-8.916-13.693-8.345-23.418s3.381-19.301,6.995-28.323c-.858-.682-1.901-1.473-2.297-1.075l-3.277,3.284-11.619-26.245c-4.484-10.128-10.476-19.016-13.462-29.861-4.087-14.847-5.643-31.775,1.221-45.935l16.667-34.385c11.388-23.493,25.683-45.3,45.306-61.795.361,2.57,1.426,4.754,3.224,4.832,3.001-6.293,4.644-13.387,6.397-20.298,9.764-38.473,37.186-71.768,77.126-79.055l13.444.08c.179-.274-.189-2.695-.573-4.445,15.197-9.978,32.14-18.185,48.938-23.677,3.721,14.479,5.429,28.924,15.535,40.876l-14.433-73.053,11.164-1.008,8.348,16.961c6.095,12.384,37.051,23.28,52.906,30.591l-3.895,2.036,9.082,2.794-10.939,17.024c-2.302,3.582-5.094,6.304-6.722,10.732,11.775-5.796,17.945-16.779,24.487-27.927,16.724,4.073,42.056,1.285,45.696-14.637l3.218-14.073,37.175,11.992c-3.761,2.904-6.064,2.988-7.794,7.579,14.442-5.093,26.518-5.279,40.45-3.24,25.034,3.663,46.444,16.728,58.435,39.269,7.208,13.059,10.988,27.188,11.902,42.333l2.599,5.229,2.738-6.281c17.462,13.722,29.731,31.935,35.876,53.395l-12.89,5.736c-2.725-4.672-5.46-8.202-8.514-9.84-4.998-2.68-9.908-1.455-14.642.605-11.996,5.222-19.061.615-22.914,7.826-1.3,2.433-.903,6.633.268,9.445l-7.225,7.834-9.697.683c-19.927-14.695-34.651-33.735-42.546-57.546l17.733-7.644c-24.351-5.747-38.643,20.222-49.997,39.504-7.594,12.896-16.725,23.193-29.435,32.251,8.596.198,14.523-5.352,20.086-10.587,15.059-14.173,21.161-33.973,35.938-48.686,5.11,13.212,11.802,24.118,19.042,34.941-2.263,17.808-8.029,34.357-14.62,50.378l-157.626,68.183c-3.678-.562-6.318.295-7.847,3.279l-29.59,12.703c-6.929-4.059-14.762-7.953-19.289-14.475-2.764-10.158-3.447-21.427-3.429-31.983.007-3.885-.038-6.897-1.791-10.42-7.635-15.344-13.862-30.586-16.34-47.74,16.386,12.116,38.159,13.565,56.09,3.327,1.831-1.045,3.382-3.535,3.171-5.337-24.726,10.299-49.323,9.492-64.79-12.819-16.062-23.171-20.98-50.661-12.555-78.989ZM842.07,299.156c18.549-3.625,35.697-8.532,51.519-17.86,9.454-5.574,19.775-10.972,25.55-21.145-16.565,9.327-30.353,20.399-47.893,25.291l-38.227,10.662c-7.641,2.131-16.1,7.071-16.134,15.62,8.056-6.712,15.338-10.644,25.185-12.569ZM790.486,297.121l-22.442-8.11-31.438-15.485c10.02,13.561,25.943,20.377,41.441,24.447,8.953,2.351,15.143,6.353,21.836,12.997.898-7.101-3.769-11.815-9.398-13.849ZM945.435,314.637l-14.568-25.728c-1.834,9.697,3.92,21.602,14.568,25.728ZM805.268,382.807c-1.405-18.001.133-34.875,2.08-53.576-6.553,6.502-6.628,15.5-7.362,23.663-1.217,13.544-1.372,26.821,4.071,40.116,1.293-3.055,1.477-6.801,1.211-10.203ZM880.863,414.111l-34.496,1.256c-11.253.41-21.306-3.819-32.542-7.44,2.805,6.181,9.157,8.783,15.043,10.375,16.456,4.448,33.312,3.475,49.808-.819,1.928-.502,3.715-2.988,2.187-3.372ZM805.533,448.524l.021-22.974c0-.556-1.268-1.627-1.503-1.374l-1.527,1.645c-4.051,15.232-3.839,32.657,5.709,45.899,1.053-8.681-2.707-14.739-2.7-23.196ZM657.244,562.525c-3.292-4.901-7.387-3.541-10.462-1.349-2.589,1.846-4.742,5.987-2.21,9.778,2.9-5.3,5.726-8.412,12.671-8.429ZM635.816,572.632c-3.425-4.207-7.884-3.315-11.171-.392-1.994,1.773-3.808,5.782-1.002,8.268,2.781-5.134,6.355-6.621,12.172-7.876ZM614.71,582.017c-2.743-2.177-6.477-1.76-8.806.536-1.329,1.31-2.424,4.889-2.314,7.055l11.119-7.591Z" fill="#fff"/>
      <path d="M448.022,656.821c-1.027-5.402-3.858-9.265-8.19-12.023l-9.276-5.906c3.926-3.238,5.934-5.621,6.176-9.199.57-8.43-10.645-11.59-17.273-21.349,2.746-2.233,4.556-3.73,5.531-5.85.87-1.89-1.028-6.286-2.719-7.656-6.063-4.912-8.911-10.599-11.105-17.865l-3.405-11.281c-.744-2.466-5.04-4.848-7.309-4.861-2.704-.015-6.982,2.699-7.781,5.56l-3.965,14.204c-2.863,10.256-13.158,14.345-12.008,20.133.358,1.804,2.11,3.632,4.886,6.133l-9.544,9.083c-1.863,1.773-3.688,5.387-2.892,7.729.893,2.628,3.005,4.094,6.877,6.375l-15.054,12.558c-6.518-2.584-12.54-3.553-19.065-2.976,4.054-15.075-5.092-29.35-20.763-30.872,3.546-8.877,2.341-17.827-2.772-25.063-4.946-7.001-12.946-11.182-21.999-10.552,2.093-16.026-9.023-29.401-24.521-28.662-3.667-19.172-23.498-27.234-41.85-20.604-.109-11.003-5.994-20.075-16.16-24.189,64.411-30.594,112.316-7.251,170.322,21.084,63.011,30.78,124.334,55.789,193.952,62.546l1.926,15.854-47.156,20.854c-7.275,3.217-6.996,13.205-4.575,19.196,3.599,8.905,11.789,12.552,20.415,8.782l49.496-21.631c6.843,8.864,17.337,9.871,25.249,2.639,7.97,4.75,16.272.675,20.851-5.917,4.543-.061,9.6-.948,13.297-2.332,1.817,3.849,5.242,7.349,8.303,7.838,11.554,1.844,8.786-10.044,18.345-13.702,6.632-2.538,11.295-8.471,10.019-15.739l-2.178-12.409,30.065-12.683c-16.927,40.41-30.721,79.692-40.288,121.635l-97.567-.294-87.676.082c.26-10.751-7.806-19.707-19.2-20.121-1.677-14.031-14.893-22.557-29.417-18.549Z" fill="#fff"/>
      <path d="M709.104,807.856c-9.083,6.487-16.457,17.304-28.365,17.609-11.367-2.939-22.934-9.182-35.452-9.56l2.575-12.393c2.202-10.594,4.71-21.204,10.392-30.527,7.007-11.496,15.116-21.302,24.44-31.157,34.343-36.302,73.798-65.565,117.449-89.935l45.645-25.484c17.059-11.074,32.256-23.89,43.782-40.714l31.397-10.646,17.178,72.877c-3.64,33.551-30.156,61.675-55.87,82.638-22.248,18.137-45.329,33.874-70.013,48.663l-61.835,37.047c-9.2,5.512-18.707,11.95-24.344,21.218l-7.183,18.679c-9.497-11.091-20.169-19.105-31.476-26.527,9.757-4.038,19.736-10.707,21.68-21.787Z" fill="#fff"/>
      <path d="M1295.098,634.232c3.971-3.047,7.148-5.786,8.518-9.71,4.03-11.541-10.69-12.838-18.563-22.442,3.75-2.291,6.27-4.408,7.284-7.481,1.15-3.485-.99-7.235-3.617-9.963l-11.401-11.839c2.543-2.374,4.553-4.481,4.95-6.424,1.537-7.52-8.151-7.493-13.035-23.352l-3.964-12.87c-.562-1.826-4.386-4.117-6.282-4.214-5.783-.296-8.598,6.343-10.192,13.717-3.767,17.429-15.239,19.429-13.518,26.557.563,2.332,2.553,4.221,5.295,6.002l-11.239,11.198c-2.64,2.63-5.349,5.696-4.205,9.455,1.023,3.361,4.108,5.769,8.261,7.581-8.092,10.125-24.322,12.79-17.629,23.826,2.342,3.862,6.174,5.789,10.645,7.9l-15.978,9.34c-2.753-6.744-8.375-9.692-14.847-11.333,1.644-12.584-6.664-23.154-19.252-24.539-1.666-7.76-6.311-15.107-12.257-18.496-8.274-4.717-16.7-4.887-24.795-1.737-6.962,2.709-11.66,8.445-14.086,15.505-6.715-1.132-14.262-.497-19.892,4.376-5.336,4.618-9.044,11.367-9.098,19.337-16.009-.89-28.57,11.758-27.542,28.086-6.496,1.052-12.194,4.176-15.131,9.768l-37.83-46.983-25.194-34.619c66.696-6.134,123.79-18.849,181.86-50.957l52.946-29.274c39.993-22.112,79.178-36.948,125.521-30.041,33.343,4.969,64.717,15.998,94.435,32.036-5.46,6.746-11.906,11.654-19.443,15.117-6.278,2.885-8.889,9.308-6.085,15.831,2.934,6.828,8.858,11.034,16.974,12.875-4.853,6.419-11.313,11.178-18.657,14.552-6.798,3.123-9.279,10.249-6.21,17.167,2.742,6.181,7.788,9.689,14.731,12.479l-5.445,4.644c-2.76-4.415-5.008-6.549-8.658-8.909l-15.339-9.915c4.263-2.346,7.155-4.351,8.444-7.487,3.571-8.683-9.674-13.235-16.21-24.632,2.741-2.183,4.817-4.094,5.46-6.097,2.307-7.188-7.936-8.165-13.241-26.383l-3.805-13.067c-.47-1.614-3.881-3.754-5.551-3.931-1.879-.199-6.048,1.844-6.579,3.694l-3.52,12.26c-2.172,7.565-4.624,14.12-10.605,19.457-1.821,1.625-3.573,5.722-2.742,7.9.914,2.395,3.302,4.358,6.184,6.059-7.527,13.037-22.341,16.013-17.116,26.001,1.134,2.167,4.166,4.079,8.379,6.005-6.955,9.877-19.382,11.202-20.941,18.384-1.514,6.972,4.476,12.726,13.293,15.201-5.87,4.092-12.169,7.75-18.952,10.514-6.22,2.535-8.817,9.67-5.848,15.731,2.638,5.384,6.794,8.304,12.933,11.409-4.176,3.026-8.515,5.391-14.379,7.632,1.985-6.753-.084-11.978-5.937-15.022l-11.306-5.882Z" fill="#fff"/>
      <path d="M147.508,622.866c-8.258-8.81-19.018-11.427-30.107-7.517-1.975-17.603-17.752-28.902-35.261-25.212.988-7.204-.224-14.539-4.956-20.552-4.102-5.213-11.13-8.537-19.052-8.616,2.027-11.243-3.251-21.682-11.413-27.173-10.331-6.952-21.999-6.795-32.87.283l-.089-65.428,13.088-.43c-1.053-8.45,2.963-17.861,12.087-18.625,1.746-.146,5.003-1.234,5.245-2.391-1.777-4.017-3.966-9.037-4.285-13.054-.742-9.323,5.667-15.185,14.149-16.438-1.013-6.779.348-13.995,5.62-18.045,5.861-4.503,12.756-3.916,19.805.195,3.562-10.424,12.276-15.852,22.081-14.84,9.639.995,17.399,8,18.442,19.358,11.855-5.792,24.472-1.563,29.563,9.948,3.973,8.982,2.761,17.615-.799,27.533,2.574.793,5.449.345,8.218-.415,7.633-2.095,15.151-.192,20.232,4.587,5.783,5.44,7.479,12.552,5.774,21.647,10.869-2.609,19.967,2.636,22.64,12.75,2.144,8.111-.7,15.651-5.268,23.521,7.519.516,13.281,1.607,17.391,6.047,4.056,4.382,6.81,11.593,4.855,17.746-11.085,8.173-18.018,20.549-16.096,35.674-18.127,1.732-29.854,18.522-26.119,37.462-15.307-1.532-27.896,7.995-32.875,21.986Z" fill="#fff"/>
      <path d="M397.064,680.809c4.926-.272,11.04-1.175,15.166,1.774,3.912,2.795,6.326,7.243,6.07,13.254l-123.083,1.463-84.852,1.656c1.236-6.007.94-12.269-1.11-17.841-4.186-11.374-14.631-17.693-26.512-17.279-1.176-15.251-14.714-23.761-28.141-21.751-2.715-10.441-1.479-19.456,5.206-26.718,12.509-13.589,28.545-4.508,28.744-7.201.315-4.252-5.213-14.243.36-25.371,4.971-9.924,14.596-14.243,25.968-11.608-3.236-12.388-2.314-23.229,5.27-31.846,6.691-7.601,16.845-12.454,27.92-10.245,11.23,2.24,18.718,11.33,17.66,23.359,7.347-2.016,13.44-1.496,18.191,2.874,7.319,6.731,7.155,16.041,3.636,26.446,12.182-4.956,23.879-.406,27.719,10.953,2.658,7.863.503,15.051-4.355,22.063,2.196.741,4.851,1,7.175.754,7.495-.792,13.862,3.977,16.475,9.718,6.152,13.518-6.067,21.633-4.175,23.895,2.468,2.951,15.259-7.702,28.185.009,8.189,4.885,12.279,12.388,11.397,22.273,5.432.9,9.719-5.569,18.783-1.915,3.867,1.559,6.316,5.959,8.303,11.283Z" fill="#fff"/>
      <path d="M1492.635,618.134c-8.43-4.57-17.98-2.78-24.661,4.296-13.858-14.673-37.645-13.877-51.292,2.162-3.63-.841-6.741-2.105-11.006-4.332,8.911-3.303,12.015-9.258,14.986-17.083,8.73-4.339,17.445-13.778,14.607-16.517-2.583-2.493-11.119-1.412-16.767-10.707-6.376-10.493,16.012-9.286,27.244-30.354,4.236-7.946-11.651-1.747-19.045-13.537-.628-1.002-1.263-3.847-.876-4.964,1.816-5.236,22.147-7.788,30.974-31.744,3.041-8.253-9.413-2.096-17.191-11.571-1.805-2.199-1.425-6.186,1.314-7.628,19.224-10.118,28.573-30.294,25.404-30.661l-3.652-.423c-6.746-.782-14.257-1.853-13.37-6.194.179-.875,1.317-2.687,2.284-3.328,15.64-10.364,24.598-27.808,21.165-28.636l-4.217-1.017c-2.813-.678-4.918-1.409-6.604-4.504,10.617-8.837,14.762-19.859,18.009-32.715l6.283-24.876c8.518,21.858,4.538,40.273,24.287,57.037-.655,7.579-12.338,2.828-9.287,10.23,6.468,15.692,20.19,22.393,17.959,26.467-.801,1.462-4.331,2.772-6.004,3.033l-4.577.712c-3.856.6,4.622,12.991,19.7,19.32,3.321,1.394,4.659,5.13,2.924,8.316-2.679,4.92-7.81,7.117-12.933,9.23l-2.795,1.152c-.817.337-.349,3.306.178,4.086,10.115,14.972,25.452,16.344,28.31,21.089,3.38,5.612-5.332,15.628-17.046,18.141,1.234,8.699,14.566,15.732,23.863,19.918,4.249,1.913,6.207,5.715,4.481,10.369-5.943,16.029-25.42,12.697-19.263,20.254,5.672,6.962,14.563,11.862,23.115,15.326l12.896,5.224-.065,41.633c-5.932-4.656-11.675-6.464-18.974-6.2-3.835-16.903-19.457-28.55-36.71-26.806-10.3,1.042-18.75,6.746-23.648,15.802Z" fill="#fff"/>
      <path d="M1241.534,564.748c6.965-6.775,11.279-13.586,13.133-22.773.69-3.417,1.623-5.73,4.034-9.698,5.961,12.328,3.673,22.43,17.632,32.829l-7.364,3.424c2.005,14.37,17.934,20.209,16.918,24.46-1,4.183-11.611,2.578-10.485,6.035,4.272,13.124,19.468,16.701,21.844,21.03.609,1.11-.369,4.824-1.451,5.408l-7.871,4.25c-.844.456-1.917,1.049-2.339,1.452-.562.538.205,2.987.807,3.668,8.178,9.269,18.009,9.76,19.75,14.155.556,1.405-.357,5.281-1.556,6.399l-6.652,6.203c.128,2.296,4.74,5.911,6.592,4.85,3.456-1.978,6.63-4.142,10.352-5.312,10.799-3.394,22.662-12.748,21.434-16.844-1.049-3.499-10.157-1.78-15.721-9.39-.796-1.088-1.446-4.639-.942-5.872,1.794-4.384,16.191-5.426,28.153-19.42.635-.743,1.495-3.364,1.027-4.205-1.571-2.826-8.791-.092-15.36-5.372-.618-.497-1.556-2.667-1.375-3.431s1.504-2.291,2.349-2.72c14.32-7.264,24.673-21.343,21.543-22.713-4.743-2.076-10.084-.01-12.774-5.448,9.289-6.975,16.87-14.007,20.086-25.095l-8.472-3.919c7.37-6.877,11.724-14.379,13.638-24.13l3.384-10.87,3.931,13.766c2.148,7.524,6.408,14.502,12.093,19.94,2.427,2.322-4.713,2.955-6.643,4.826-2.945,2.854,9.304,18.35,18.374,24.897-1.297,6.095-7.645,4.188-12.012,6.185-3.726,1.704,7.477,14.958,21.907,21.274,4.186,1.832,5.354,5.502,4.299,9.891-2.606,10.836-15.42,12.83-17.134,15.422-1.979,2.993,7.284,9.354,14.557,12.805l-4.889,13.498c-8.425-1.601-16.876,3.508-20.37,11.456-8.144-.67-16.723-.335-23.274,5.685-5.273,4.845-9.342,12.006-9.125,20.721-12.862-.939-23.135,8.391-23.22,21.724l-153.692-3.82c-.504-3.912.807-8.439,3.599-10.909,2.93-2.592,7.81-3.239,12.417-3.648-.021-5.23.802-10.579,4.375-13.76,8.657-7.707,17.277.381,24.562-11.502l-6.024-3.851c-1.631-1.043-3.563-3.56-3.688-5.486-.11-1.699,2.157-4.44,4.179-5.2,10.439-3.926,21.944-14.254,20.399-18.021-1.424-3.47-11.83.45-15.511-8.128,7.761-7.149,18.281-11.39,22.402-23.541l-8.287-2.368c-10.585-3.025,9.09-8.523,13.996-25.078l-7.535-3.728Z" fill="#fff"/>
      <path d="M138.733,624.106c14.145,11.054,6.078,26.011,8.091,26.359l2.374.41c6.504-3.742,14.273-3.211,19.778.89,5.92,4.41,8.531,11.464,7.435,20.02,8.772-2.566,16.89-1.326,22.483,5.057,5.33,6.082,6.993,14.449,4.22,22.048l-189.295,7.494-.021-162.42c6.681-9.07,19.506-10.883,28.838-4.763,9.416,6.175,11.65,18.007,7.168,29.759,7.833-1.577,13.111-2.111,18.298,1.503,8.194,5.71,9.704,16.228,4.95,26.202-.332.696-.487,3.002.244,3.248,3.057,1.028,14.366-8.804,27.557.01,13.34,8.914,9.23,24.536,10.848,24.709,3.284.351,15.574-9.481,27.033-.526Z" fill="#fff"/>
      <path d="M895.739,146.545c1.38,2.594,2.431,4.608,3.784,5.332,1.383.739,4.787-.494,6.641-1.873l4.141,12.655c1.768,5.405,1.878,12.414.568,18.21l-11.848,52.395c-1.525,6.744-2.702,12.308-10.154,14.648-11.758,3.693-24.521,3.891-36.188-1.284l-39.848-17.676c-9.143-4.056-14.879-11.097-18.728-20.252l-7.131-16.962c-3.419,5.709-6.646,7.86-11.992,5.687-3.561-1.448-7.466-4.926-10.538-7.829-13.78-13.019-14.82-33.292-4.118-37.734,4.299-1.784,9.502-.786,12.932,2.208l7.749,6.765c4.333-8.262,4.322-16.532,2.433-24.893-3.132-13.856-.853-27.28,8.092-39.14,14.216-18.847,41.757-21.52,65.424-17.265,15.608,2.807,18.02-8.165,31.831,6.648,5.662,6.073,8.56,12.388,11.429,19.971l6.498,17.178-13.146,4.295c-1.071.35-2.386,3.061-2.601,4.06s1.527,3.197,2.49,3.271l15.294-4.259-1.368,10.896c-7.001-2.52-11.648.836-17.425,4.825l1.861-11.783c-6.16,3.927-8.221,12.688-4.982,19.168l13.021,26.045c-1.041,5.35-7.674,6.869-13.113,9.089,5.521,3.13,13.082.083,16.593-5.834,1.397-2.354.171-6.54-1.105-9.009l-11.981-23.173,5.489-4.38ZM866.266,137.709c1.671.282,4.579-3.501,4.151-5.058-.367-1.335-2.502-3.874-4.081-4.034l-16.565-1.684c-9.009-.916-18.579,3.656-22.811,12.227,7.621-1.527,14.443-5.652,21.399-4.477l17.907,3.026ZM858.823,154.4c1.168-1.367,2.058-1.576,4.691-2.122.014-.775-.892-4.699-1.593-6.229-2.289-4.992-21.687-1.762-27.138,7.045l14.336-4.248c-.075,2.384.922,5.547,2.472,6.586,2.021,1.354,5.584.897,7.233-1.033ZM781.578,185.617c3.249-3.496-5.19-4.533-3.985-14.955.717-6.199-6.029-12.917-12.08-13.302-3.985-.253-7.376,2.865-7.877,5.479-.659,3.437-.047,7.225,1.611,9.473,1.945-3.369,4.17-7.551,6.348-8.726,1.302-.703,5.008,1.59,5.406,2.393-4.268,3.408-6.184,6.873-4.709,12.019,1.399,4.881,13.564,9.472,15.286,7.62ZM873.338,186.53c-1.51.133-3.593-3.432-3.199-4.762l1.962-6.623c-5.644.506-7.075,7.475-5.133,11.316,2.247,4.446,7.539,4.751,11.87,2.285l8.124-1.897c-4.087-5.108-8.685-2.355-13.624-.319ZM866.119,214.321l23.33-1.924c3.151-.26,7.463-2.17,10.575-3.431.038-3.552-2.997-8.59-5.513-8.51l-10.663.342c-2.801.09-6.769,2.873-9.682,4.433l-10.213,5.47c-.75.352-2.357,2.202-1.641,2.567.536.274,2.917,1.127,3.805,1.054ZM894.688,220.934c.429-.476.77-3.04.241-2.804l-2.583,1.154c-5.447,2.435-12.523,1.473-18.872.747,4.598,8.568,16.892,5.695,21.214.903Z" fill="#fff"/>
      <path d="M1342.647,691.547c7.715-6.134,17.937-.432,17.754-3.162l-.261-3.902c-.54-8.081,2.703-15.048,8.498-19.205,6.627-4.754,13.958-4.023,21.964-.974.904-5.942,2.974-10.142,6.916-12.311,4.193-2.307,8.714-1.362,14.502.735.875-14.917,8.537-27.398,22.103-32.135,13.445-4.695,26.16.543,34.122,13.062,3.623-5.587,7.105-9.781,11.214-10.85,5.938-1.545,10.319,1.42,15.698,4.983,5.253-15.861,21.041-22.689,35.534-16.28,10.136,4.483,16.552,14.033,16.463,25.689,5.752-1.348,11.262-1.766,16.195.735,3.541,1.795,8.562,6.825,8.575,12.361l.143,61.4-165.68-5.665-69.309-1.96c.162-5.522,2.091-9.756,5.57-12.522Z" fill="#fff"/>
      <path d="M583.626,1063.404c-.461,4.635-2.569,9.294-6.46,11.937l-21.589-19.106c-11.399-10.088-24.739-17.643-39.281-21.807l3.321-10.281c1.63-5.048,5.276-7.045,10.387-7.14,15.334-.284,29.944-5.068,43.02-12.799,3.117-1.843,5.951-4.544,7.015-8.078-15.958,7.992-30.345,14.536-48.612,14.711-.655-10.048,10.459-12.067,18.264-25.614,9.534-16.546,17.101-33.214,24.678-50.801,9.282-21.546,20.237-41.079,34.752-59.93,10.393-.825,20.104,1.529,30.032,5.11,21.283,7.676,40.226,20.398,53.256,39.189-7.828,21.593-19.05,40.532-34.197,57.206l-27.22,27.248c-15.231,15.246-30.856,27.497-36.994,49.774-.487,1.768-2.662,4.689-4.221,5.161-7.361,2.228-22.442-19.859-38.616-21.953,4.301,4.899,9.774,8.087,14.54,12.096l17.925,15.077Z" fill="#fff"/>
      <path d="M676.536,558.606c-3.832-4.935-7.798-9.53-13.546-11.449l-23.672-7.903c-3.029-4.892-5.369-12.471-5.872-18.653l2.321-29.028c.744-9.312-1.599-18.248-4.511-26.938,34.415-20.376,61.891-48.761,79.352-84.944,4.506,9.672,8.924,17.534,14.858,25.475,2.63,19.807,8.206,38.509,18.201,56.242l1.99,26.685c-10.651,3.196-15.219,13.239-12.146,23.804-5.77,7.119-8.835,15.697-7.327,25.274l-49.648,21.435Z" fill="#fff"/>
      <path d="M470.324,1148.515c-20.9-4.583-38.238-14.604-55.383-26.154l-40.452-27.253c-6.428-4.331-13.483-6.697-21.239-7.917,2.962-10.729,13.541-17.436,24.92-15.62l22.9,5.882c15.136,3.888,29.855,5.941,45.084,1.999l41.591-14.477c10.246,1.858,19.653,6.107,28.068,12.175l19.265,17.329c6.967,6.266,15.196,11.044,24.523,10.592l-2.445,14.281-5.147,34.64c-8.199,1.553-15.258,2.472-23.361,1.916-19.611-1.345-38.533-3.054-58.325-7.394Z" fill="#fff"/>
      <path d="M879.134,588.607c-12.225,14.893-25.866,25.89-41.808,34.811l-52.749,29.519c-36.41,20.376-68.543,45.371-98.228,75.573-2.185-5.789-1.94-11.144-.715-17.202,9.933-49.122,26.031-96.064,46.466-141.688l7.06-3.052c19.163,16.735,42.655,26.548,68.331,28.719-13.557,14.992-30.956,24.413-49.569,33.696,7.191,1.177,13.153-2.039,19.043-4.804,14.427-6.773,26.705-16.229,37.426-28.329,22.196,1.059,43.248-2.688,64.742-7.243Z" fill="#fff"/>
      <path d="M1169.633,699.837l-116.848-1.889,9.806-11.425c3.442-4.01,1.648-8.778-.793-12.792l-3.391-5.577c4.129-11.735,17.704-7.909,17.528-9.923l-.218-2.5c-.669-7.669.636-14.36,5.462-19.088,5.563-5.45,12.959-6.763,21.012-4.363,2.4-6.912-1.629-15.182,7.875-22.117,5.617-4.098,12.173-4.115,19.62-.549,1.173-12.407,10.738-20.431,21.334-19.593,11.936.943,20.358,10.23,18.447,23.027,6.632-.932,12.011-.668,16.108,4.043,3.217,3.699,4.411,9.719,2.778,15.164l-.919,3.064c-.247.824,2.373,1.667,3.374,1.555,8.19-.915,15.072,4.79,14.853,13.47-.093,3.692-.736,8.063-2.488,11.113-9.046,2.126-15.809,8.376-16.813,18.149-9.732,1.528-17.005,9.215-16.728,20.232Z" fill="#fff"/>
      <path d="M1413.806,243.591c-7.224-18.18-21.59-32.204-39.06-40.041-28.933-12.98-65.133-2.545-87.744,17.962l-30.944,28.065-92.638,95.387-7.237-12.869,67.248-71.94,44.48-44.316c8.804-8.771,18.767-15.521,29.531-21.519,40.433-22.531,89.032-14.961,117.387,22.475,19.207,25.358,22.1,59.965,6.346,87.676-7.541,13.265-19.413,22.403-33.466,27.591l-23.957,6.238-186.954,37.78-4.707-12.658,191.432-38.465c16.014-3.218,30.616-9.034,41.239-21.309,14.249-16.465,17.368-39.105,9.042-60.056Z" fill="#fff"/>
      <path d="M959.115,576.68l17.786,29.837,37.632,63.311,18.539,40.241c-16.254,18.04-36.865,30.777-60.881,34.387l-27.008-97.265-17.062-71.47c4.013,2.707,7.368,4.658,11.46,6.372l8.941,26.149c4.408,12.892,8.012,26.28,17.465,37.218l-20.614-63.053c4.863-1.072,8.018-2.266,13.741-5.727Z" fill="#fff"/>
      <path d="M872.522,807.575c10.646,21.336-2.511,51.023-20.94,66.312-6.683,5.544-14.506,7.601-22.989,6.208-17.704-.699-31.124-12.751-34.244-30.088l-20.072-40.179,69.324-42.41,22.435-15.5c-1.756,23.441-1.726,44.963,2.071,68.098,4.222-3.277,3.686-7.585,4.414-12.442Z" fill="#fff"/>
      <path d="M1035.814,1003.681c-9.26,10.244-25.228,13.908-30.12,8.097-3.903-4.637-5.177-11.349-4.3-17.137l4.087-26.983c2.561-16.906.824-33.558-4.653-49.92,9.493-3.554,16.211-10.144,21.474-18.557,11.223-17.941,13.518-39.309,5.047-58.933,9.72-1.674,19.237-6.461,29.046-4.066,6.561,1.602,10.088,11.91,11.021,18.143,3.43,22.917-9.263,43.651-7.252,66.425,1.231,13.941,2.759,27.261-.979,40.923-4.316,15.776-12.435,29.913-23.37,42.009Z" fill="#fff"/>
      <path d="M985.401,901.205c-15.772-6.007-31.356-9.927-47.986-11.011l-44.156-2.877c19.185-21.438,29.489-53.456,17.584-80.188,17.214.729,32.76,5.802,47.342,14.622,14.277,8.636,28.526,15.91,45.152,18.944,11.772,20.252,3.467,49.901-17.936,60.51Z" fill="#fff"/>
      <polygon points="907.943 485.954 676.847 585.691 670.532 568.898 950.416 448.21 990.73 430.274 996.298 447.821 907.943 485.954" fill="#fff"/>
      <path d="M490.024,695.429l-64.763.421c.315-13.065-10.135-23.454-23.575-22.073-4.755-9.75-15.294-14.362-25.29-10.362-1.311-7.105-4.835-12.209-9.359-17.428,7.406-5.678,17.743-13.493,17.936-19.69.09-2.896-7.883-1.129-9.49-4.766,5.769-5.447,12.063-10.482,14.505-17.906.577-1.753-4.737-3.481-7.216-3.673,8.391-7.31,12.44-15.637,13.995-26.115.375-2.525,1.908-4.953,4.074-7.025,6.321,11.467,3.265,23.355,18.246,33.679l-8.021,4.174c5.42,19.273,29.056,22.434,13.573,29.068l-3.88,1.662c-1.083.464.357,4.4,1.406,5.123l13.559,9.339c9.864,6.794,4.185,15.123,6.837,15.211,4.723.156,12.489-6.165,21.652.051,5.274,3.578,7.482,9.541,6.957,16.968,5.037-.3,9.506-.289,12.535,1.476,3.906,2.277,5.923,6.171,6.319,11.865Z" fill="#fff"/>
      <path d="M1018.596,445.997c4.166-2.21,1.805-4.968.716-7.155-5.22-10.484-11.872-25.429-5.346-31.157,2.041-1.791,5.484-2.451,8.23-2.114,2.562,12.5,6.902,23.416,15.067,33.561,2.23-2.096,1.892-4.436.726-6.76-6.213-12.382-14.565-29.928-5.526-34.869,2.286-1.25,8.244-1.041,9.214,1.671,2.392,6.685,4.39,12.281,7.881,18.216,2.593,4.409,3.148,10.633,10.056,11.635-2.344-12.608-12.14-22.228-11.102-32.871.349-3.577,4.436-5.938,7.268-5.896,11.746.175,11.73,21.839,23.755,32.697,5.068,4.576,2.913,16.06-3.924,19.853l-12.256,6.799c-3.266,5.119-9.116,5.559-14.769,4.992-4.516,4.011-9.494,7.726-15.484,7.429-3.704-.32-7.023.278-10.478,1.04-9.247,2.038-15.686-5.674-18.594-13.453-3.266-8.738-7.295-16.896-6.93-26.026.197-4.92,3.17-8.869,8.253-8.566,1.088,11.262,6.292,21.269,13.244,30.976Z" fill="#fff"/>
      <path d="M934.523,521.599c-37.178,15.936-81.311,23.061-121.315,13.022l138.877-59.9-8.577,36.428c-1.058,4.492-4.546,7.642-8.985,10.45Z" fill="#fff"/>
      <path d="M1049.432,460.579c8.739-.374,15.616-2.826,20.459-9.867,9.66-.433,16.474-7.088,18.244-16.394,1.223-6.432-.246-12.862-2.464-19.007l10.991-4.09c2.505-.932,7.714,1.852,11.432,2.871.582-2.284-1.408-3.987-4.786-6.06l3.891-1.862c15.949,20.233,14.537,31.627,12.037,54.968-.855,7.989-2.656,15.627-9.658,20.573-3.835,2.709-9.737,1.496-14.099,2.33-16.862,3.226-32.253.398-45.937-10.192l-9.612-7.438,9.501-5.834Z" fill="#fff"/>
      <path d="M1036.957,701.877l-7.791-17.845c-11.022-25.245-25.927-47.749-41.208-70.796l-23.878-39.384,7.315-10.332c14.927,25.911,32.597,49.177,51.763,72.129l35.033,45.349c-6.516,8.411-12.705,14.32-21.234,20.878Z" fill="#fff"/>
      <path d="M549.518,1160.012c-5.584,17.257-37.132,11.638-58.035,7.94l-34.048-6.024c-13.108-2.319-25.135-8.471-36.008-16.044l-32.718-22.788-22.028-14.696c-4.513-3.011-9.438-4.002-15.148-5.231l.08-11.119c10.06,1.518,18.463,5.689,26.829,11.385l40.911,27.85c13.531,9.211,27.965,16.248,43.813,20.582l42.074,7.125c14.926,2.528,29.55,2.687,44.278,1.019Z" fill="#fff"/>
      <path d="M762.514,556.667l15.813-7.094c11.776,6.819,23.523,10.902,37.005,12.775l7.031-1.201c15.914.757,31.339.256,47.357-1.815,20.131-2.277,38.695-6.648,57.712-13.603l-3.762,7.607c-18.525,7.434-36.746,14.023-56.389,17.831-35.694,6.92-73.707,7.724-104.767-14.5Z" fill="#fff"/>
      <path d="M691.625,262.649l7.028-10.113c7.921-1.804,15.483-6.953,16.75-16.096,10.107-1.497,15.013-9.496,16.969-18.645,4.563-2.593,9.052-7.365,10.952-12.399,6.297.813,12.509.199,16.473-5.924l7.101,3.294,4.71,26.931c-19.264,6.754-37.836,15.076-54.745,26.945-8.416.86-16.038,2.877-25.24,6.008Z" fill="#fff"/>
      <path d="M745.489,563.835c3.828-2.062,7.626-3.63,11.987-4.878,18.014,13.575,38.564,20.504,61.266,21.367,25.866.983,51.381-3.244,75.627-11.715l28.771-10.053,1.002,8.294c-21.347,9.058-42.598,14.951-65.26,19.207-40.972,7.694-80.394,4.241-113.395-22.223Z" fill="#fff"/>
      <path d="M1016.731,1019.817c18.841-3.799,29.281-18.188,39.228-36.028,9.642-17.294,12.894-36.035,10.093-55.687-5.106-35.826,18.159-61.35.198-91.052,19.712,6.753,15.555,33.15,10.533,53.483-3.564,14.43-4.436,27.749-2.444,42.586,3.966,29.543-6.376,59.451-28.753,78.991-7.861,6.864-18.08,11.133-28.854,7.707Z" fill="#fff"/>
      <path d="M1366.148,282.88l7.29-17.137,15.268-25.791c2.397-4.049,4.861-7.563,8.991-10.899,12.709,14.898,17.301,34.185,12.039,53.158-14.197,2.493-27.62,3.136-43.588.669Z" fill="#fff"/>
      <path d="M698.402,916.874l-10.411-12.988c-17.564-18.078-40.139-29.982-64.962-34.9-6.262-1.241-12.468-.566-18.492.724.382-8.292,7.884-14.39,16.431-13.984,31.096,1.477,64.167,21.02,82.786,45.844,1.665,5.459.107,10.842-5.353,15.304Z" fill="#fff"/>
      <path d="M716.182,880.633c-21.894-24.767-57.32-47.069-90.867-45.175.469-9.101,7.616-14.253,16.946-13.41,29.563,2.671,55.614,18.313,73.983,41.501,4.199,5.301,4.38,12.392-.061,17.084Z" fill="#fff"/>
      <path d="M901.622,548.823c-35.416,8.017-83.418,13.528-117.343-1.816l19.909-8.491c39.052,13.165,83.758,7.218,121.741-6.271l-.945,9.192-23.361,7.386Z" fill="#fff"/>
      <path d="M873.312,750.289c-1.481-.846-.236-3.868,1.393-5.106,23.939-18.196,46.441-38.697,60.797-65.244-1.938,22.351-7.072,42.877-12.723,64.236l-49.467,6.114Z" fill="#fff"/>
      <path d="M1360.24,281.648l-33.249-2.746,9.969-32.18c16.076-1.598,31.335-4.847,47.263-10.122l-7.613,12.441c-6.349,10.374-12.226,20.966-16.37,32.608Z" fill="#fff"/>
      <path d="M708.453,899.324c-18.767-24.123-45.198-40.796-75.301-47.103l-16.828-1.149c1.219-6.416,6.568-11.315,13.51-11.07,31.162,1.102,62.172,20.789,82.378,44.242,1.92,5.028,1.357,10.29-3.759,15.079Z" fill="#fff"/>
      <polygon points="1319.844 326.6 1309.209 327.212 1314.731 313.467 1324.698 284.451 1358.633 287.239 1345.518 322.091 1319.844 326.6" fill="#fff"/>
      <path d="M1387.887,229.153c-16.027,6.28-32.112,10.23-49.619,11.723l2.574-36.019c18.745-1.835,37.354,4.284,51.341,18.294l-4.296,6.002Z" fill="#fff"/>
      <polygon points="1303.288 326.525 1272.246 323.399 1287.982 287.139 1318.325 284.944 1303.288 326.525" fill="#fff"/>
      <path d="M957.132,561.775l-5.933,11.715c-1.591,3.141-8.51,3.234-12.237,1.863-8.866-3.263-12.631-16.419-7.096-25.866l3.322,11.018c7.395-11.235-5.97-18.329-4.016-25.428.593-2.156,3.421-4.746,6.009-5.269,2.24-.453,6.383,1.967,7.563,4.186l6.076,11.423c2.015-5.019,1.245-7.283.226-12.073,4.178-.792,8.863,1.368,11.711,5.267,7.23,9.899,5.202,24.101-4.581,31.644-.037-2.926-.12-4.51-1.044-8.48Z" fill="#fff"/>
      <path d="M1332.462,241.301c-12.572,2.415-24.182,3.201-36.495,3.445l1.411-22.902c11.171-8.286,23.431-14.524,37.53-16.428l-2.446,35.885Z" fill="#fff"/>
      <path d="M866.156,883.373c-6.801,5.446-15.296,6.629-22.133,1.778,28.83-11.709,51.042-61.404,30.302-86.008,6.659-1.49,12.67,2.436,15.674,8.573,11.652,23.803-2.19,58.319-23.843,75.657Z" fill="#fff"/>
      <polygon points="1246.568 285.471 1248.59 266.394 1260.187 254.589 1289.362 250.566 1283.077 281.852 1246.568 285.471" fill="#fff"/>
      <path d="M886.298,885.696c-5.196,5.073-12.475,5.635-17.567,2.586,24.21-19.687,39.874-58.946,24.084-85.924,5.92-.935,10.22,2.77,12.61,7.734,11.632,24.153.612,56.331-19.128,75.604Z" fill="#fff"/>
      <path d="M594.324,620.205l-51.392,22.249c-3.187,1.38-6.682-3.098-7.692-5.27-1.173-2.524-2.029-8.895.555-10.864l48.607-21.071,9.922,14.957Z" fill="#fff"/>
      <polygon points="1320.677 279.08 1289.305 281.56 1295.222 250.315 1331.156 247.267 1320.677 279.08" fill="#fff"/>
      <path d="M996.953,911.839c-3.224-.123-7.024-3.655-9.284-5.669,24.22-10.109,36.024-50.202,18.715-70.62,7.692-1.866,13.843,2.728,16.775,10.304,12.351,31.923-11.047,66.566-26.206,65.985Z" fill="#fff"/>
      <path d="M1380.749,313.642l-28.288,7.036,11.746-32.526c14.568,1.949,28.542,2.076,43.159.345-5.24,11.731-14.891,19.361-26.617,25.146Z" fill="#fff"/>
      <polygon points="1266.344 321.992 1238.538 318.602 1245.817 290.443 1281.609 287.965 1266.344 321.992" fill="#fff"/>
      <path d="M560.945,1091.388c1.728,1.481,3.744,2.908,3.741,4.399-.01,5.571-15.205,5.673-26.826-6.373-9.236-9.573-19.328-18.134-31.384-24.023l-15.887-5.841c2.171-5.844,8.45-7.946,14.718-6.172,14.061,3.981,25.713,12.362,36.808,21.871l18.829,16.138Z" fill="#fff"/>
      <path d="M567.374,1087.874c-4.621-.965-8.368-4.623-11.605-7.372l-22.226-18.879c-8.683-7.375-19.197-11.261-29.96-14.25,1.788-5.353,6.566-8.441,12.338-6.937,22.28,5.808,40.526,23.357,57.002,39.602.588,2.59-2.881,8.393-5.549,7.835Z" fill="#fff"/>
      <path d="M978.057,763.454l-4.815-14.709c24.456-3.108,45.162-16.578,61.541-32.972,3.762,5.43,3.119,10.555-1.392,14.809-15.864,14.96-33.995,26.641-55.334,32.871Z" fill="#fff"/>
      <polygon points="1110.022 397.287 1078.619 410.926 1069.922 393.304 1102.264 378.892 1110.022 397.287" fill="#fff"/>
      <polygon points="1206.164 320.194 1208.334 307.162 1221.67 293.275 1239.638 290.843 1232.161 318.79 1206.164 320.194" fill="#fff"/>
      <path d="M425.704,1155.496c-25.455-5.994-61.093-22.043-71.779-46.321,11.501,3.705,20.322,10.224,29.712,16.811l42.068,29.511Z" fill="#fff"/>
      <polygon points="1222.856 345.874 1195.69 351.281 1204.993 325.517 1230.549 324.146 1222.856 345.874" fill="#fff"/>
      <polygon points="1260.366 338.198 1229.669 344.414 1236.664 324.016 1264.3 327.006 1260.366 338.198" fill="#fff"/>
      <path d="M1007.344,404.195c-.209,7.647-14.423.855-16.563,18.481l-11.635,4.765c4.644-12.77,8.667-25.623,11.2-38.872l16.999,15.626Z" fill="#fff"/>
      <path d="M1162.692,380.376l-17.303-37.63c1.179-2.331,3.312-4.489,6.179-6.542,7.727,13.382,14.123,27.154,19.824,42.23-1.924,2.294-5.551,2.935-8.7,1.942Z" fill="#fff"/>
      <path d="M766.869,519.811l-15.236,6.281c-5.444-3.976-10.409-9.724-12.022-16.371-1.515-6.242,1.026-12.564,6.708-14.607.469,11.661,10.103,17.46,20.55,24.697Z" fill="#fff"/>
      <polygon points="1189.897 350.925 1168.418 349.303 1189.152 326.772 1198.87 326.046 1189.897 350.925" fill="#fff"/>
      <path d="M754.381,196.481c-10.386,7.033-25.22-5.801-27.572-20.287-.777-4.783,1.105-9.359,5.214-12.109,1.702,14.253,9.856,25.25,22.358,32.396Z" fill="#fff"/>
      <path d="M668.817,272.285c-.034,1.263-1.08,4.975-2.491,5.159-4.465.584-12.637-4.616-11.631-9.582,6.346-7.788-1.783-12.701,1.642-17.662,1.014-1.468,5.374-1.938,6.307-.501-.299,3.688-.841,9.385,2.022,11.595,4.29,3.312,8.326,4.953,13.321,7.148-2.373,2.962-5.822,4.339-9.169,3.843Z" fill="#fff"/>
      <path d="M1146.411,384.632c-1.913,2.357-5.572,3.869-8.046,3.038-4.83-8.602-8.987-16.807-11.5-26.517-.543-2.099,3.653-5.607,6.085-6.312l13.46,29.791Z" fill="#fff"/>
      <path d="M760.403,125.47c-12.862,6.218-21.704,16.881-24.518,29.617-3.866-17.326,9.898-29.812,25.15-34.879l14.842-4.932c-4.405,4.93-9.379,7.248-15.474,10.194Z" fill="#fff"/>
      <path d="M1124.606,393.597c-.571,1.793-5.551,4.119-7.311,2.954-7.737-12.344-15.097-26.764-3.611-28.244l10.922,25.29Z" fill="#fff"/>
      <path d="M669.459,621.364c-.874,1.602-5.324-.693-5.811-2.391-2.822-9.835,8.14-4.459,14.54-13.139,2.945-3.994,3.199-8.242,1.473-13.611l5.673-2.765c2.515,4.764,4.278,14.134-1.006,17.348-6.372,3.876-11.472,6.544-14.868,14.558Z" fill="#fff"/>
      <path d="M1151.976,381.857l-14.305-29.655c.562-2.063,2.761-4.406,4.859-5.102l13.563,30.636c.532,1.202.932,2.984.425,3.764-.607.936-3.584.911-4.542.357Z" fill="#fff"/>
      <polygon points="1290.203 245.101 1267.239 248.124 1291.224 226.512 1290.203 245.101" fill="#fff"/>
      <path d="M1063.821,386.628c-6.805-4.297-15.905-2.476-19.992,4.887l-5.25-1.051c-1.127-.225-2.807-1.978-3.284-2.958s.507-4.015,1.466-4.514c13.194.82,21.094-7.262,27.586-4.333,2.326,1.05,4.757,4.447,5.409,7.229-1.249,1.085-4.69,1.526-5.935.74Z" fill="#fff"/>
      <path d="M841.814,70.724l-9.71.325c-11.754-8.289-24.512-12.649-39.235-13.666,15.306-5.479,33.92,2.017,48.945,13.341Z" fill="#fff"/>
      <path d="M636.55,276.197l-24.824,14.756c2.585-9.149,10.506-11.801,17.514-18.051l-8.433.615,9.472-5.052c1.435,1.145,3.897,2.759,5.102,2.647l9.796-.916-8.627,6.001Z" fill="#fff"/>
      <path d="M796.116,76.241c-14.701-2.668-27.553.355-41.075,5.61,14.485-12.853,36.098-14.675,53.76-5.818-3.441.82-8.303,1.004-12.686.209Z" fill="#fff"/>
      <path d="M765.278,101.499c-10.758,2.978-19.399,8.32-26.547,16.334,4.971-17.643,28.367-24.897,45.808-21.666l-19.261,5.332Z" fill="#fff"/>
      <path d="M860.137,71.628c-3.756.943-7.949-1.458-11.364-4.062-9.077-6.921-18.435-11.959-29.193-15.28,15.557-.297,30.911,6.229,40.557,19.342Z" fill="#fff"/>
      <path d="M811.75,71.895c-13.113-4.239-25.318-5.063-38.943-4.537,15.509-6.139,33.068-4.33,47.764,4.526-2.794,1.309-5.833.977-8.821.011Z" fill="#fff"/>
      <path d="M742.272,156.508c.926-11.209,8.461-19.904,18.176-24.911l14.86-7.659c-7.546,13.384-25.32,14.421-33.036,32.569Z" fill="#fff"/>
      <path d="M795.403,83.66c-7.182,8.204-24.141.278-43.536,9.429,12.212-10.281,28.552-12.419,43.536-9.429Z" fill="#fff"/>
      <path d="M740.833,123.992c4.233-6.918,10.938-12.846,19.093-15.057l19.675-5.333c-2.988,4.269-7.131,6.136-11.785,7.602-9.667,2.726-17.77,7.012-26.983,12.788Z" fill="#fff"/>
      <path d="M948.43,528.919l-7.143-4.331c5.329-3.254,8.632-7.467,9.317-13.804,6.872,3.359,7.571,11.094,4.414,16.87l-6.588,1.265Z" fill="#fff"/>
      <path d="M639.375,289.825c-2.894,5.099-6.935,9.068-12.525,12.045,4.769-10.333,10.154-20.6,21.01-26.998l-8.486,14.953Z" fill="#fff"/>
      <path d="M1127.597,388.103l-8.848-21.07,3.177-3.238,10.596,24.643-2.484,1.865c-.587.44-2.121-1.436-2.442-2.199Z" fill="#fff"/>
      <path d="M746.622,528.565l-13.557,5.522c-.972-6.362,1.376-12.28,4.778-15.832l8.779,10.31Z" fill="#fff"/>
      <path d="M848.34,53.316c17.119.657,24.753,16.829,22.524,18.012l-2.853,1.514c-4.278-8.887-11.25-14.604-19.671-19.526Z" fill="#fff"/>
      <path d="M716.95,212.558l8.556-12.039-6.239,2.104c2.379-3.853,5.612-7.104,9.005-9.334l2.973,3.267c.805.884-5.017,14.465-14.295,16.002Z" fill="#fff"/>
      <polygon points="1292.171 331.841 1267.04 336.99 1270.414 328.301 1292.171 331.841" fill="#fff"/>
      <path d="M709.614,229.639l7.535-5.556-10.184,1.058c3.348-6.056,9.51-6.483,16.943-5.273-1.442,5.912-7.218,10.518-14.294,9.77Z" fill="#fff"/>
      <polygon points="1240.917 285.276 1228.628 286.713 1242.324 272.309 1240.917 285.276" fill="#fff"/>
      <path d="M675.002,251.148l.434-6.463-4.643,5.008c.112-6.12,4.76-10.752,9.87-13.512l-.073,10.608-5.587,4.358Z" fill="#fff"/>
      <path d="M678.827,259.469l3.98-3.129-7.829-.373,7.74-4.74c1.75-1.071,6.496.253,7.99,1.055-2.897,4.246-5.834,7.685-11.881,7.187Z" fill="#fff"/>
      <path d="M697.896,245.079l3.146-3.123-10.239.771c4.223-4.944,10.038-6.494,17.542-5.015-2.048,3.326-5.017,6.507-10.449,7.368Z" fill="#fff"/>
      <path d="M690.937,236.403l-3.19,3.268c-1.046-4.834-.721-11.607,6.19-14.847.56.817,1.49,4.504,1.54,6.43.046,1.76-2.81,3.377-4.54,5.149Z" fill="#fff"/>
      <path d="M748.224,181.807c-6.22-6.456-5.4-16.755-.992-24.388-.625,8.281-.2,15.357.992,24.388Z" fill="#fff"/>
      <path d="M777.021,132.42c-.157,6.683-8.608,11.733-16.452,12.697l16.452-12.697Z" fill="#fff"/>
      <path d="M712.305,210.623c-1.98-6.971,1.071-14.988,8.356-18.701l-8.356,18.701Z" fill="#fff"/>
      <path d="M703.627,212.721l-3.811,14.881c-2.758-5.619-1.467-10.945,2.425-15.588,1.083.553,1.907.974,1.386.707Z" fill="#fff"/>
      <path d="M881.669,72.18l-3.382-.593-5.048-11.826c4.615,2.902,7.361,7.352,8.43,12.419Z" fill="#fff"/>
      <path d="M875.874,209.237c2.524-4.73,9.384-5.162,14.11-4.449,1.009.152,3.817-1.893,4.302-1.115l2.032,3.253-20.445,2.312Z" fill="#fff"/>
    </g>
  </g>
  <g id="ink">
    <path d="M0,1224V0h1584v1224H0ZM1122.269,353.889l7.228-5.859,7.936-7.204,10.409-10.902,63.733-68.288,46.854-47.526c8.679-8.804,18.225-15.893,28.622-22.473,42.677-27.009,96.127-23.335,129.639,15.491,28.064,32.515,29.908,83.178,1.597,113.399-11.915,12.719-27.455,19.734-44.776,23.256l-196.28,39.919c-4.849,2.265-9.509,5.318-15.327,4.128l-10.376,2.441c-5.206,4.143-11.256,5.546-18.002,5.347-4.484,4.482-9.847,8.979-16.462,7.714-.876-.296-2.706-.671-2.581-.083l.431,2.03c10.24,12.22,14.094,27.186,12.713,43.107l-3.548,23.957c-3.629,12.52-14.667,20.461-27.928,17.926-15.19,4.414-30.128,1.89-43.943-5.631l-16.799-13.288c-3.134-.651-8.771-1.176-12.283-.891-11.409.926-20.445-5.392-24.087-16.018l-38.367,16.787-8.896,32.69c11.266,4.71,13.031,13.083,10.608,25.203,8.59,5.977,12.682,16.149,11.283,26.417l12.182,18.359c30.378-1.855,60.205-6.821,90.187-13.918,34.549-8.178,65.901-21.529,96.904-38.465l61.048-33.351c15.745-8.601,31.728-15.006,48.873-20.08,50.986-15.09,100.952-1.492,148.753,19.544,1.943.849,2.713.527,1.404-1.251-2.354-5.314-2.03-11.982,3.003-15.012,8.428-5.074,15.868-11.278,21.483-19.67-9.441-1.656-16.673-7.12-15.309-14.502,1.279-6.924,15.509-12.039,22.351-24.86-4.578-1.953-7.546-4.22-8.788-7.579-1.218-3.291.514-7.756,3.192-10.216,8.108-7.445,11.706-16.417,14.146-27.015l5.59-24.283c.808-3.511,4.985-6.264,8.126-6.122,2.332.105,6.273,3.179,6.956,6.075l6.349,26.913c2.276,9.647,6.282,17.494,13.648,24.185,2.695,2.447,4.513,7.143,3.117,10.666-1.068,2.697-3.839,4.826-7.699,7.203l13.658,16.275c2.325,2.771,4.363,6.504,3.421,10.229-.73,2.885-3.47,5.236-7.385,7.937l11.626,7.321c5.775,3.637,9.706,8.233,7.736,15.485-2.069,7.617-11.326,13.628-13.94,13.853-.259.022,7.229,7.424,19.266,12.047,5.82,2.235,8.615,8.047,7.4,14.056-1.541,7.623-6.102,12.915-13.88,16.563,11.006,10.413,28.4,10.456,25.748,25.66-2.814,16.131-19.048,19.907-17.497,21.249l2.209,1.911c6.288,5.442,14.426,7.698,23.256,10.654-.187.29.427-.679,1.227-1.942l.073-569.054-1558.317.032.052,446.941,6.8-.408c.879-8.894,6.51-14.989,14.914-17.576-5.751-12.523-.597-25.931,10.952-30.829,1.02-7.335,3.789-14.177,9.001-18.285,6.18-4.87,13.337-5.229,20.744-3.507,6.205-9.412,16.053-14.265,27.377-12.542,8.937,1.36,18.115,7.452,21.278,17.507,10.932-2.567,21.407,1.665,28.116,10.809,5.687,7.752,6.981,17.378,4.986,27.638,16.628-2.909,32.056,8.613,32.244,26.04,16.376,1.369,25.779,16.076,22.29,32.191,61.789-28.101,108.212-10.42,164.249,16.774,65.855,31.958,127.672,59.974,201.593,66.926l2.331-10.153c-2.143-12.803-7.551-23.614-13.823-34.773-17.275-30.737-22.188-55.653-6.912-87.096l10.561-21.737c10.801-22.232,22.853-43.107,40.302-60.626l14.701-12.972c5.301-24.839,16.275-47.659,34.489-65.283l-4.506-2.718c-3.421,11.396-10.971,19.099-21.023,24.709l-12.012,6.704c-.88.491-3.027.637-3.887.351s-1.402-3.154-.962-4.143l4.779-10.734c-13.236,2.099-19.743,15.158-23.828,12.659-.961-.588-1.829-4.288-1.205-5.381l8.015-14.036c1.24-20.636,18.13-30.879,38.498-31.304-.643-4.062,2.372-6.798,4.692-8.59,1.677-7.786,9.958-10.011,16.543-8.703,3.521-6.297,9.321-12.615,17.006-14.61,1.691-3.84,4.478-7.73,8.951-9.041,1.723-7.44,6.2-13.413,13.68-16.278,2.224-8.756,8.291-15.703,17.291-18.397-4.27-9.951-2.269-21.376,7.598-26.562-6.051-14.889-4.487-30.978,3.935-44.267-1.246-11.968,3.957-23.2,12.467-31.438,1.684-4.375,3.863-8.595,7.946-10.925l14.262-8.136c5.806-3.312,10.155-8.393,16.56-11.165,16.289-7.048,33.939-9.236,51.418-5.778,11.632-2.462,22.577,1.323,32.901,5.785l12.084,4.5c10.994,5.449,15.151,16.173,14.968,27.522,4.899,6.91,8.538,14.784,11.645,22.799l5.555,14.328c6.61,17.048-3.478,21.874,1.154,33.134,3.94,9.58,4.996,19.048,2.857,29.145l-7.896,37.285c15.699,4.035,29.553,8.554,43.902,14.681,15.828-.812,31.368,1.429,46.354,6.938,31.822,11.745,49.378,40.705,54.019,73.772,20.279,14.367,34.044,34.482,41.572,58.227,7.376-.345,3.686-9.791,18.17-12.8l8.734-7.122ZM860.137,71.628c-9.647-13.113-25-19.639-40.557-19.342,10.758,3.321,20.116,8.359,29.193,15.28,3.416,2.604,7.608,5.004,11.364,4.062ZM848.34,53.316c8.421,4.922,15.393,10.639,19.671,19.526l2.853-1.514c2.229-1.183-5.406-17.355-22.524-18.012ZM841.814,70.724c-15.026-11.323-33.639-18.82-48.945-13.341,14.723,1.017,27.481,5.377,39.235,13.666l9.71-.325ZM881.669,72.18c-1.068-5.067-3.815-9.517-8.43-12.419l5.048,11.826,3.382.593ZM811.75,71.895c2.988.966,6.027,1.298,8.821-.011-14.696-8.856-32.255-10.665-47.764-4.526,13.626-.525,25.83.299,38.943,4.537ZM796.116,76.241c4.383.796,9.245.611,12.686-.209-17.663-8.856-39.276-7.034-53.76,5.818,13.521-5.255,26.373-8.278,41.075-5.61ZM895.739,146.545l-5.489,4.38,11.981,23.173c1.277,2.469,2.502,6.655,1.105,9.009-3.51,5.917-11.072,8.964-16.593,5.834,5.44-2.22,12.072-3.739,13.113-9.089l-13.021-26.045c-3.24-6.48-1.179-15.241,4.982-19.168l-1.861,11.783c5.777-3.989,10.424-7.345,17.425-4.825l1.368-10.896-15.294,4.259c-.963-.074-2.705-2.272-2.49-3.271s1.53-3.71,2.601-4.06l13.146-4.295-6.498-17.178c-2.869-7.583-5.766-13.898-11.429-19.971-13.811-14.813-16.223-3.841-31.831-6.648-23.666-4.256-51.208-1.582-65.424,17.265-8.946,11.86-11.224,25.283-8.092,39.14,1.89,8.361,1.901,16.63-2.433,24.893l-7.749-6.765c-3.43-2.994-8.633-3.993-12.932-2.208-10.702,4.442-9.662,24.715,4.118,37.734,3.072,2.902,6.976,6.381,10.538,7.829,5.347,2.173,8.574.022,11.992-5.687l7.131,16.962c3.849,9.155,9.585,16.196,18.728,20.252l39.848,17.676c11.667,5.175,24.431,4.977,36.188,1.284,7.452-2.341,8.629-7.905,10.154-14.648l11.848-52.395c1.311-5.796,1.201-12.805-.568-18.21l-4.141-12.655c-1.854,1.379-5.258,2.613-6.641,1.873-1.354-.723-2.404-2.738-3.784-5.332ZM795.403,83.66c-14.985-2.99-31.324-.852-43.536,9.429,19.395-9.152,36.354-1.225,43.536-9.429ZM765.278,101.499l19.261-5.332c-17.44-3.231-40.837,4.023-45.808,21.666,7.148-8.014,15.788-13.355,26.547-16.334ZM740.833,123.992c9.214-5.777,17.317-10.063,26.983-12.788,4.653-1.466,8.796-3.333,11.785-7.602l-19.675,5.333c-8.155,2.211-14.861,8.139-19.093,15.057ZM760.403,125.47c6.095-2.946,11.069-5.264,15.474-10.194l-14.842,4.932c-15.251,5.068-29.016,17.553-25.15,34.879,2.814-12.736,11.655-23.399,24.518-29.617ZM742.272,156.508c7.716-18.148,25.49-19.186,33.036-32.569l-14.86,7.659c-9.715,5.007-17.25,13.701-18.176,24.911ZM777.021,132.42l-16.452,12.697c7.844-.965,16.296-6.014,16.452-12.697ZM748.224,181.807c-1.192-9.031-1.617-16.107-.992-24.388-4.408,7.633-5.228,17.932.992,24.388ZM754.381,196.481c-12.502-7.146-20.656-18.143-22.358-32.396-4.109,2.75-5.991,7.327-5.214,12.109,2.352,14.486,17.186,27.32,27.572,20.287ZM1413.806,243.591c8.326,20.951,5.207,43.591-9.042,60.056-10.623,12.275-25.224,18.091-41.239,21.309l-191.432,38.465,4.707,12.658,186.954-37.78,23.957-6.238c14.053-5.188,25.925-14.326,33.466-27.591,15.754-27.711,12.861-62.318-6.346-87.676-28.356-37.436-76.955-45.006-117.387-22.475-10.764,5.998-20.727,12.748-29.531,21.519l-44.48,44.316-67.248,71.94,7.237,12.869,92.638-95.387,30.944-28.065c22.61-20.507,58.811-30.942,87.744-17.962,17.47,7.838,31.836,21.861,39.06,40.041ZM712.305,210.623l8.356-18.701c-7.286,3.713-10.336,11.73-8.356,18.701ZM716.95,212.558c9.278-1.536,15.099-15.117,14.295-16.002l-2.973-3.267c-3.393,2.23-6.626,5.481-9.005,9.334l6.239-2.104-8.556,12.039ZM691.625,262.649c9.202-3.13,16.823-5.148,25.24-6.008,16.909-11.869,35.481-20.191,54.745-26.945l-4.71-26.931-7.101-3.294c-3.965,6.124-10.176,6.737-16.473,5.924-1.9,5.035-6.39,9.807-10.952,12.399-1.957,9.15-6.862,17.148-16.969,18.645-1.268,9.143-8.829,14.292-16.75,16.096l-7.028,10.113ZM715.472,317.808c-8.426,28.328-3.508,55.818,12.555,78.989,15.466,22.311,40.064,23.118,64.79,12.819.211,1.803-1.34,4.292-3.171,5.337-17.931,10.238-39.704,8.788-56.09-3.327,2.478,17.154,8.705,32.396,16.34,47.74,1.753,3.522,1.798,6.535,1.791,10.42-.018,10.555.665,21.824,3.429,31.983,4.527,6.521,12.36,10.415,19.289,14.475l29.59-12.703c1.528-2.984,4.169-3.841,7.847-3.279l157.626-68.183c6.591-16.02,12.357-32.57,14.62-50.378-7.24-10.823-13.932-21.729-19.042-34.941-14.777,14.713-20.879,34.513-35.938,48.686-5.562,5.235-11.49,10.786-20.086,10.587,12.71-9.058,21.841-19.354,29.435-32.251,11.354-19.282,25.645-45.251,49.997-39.504l-17.733,7.644c7.895,23.811,22.619,42.85,42.546,57.546l9.697-.683,7.225-7.834c-1.171-2.812-1.568-7.012-.268-9.445,3.852-7.212,10.917-2.605,22.914-7.826,4.733-2.06,9.644-3.285,14.642-.605,3.054,1.638,5.789,5.168,8.514,9.84l12.89-5.736c-6.145-21.46-18.414-39.673-35.876-53.395l-2.738,6.281-2.599-5.229c-.914-15.145-4.695-29.274-11.902-42.333-11.991-22.541-33.401-35.606-58.435-39.269-13.931-2.039-26.008-1.853-40.45,3.24,1.73-4.591,4.033-4.675,7.794-7.579l-37.175-11.992-3.218,14.073c-3.641,15.922-28.972,18.71-45.696,14.637-6.542,11.148-12.712,22.131-24.487,27.927,1.628-4.428,4.42-7.15,6.722-10.732l10.939-17.024-9.082-2.794,3.895-2.036c-15.856-7.31-46.811-18.207-52.906-30.591l-8.348-16.961-11.164,1.008,14.433,73.053c-10.105-11.952-11.814-26.397-15.535-40.876-16.798,5.492-33.74,13.699-48.938,23.677.383,1.749.752,4.17.573,4.445l-13.444-.08c-39.94,7.287-67.362,40.582-77.126,79.055-1.754,6.911-3.397,14.005-6.397,20.298-1.798-.078-2.863-2.262-3.224-4.832-19.623,16.495-33.919,38.303-45.306,61.795l-16.667,34.385c-6.864,14.16-5.308,31.087-1.221,45.935,2.986,10.845,8.978,19.734,13.462,29.861l11.619,26.245,3.277-3.284c.396-.397,1.439.394,2.297,1.075-3.614,9.022-6.425,18.627-6.995,28.323s3.379,16.022,8.345,23.418l10.647,15.856c3.545,5.279,11.205,5.89,15.141.837l-12.339-23.048c.874-1.422,1.533-2.522,2.006-2.183.316.226,1.539,1.32,1.847,1.795l13.214,20.428c1.915,2.961,6.389,4.05,9.005,3.301,2.741-.785,5.413-3.703,5.576-6.248l-14.278-27.565,1.652-3.188c.284-.547,2.398,1.266,2.71,1.829l12.084,21.803c2.273,4.101,5.274,6.295,9.8,5.637,2.874-.417,6.548-3.441,7.259-6.566l-13.787-29.218c.279-1.332.951-3.644,1.836-3.483.662.12,2.42,1.261,2.759,1.954l10.353,21.212c2.512,5.148,6.166,7.191,10.781,4.993,4.193-1.998,5.756-6.052,3.923-10.787l-11.105-28.681c-.409-1.056.414-4.573,1.465-4.308l5.712,1.437c-1.075-4.587-5.783-8.376-10.925-9.98l-17.799-5.552-21.336-8.434c3.724-2.975,6.617-2.093,11.194-1.295-3.993-8.208-4.627-16.773-3.485-25.878,3.081-24.568,3.126-48.874-18.83-61.821-3.59-2.117-7.452-3.933-10.509-6.91,12.664-.269,21.954,7.535,28.587,16.464,34.877-20.145,62.653-49.46,79.303-86.298-8.62-4.436-17.384-4.694-27.553-6.679,9.487-6.016,20.366-2.123,29.302.647l-2.629-19.484-2.588-7.806c-.165-.498.91-2.482,1.332-2.17l2.323,1.715c2.114-7.14,1.727-16.224,9.521-21.416ZM1387.887,229.153l4.296-6.002c-13.987-14.01-32.596-20.129-51.341-18.294l-2.574,36.019c17.507-1.494,33.592-5.444,49.619-11.723ZM1332.462,241.301l2.446-35.885c-14.099,1.904-26.359,8.143-37.53,16.428l-1.411,22.902c12.313-.244,23.923-1.03,36.495-3.445ZM703.627,212.721c.522.266-.303-.155-1.386-.707-3.892,4.644-5.183,9.969-2.425,15.588l3.811-14.881ZM709.614,229.639c7.076.748,12.852-3.859,14.294-9.77-7.433-1.21-13.595-.783-16.943,5.273l10.184-1.058-7.535,5.556ZM690.937,236.403c1.73-1.772,4.586-3.389,4.54-5.149-.051-1.926-.98-5.613-1.54-6.43-6.911,3.24-7.236,10.013-6.19,14.847l3.19-3.268ZM1290.203,245.101l1.021-18.589-23.985,21.612,22.964-3.023ZM1366.148,282.88c15.968,2.467,29.391,1.824,43.588-.669,5.262-18.973.669-38.26-12.039-53.158-4.13,3.336-6.594,6.85-8.991,10.899l-15.268,25.791-7.29,17.137ZM675.002,251.148l5.587-4.358.073-10.608c-5.11,2.76-9.758,7.392-9.87,13.512l4.643-5.008-.434,6.463ZM1360.24,281.648c4.145-11.641,10.021-22.233,16.37-32.608l7.613-12.441c-15.928,5.275-31.187,8.523-47.263,10.122l-9.969,32.18,33.249,2.746ZM697.896,245.079c5.432-.861,8.401-4.042,10.449-7.368-7.504-1.48-13.319.071-17.542,5.015l10.239-.771-3.146,3.123ZM1320.677,279.08l10.479-31.813-35.935,3.048-5.917,31.245,31.373-2.48ZM668.817,272.285c3.347.496,6.797-.881,9.169-3.843-4.995-2.194-9.03-3.836-13.321-7.148-2.863-2.21-2.321-7.907-2.022-11.595-.932-1.437-5.293-.967-6.307.501-3.425,4.961,4.704,9.874-1.642,17.662-1.006,4.966,7.166,10.165,11.631,9.582,1.41-.184,2.456-3.895,2.491-5.159ZM678.827,259.469c6.047.498,8.984-2.941,11.881-7.187-1.494-.802-6.241-2.126-7.99-1.055l-7.74,4.74,7.829.373-3.98,3.129ZM1246.568,285.471l36.509-3.619,6.285-31.287-29.176,4.023-11.597,11.805-2.022,19.078ZM636.55,276.197l8.627-6.001-9.796.916c-1.206.113-3.668-1.501-5.102-2.647l-9.472,5.052,8.433-.615c-7.008,6.25-14.929,8.901-17.514,18.051l24.824-14.756ZM1240.917,285.276l1.407-12.967-13.696,14.404,12.289-1.437ZM639.375,289.825l8.486-14.953c-10.856,6.398-16.242,16.665-21.01,26.998,5.59-2.977,9.631-6.946,12.525-12.045ZM1319.844,326.6l25.675-4.509,13.115-34.853-33.936-2.788-9.966,29.016-5.522,13.745,10.634-.612ZM1303.288,326.525l15.037-41.581-30.343,2.195-15.736,36.26,31.042,3.126ZM1266.344,321.992l15.264-34.027-35.792,2.478-7.279,28.16,27.806,3.389ZM1380.749,313.642c11.726-5.785,21.377-13.415,26.617-25.146-14.617,1.731-28.591,1.604-43.159-.345l-11.746,32.526,28.288-7.036ZM1206.164,320.194l25.997-1.403,7.477-27.947-17.968,2.432-13.336,13.887-2.17,13.032ZM1222.856,345.874l7.693-21.727-25.556,1.371-9.303,25.764,27.165-5.408ZM1260.366,338.198l3.934-11.192-27.635-2.99-6.996,20.398,30.697-6.216ZM1189.897,350.925l8.973-24.879-9.718.725-20.735,22.532,21.48,1.622ZM1292.171,331.841l-21.758-3.539-3.374,8.688,25.131-5.149ZM1162.692,380.376c3.149.992,6.776.352,8.7-1.942-5.701-15.075-12.097-28.848-19.824-42.23-2.868,2.052-5,4.211-6.179,6.542l17.303,37.63ZM1492.635,618.134c4.898-9.056,13.348-14.761,23.648-15.802,17.253-1.745,32.875,9.902,36.71,26.806,7.299-.265,13.042,1.544,18.974,6.2l.065-41.633-12.896-5.224c-8.552-3.464-17.443-8.364-23.115-15.326-6.157-7.557,13.32-4.225,19.263-20.254,1.726-4.654-.233-8.457-4.481-10.369-9.296-4.185-22.629-11.219-23.863-19.918,11.714-2.513,20.426-12.529,17.046-18.141-2.858-4.745-18.195-6.117-28.31-21.089-.527-.78-.995-3.749-.178-4.086l2.795-1.152c5.123-2.112,10.255-4.31,12.933-9.23,1.735-3.186.396-6.922-2.924-8.316-15.078-6.328-23.556-18.72-19.7-19.32l4.577-.712c1.673-.26,5.203-1.57,6.004-3.033,2.231-4.074-11.491-10.775-17.959-26.467-3.051-7.402,8.632-2.651,9.287-10.23-19.749-16.764-15.769-35.179-24.287-57.037l-6.283,24.876c-3.247,12.856-7.392,23.878-18.009,32.715,1.686,3.096,3.791,3.826,6.604,4.504l4.217,1.017c3.434.828-5.525,18.272-21.165,28.636-.967.641-2.105,2.453-2.284,3.328-.888,4.341,6.624,5.412,13.37,6.194l3.652.423c3.168.367-6.18,20.543-25.404,30.661-2.739,1.442-3.119,5.43-1.314,7.628,7.778,9.475,20.232,3.318,17.191,11.571-8.827,23.956-29.157,26.508-30.974,31.744-.387,1.116.247,3.962.876,4.964,7.394,11.79,23.281,5.591,19.045,13.537-11.232,21.068-33.619,19.861-27.244,30.354,5.648,9.295,14.184,8.215,16.767,10.707,2.839,2.739-5.877,12.178-14.607,16.517-2.971,7.824-6.075,13.78-14.986,17.083,4.265,2.228,7.376,3.492,11.006,4.332,13.647-16.039,37.434-16.835,51.292-2.162,6.681-7.076,16.232-8.866,24.661-4.296ZM1151.976,381.857c.958.555,3.935.579,4.542-.357.506-.78.107-2.561-.425-3.764l-13.563-30.636c-2.098.695-4.298,3.038-4.859,5.102l14.305,29.655ZM1146.411,384.632l-13.46-29.791c-2.432.705-6.628,4.214-6.085,6.312,2.513,9.711,6.67,17.915,11.5,26.517,2.474.831,6.133-.681,8.046-3.038ZM1127.597,388.103c.32.763,1.855,2.64,2.442,2.199l2.484-1.865-10.596-24.643-3.177,3.238,8.848,21.07ZM1124.606,393.597l-10.922-25.29c-11.486,1.48-4.127,15.9,3.611,28.244,1.76,1.165,6.74-1.161,7.311-2.954ZM1063.821,386.628c1.246.787,4.687.346,5.935-.74-.652-2.782-3.083-6.179-5.409-7.229-6.491-2.93-14.392,5.152-27.586,4.333-.959.499-1.943,3.535-1.466,4.514s2.157,2.732,3.284,2.958l5.25,1.051c4.087-7.363,13.187-9.183,19.992-4.887ZM1110.022,397.287l-7.758-18.394-32.341,14.411,8.696,17.622,31.403-13.639ZM676.536,558.606l49.648-21.435c-1.508-9.577,1.556-18.155,7.327-25.274-3.073-10.565,1.496-20.607,12.146-23.804l-1.99-26.685c-9.995-17.733-15.571-36.435-18.201-56.242-5.934-7.942-10.352-15.803-14.858-25.475-17.461,36.183-44.937,64.568-79.352,84.944,2.912,8.69,5.256,17.626,4.511,26.938l-2.321,29.028c.503,6.182,2.843,13.761,5.872,18.653l23.672,7.903c5.747,1.919,9.714,6.514,13.546,11.449ZM147.508,622.866c4.978-13.992,17.567-23.518,32.875-21.986-3.734-18.94,7.992-35.73,26.119-37.462-1.922-15.125,5.011-27.501,16.096-35.674,1.955-6.152-.799-13.364-4.855-17.746-4.11-4.44-9.872-5.531-17.391-6.047,4.568-7.869,7.412-15.409,5.268-23.521-2.673-10.114-11.771-15.36-22.64-12.75,1.706-9.096.009-16.207-5.774-21.647-5.08-4.779-12.599-6.683-20.232-4.587-2.77.76-5.644,1.208-8.218.415,3.56-9.918,4.772-18.551.799-27.533-5.091-11.511-17.707-15.74-29.563-9.948-1.043-11.358-8.803-18.363-18.442-19.358-9.805-1.012-18.519,4.415-22.081,14.84-7.049-4.111-13.944-4.698-19.805-.195-5.272,4.05-6.633,11.266-5.62,18.045-8.481,1.253-14.89,7.115-14.149,16.438.32,4.017,2.508,9.038,4.285,13.054-.242,1.157-3.499,2.245-5.245,2.391-9.124.765-13.139,10.176-12.087,18.625l-13.088.43.089,65.428c10.871-7.078,22.539-7.234,32.87-.283,8.161,5.492,13.44,15.93,11.413,27.173,7.922.079,14.95,3.403,19.052,8.616,4.732,6.014,5.943,13.348,4.956,20.552,17.509-3.69,33.286,7.609,35.261,25.212,11.089-3.91,21.849-1.293,30.107,7.517ZM1007.344,404.195l-16.999-15.626c-2.533,13.249-6.555,26.102-11.2,38.872l11.635-4.765c2.14-17.625,16.354-10.834,16.563-18.481ZM1018.596,445.997c-6.952-9.707-12.156-19.714-13.244-30.976-5.083-.303-8.056,3.646-8.253,8.566-.365,9.13,3.663,17.289,6.93,26.026,2.908,7.779,9.347,15.49,18.594,13.453,3.455-.761,6.774-1.36,10.478-1.04,5.991.297,10.968-3.418,15.484-7.429,5.653.568,11.503.127,14.769-4.992l12.256-6.799c6.837-3.793,8.992-15.277,3.924-19.853-12.025-10.858-12.008-32.522-23.755-32.697-2.832-.042-6.919,2.32-7.268,5.896-1.039,10.643,8.758,20.263,11.102,32.871-6.908-1.002-7.463-7.226-10.056-11.635-3.491-5.935-5.489-11.531-7.881-18.216-.97-2.712-6.928-2.921-9.214-1.671-9.039,4.941-.687,22.487,5.526,34.869,1.166,2.324,1.504,4.664-.726,6.76-8.165-10.145-12.505-21.061-15.067-33.561-2.746-.338-6.189.322-8.23,2.114-6.525,5.728.126,20.673,5.346,31.157,1.089,2.187,3.451,4.945-.716,7.155ZM1049.432,460.579l-9.501,5.834,9.612,7.438c13.684,10.59,29.076,13.418,45.937,10.192,4.361-.835,10.264.378,14.099-2.33,7.002-4.946,8.803-12.585,9.658-20.573,2.499-23.341,3.912-34.735-12.037-54.968l-3.891,1.862c3.378,2.073,5.367,3.776,4.786,6.06-3.718-1.019-8.928-3.804-11.432-2.871l-10.991,4.09c2.218,6.145,3.688,12.574,2.464,19.007-1.77,9.306-8.584,15.961-18.244,16.394-4.843,7.04-11.72,9.493-20.459,9.867ZM907.943,485.954l88.356-38.132-5.568-17.547-40.314,17.936-279.885,120.688,6.316,16.793,231.095-99.737ZM1295.098,634.232l11.306,5.882c5.852,3.045,7.922,8.269,5.937,15.022,5.865-2.241,10.204-4.607,14.379-7.632-6.139-3.105-10.296-6.025-12.933-11.409-2.97-6.061-.373-13.196,5.848-15.731,6.783-2.765,13.082-6.422,18.952-10.514-8.817-2.475-14.807-8.229-13.293-15.201,1.559-7.183,13.986-8.508,20.941-18.384-4.213-1.926-7.245-3.838-8.379-6.005-5.226-9.988,9.589-12.965,17.116-26.001-2.882-1.701-5.271-3.664-6.184-6.059-.831-2.178.92-6.274,2.742-7.9,5.981-5.338,8.433-11.892,10.605-19.457l3.52-12.26c.531-1.85,4.7-3.893,6.579-3.694,1.67.177,5.081,2.317,5.551,3.931l3.805,13.067c5.305,18.218,15.548,19.196,13.241,26.383-.643,2.003-2.72,3.915-5.46,6.097,6.535,11.397,19.781,15.949,16.21,24.632-1.29,3.136-4.181,5.141-8.444,7.487l15.339,9.915c3.65,2.36,5.899,4.494,8.658,8.909l5.445-4.644c-6.943-2.79-11.989-6.298-14.731-12.479-3.069-6.918-.588-14.044,6.21-17.167,7.345-3.374,13.804-8.133,18.657-14.552-8.116-1.841-14.039-6.048-16.974-12.875-2.804-6.524-.193-12.947,6.085-15.831,7.537-3.463,13.983-8.371,19.443-15.117-29.718-16.038-61.092-27.067-94.435-32.036-46.343-6.906-85.529,7.929-125.521,30.041l-52.946,29.274c-58.07,32.107-115.163,44.822-181.86,50.957l25.194,34.619,37.83,46.983c2.936-5.592,8.635-8.716,15.131-9.768-1.029-16.327,11.532-28.975,27.542-28.086.054-7.97,3.762-14.719,9.098-19.337,5.63-4.873,13.176-5.508,19.892-4.376,2.426-7.06,7.124-12.796,14.086-15.505,8.095-3.15,16.521-2.98,24.795,1.737,5.946,3.389,10.59,10.737,12.257,18.496,12.589,1.385,20.896,11.955,19.252,24.539,6.472,1.641,12.094,4.589,14.847,11.333l15.978-9.34c-4.471-2.111-8.303-4.038-10.645-7.9-6.693-11.036,9.537-13.701,17.629-23.826-4.153-1.812-7.237-4.22-8.261-7.581-1.145-3.759,1.564-6.825,4.205-9.455l11.239-11.198c-2.741-1.782-4.732-3.671-5.295-6.002-1.721-7.128,9.751-9.128,13.518-26.557,1.594-7.374,4.409-14.013,10.192-13.717,1.896.097,5.719,2.388,6.282,4.214l3.964,12.87c4.884,15.859,14.572,15.832,13.035,23.352-.397,1.943-2.407,4.049-4.95,6.424l11.401,11.839c2.627,2.728,4.767,6.478,3.617,9.963-1.014,3.072-3.533,5.19-7.284,7.481,7.873,9.603,22.593,10.901,18.563,22.442-1.371,3.925-4.547,6.663-8.518,9.71ZM934.523,521.599c4.439-2.808,7.927-5.958,8.985-10.45l8.577-36.428-138.877,59.9c40.004,10.039,84.136,2.914,121.315-13.022ZM448.022,656.821c14.524-4.007,27.741,4.518,29.417,18.549,11.394.414,19.46,9.371,19.2,20.121l87.676-.082,97.567.294c9.567-41.943,23.362-81.225,40.288-121.635l-30.065,12.683,2.178,12.409c1.276,7.268-3.387,13.201-10.019,15.739-9.559,3.658-6.79,15.546-18.345,13.702-3.061-.488-6.485-3.989-8.303-7.838-3.697,1.384-8.755,2.271-13.297,2.332-4.579,6.592-12.881,10.668-20.851,5.917-7.911,7.232-18.406,6.225-25.249-2.639l-49.496,21.631c-8.626,3.77-16.816.123-20.415-8.782-2.421-5.991-2.7-15.979,4.575-19.196l47.156-20.854-1.926-15.854c-69.618-6.756-130.941-31.766-193.952-62.546-58.006-28.335-105.911-51.678-170.322-21.084,10.166,4.114,16.051,13.186,16.16,24.189,18.352-6.629,38.183,1.433,41.85,20.604,15.498-.738,26.614,12.637,24.521,28.662,9.054-.63,17.053,3.552,21.999,10.552,5.113,7.236,6.318,16.186,2.772,25.063,15.672,1.522,24.817,15.797,20.763,30.872,6.525-.577,12.547.392,19.065,2.976l15.054-12.558c-3.873-2.281-5.984-3.747-6.877-6.375-.796-2.342,1.029-5.956,2.892-7.729l9.544-9.083c-2.776-2.501-4.527-4.329-4.886-6.133-1.15-5.788,9.145-9.877,12.008-20.133l3.965-14.204c.799-2.862,5.077-5.576,7.781-5.56,2.269.013,6.565,2.395,7.309,4.861l3.405,11.281c2.193,7.266,5.042,12.953,11.105,17.865,1.691,1.37,3.588,5.766,2.719,7.656-.975,2.12-2.786,3.617-5.531,5.85,6.628,9.759,17.843,12.919,17.273,21.349-.242,3.578-2.25,5.96-6.176,9.199l9.276,5.906c4.332,2.758,7.162,6.621,8.19,12.023ZM766.869,519.811c-10.447-7.237-20.081-13.036-20.55-24.697-5.683,2.043-8.224,8.365-6.708,14.607,1.614,6.647,6.578,12.394,12.022,16.371l15.236-6.281ZM1241.534,564.748l7.535,3.728c-4.906,16.555-24.582,22.053-13.996,25.078l8.287,2.368c-4.121,12.151-14.642,16.392-22.402,23.541,3.681,8.578,14.087,4.658,15.511,8.128,1.546,3.767-9.96,14.095-20.399,18.021-2.022.76-4.289,3.501-4.179,5.2.125,1.927,2.057,4.444,3.688,5.486l6.024,3.851c-7.284,11.883-15.905,3.795-24.562,11.502-3.573,3.181-4.396,8.53-4.375,13.76-4.607.408-9.487,1.055-12.417,3.648-2.792,2.47-4.103,6.997-3.599,10.909l153.692,3.82c.086-13.332,10.358-22.663,23.22-21.724-.216-8.714,3.852-15.875,9.125-20.721,6.551-6.02,15.13-6.355,23.274-5.685,3.494-7.948,11.945-13.057,20.37-11.456l4.889-13.498c-7.273-3.451-16.536-9.812-14.557-12.805,1.714-2.592,14.528-4.586,17.134-15.422,1.055-4.389-.113-8.059-4.299-9.891-14.43-6.316-25.633-19.57-21.907-21.274,4.367-1.997,10.715-.09,12.012-6.185-9.07-6.546-21.319-22.042-18.374-24.897,1.93-1.87,9.07-2.504,6.643-4.826-5.685-5.438-9.945-12.417-12.093-19.94l-3.931-13.766-3.384,10.87c-1.915,9.751-6.268,17.252-13.638,24.13l8.472,3.919c-3.216,11.088-10.797,18.121-20.086,25.095,2.69,5.438,8.032,3.371,12.774,5.448,3.13,1.37-7.223,15.449-21.543,22.713-.845.428-2.168,1.956-2.349,2.72s.757,2.934,1.375,3.431c6.569,5.279,13.789,2.546,15.36,5.372.468.841-.392,3.462-1.027,4.205-11.963,13.994-26.359,15.036-28.153,19.42-.505,1.233.146,4.784.942,5.872,5.564,7.61,14.672,5.892,15.721,9.39,1.228,4.096-10.635,13.45-21.434,16.844-3.722,1.17-6.896,3.334-10.352,5.312-1.852,1.06-6.464-2.555-6.592-4.85l6.652-6.203c1.199-1.118,2.113-4.994,1.556-6.399-1.74-4.396-11.571-4.887-19.75-14.155-.602-.682-1.369-3.131-.807-3.668.422-.403,1.495-.997,2.339-1.452l7.871-4.25c1.082-.584,2.061-4.298,1.451-5.408-2.376-4.328-17.572-7.906-21.844-21.03-1.125-3.457,9.486-1.852,10.485-6.035,1.016-4.251-14.913-10.09-16.918-24.46l7.364-3.424c-13.959-10.399-11.671-20.501-17.632-32.829-2.411,3.968-3.344,6.281-4.034,9.698-1.854,9.187-6.169,15.998-13.133,22.773ZM948.43,528.919l6.588-1.265c3.157-5.776,2.458-13.511-4.414-16.87-.684,6.337-3.987,10.55-9.317,13.804l7.143,4.331ZM746.622,528.565l-8.779-10.31c-3.401,3.552-5.75,9.471-4.778,15.832l13.557-5.522ZM397.064,680.809c-1.987-5.324-4.436-9.724-8.303-11.283-9.064-3.654-13.351,2.815-18.783,1.915.882-9.885-3.208-17.388-11.397-22.273-12.927-7.711-25.717,2.942-28.185-.009-1.892-2.262,10.328-10.376,4.175-23.895-2.613-5.741-8.98-10.509-16.475-9.718-2.325.246-4.979-.013-7.175-.754,4.859-7.012,7.013-14.2,4.355-22.063-3.84-11.359-15.536-15.909-27.719-10.953,3.519-10.406,3.682-19.715-3.636-26.446-4.751-4.37-10.844-4.89-18.191-2.874,1.058-12.03-6.43-21.119-17.66-23.359-11.076-2.209-21.229,2.643-27.92,10.245-7.584,8.616-8.506,19.457-5.27,31.846-11.371-2.636-20.997,1.683-25.968,11.608-5.573,11.127-.045,21.119-.36,25.371-.199,2.694-16.235-6.387-28.744,7.201-6.685,7.262-7.921,16.276-5.206,26.718,13.427-2.01,26.964,6.5,28.141,21.751,11.881-.413,22.326,5.905,26.512,17.279,2.051,5.572,2.346,11.834,1.11,17.841l84.852-1.656,123.083-1.463c.256-6.011-2.158-10.458-6.07-13.254-4.126-2.949-10.24-2.046-15.166-1.774ZM957.132,561.775c.925,3.97,1.007,5.554,1.044,8.48,9.783-7.543,11.811-21.746,4.581-31.644-2.848-3.898-7.533-6.059-11.711-5.267,1.019,4.79,1.788,7.053-.226,12.073l-6.076-11.423c-1.18-2.219-5.323-4.639-7.563-4.186-2.589.524-5.416,3.114-6.009,5.269-1.954,7.099,11.411,14.193,4.016,25.428l-3.322-11.018c-5.535,9.447-1.771,22.603,7.096,25.866,3.727,1.372,10.646,1.278,12.237-1.863l5.933-11.715ZM901.622,548.823l23.361-7.386.945-9.192c-37.983,13.489-82.689,19.436-121.741,6.271l-19.909,8.491c33.925,15.344,81.927,9.832,117.343,1.816ZM138.733,624.106c-11.459-8.955-23.748.877-27.033.526-1.619-.173,2.492-15.795-10.848-24.709-13.191-8.815-24.5,1.018-27.557-.01-.731-.246-.576-2.552-.244-3.248,4.755-9.975,3.244-20.492-4.95-26.202-5.187-3.615-10.465-3.08-18.298-1.503,4.482-11.753,2.248-23.584-7.168-29.759-9.332-6.12-22.157-4.307-28.838,4.763l.021,162.42,189.295-7.494c2.774-7.599,1.11-15.965-4.22-22.048-5.593-6.383-13.71-7.622-22.483-5.057,1.096-8.556-1.515-15.61-7.435-20.02-5.505-4.101-13.274-4.632-19.778-.89l-2.374-.41c-2.013-.348,6.054-15.305-8.091-26.359ZM762.514,556.667c31.06,22.224,69.073,21.42,104.767,14.5,19.643-3.808,37.864-10.398,56.389-17.831l3.762-7.607c-19.017,6.955-37.581,11.327-57.712,13.603-16.018,2.071-31.443,2.572-47.357,1.815l-7.031,1.201c-13.482-1.873-25.228-5.956-37.005-12.775l-15.813,7.094ZM745.489,563.835c33.001,26.464,72.423,29.917,113.395,22.223,22.662-4.256,43.913-10.149,65.26-19.207l-1.002-8.294-28.771,10.053c-24.246,8.472-49.761,12.699-75.627,11.715-22.703-.863-43.253-7.792-61.266-21.367-4.362,1.247-8.159,2.816-11.987,4.878ZM1036.957,701.877c8.529-6.558,14.718-12.467,21.234-20.878l-35.033-45.349c-19.167-22.952-36.836-46.218-51.763-72.129l-7.315,10.332,23.878,39.384c15.281,23.047,30.186,45.551,41.208,70.796l7.791,17.845ZM490.024,695.429c-.396-5.694-2.413-9.588-6.319-11.865-3.029-1.766-7.498-1.776-12.535-1.476.525-7.427-1.683-13.391-6.957-16.968-9.163-6.216-16.93.105-21.652-.051-2.652-.087,3.027-8.417-6.837-15.211l-13.559-9.339c-1.049-.722-2.489-4.659-1.406-5.123l3.88-1.662c15.483-6.633-8.152-9.794-13.573-29.068l8.021-4.174c-14.98-10.324-11.925-22.213-18.246-33.679-2.166,2.072-3.699,4.5-4.074,7.025-1.555,10.478-5.605,18.805-13.995,26.115,2.478.192,7.792,1.92,7.216,3.673-2.442,7.424-8.736,12.459-14.505,17.906,1.606,3.636,9.58,1.87,9.49,4.766-.193,6.196-10.53,14.011-17.936,19.69,4.524,5.219,8.048,10.323,9.359,17.428,9.996-3.999,20.535.612,25.29,10.362,13.44-1.381,23.89,9.008,23.575,22.073l64.763-.421ZM879.134,588.607c-21.494,4.555-42.546,8.302-64.742,7.243-10.721,12.1-22.999,21.556-37.426,28.329-5.891,2.765-11.852,5.981-19.043,4.804,18.613-9.283,36.012-18.704,49.569-33.696-25.676-2.17-49.168-11.983-68.331-28.719l-7.06,3.052c-20.435,45.624-36.533,92.566-46.466,141.688-1.225,6.058-1.47,11.413.715,17.202,29.685-30.202,61.817-55.197,98.228-75.573l52.749-29.519c15.942-8.921,29.583-19.918,41.808-34.811ZM709.104,807.856c-1.943,11.08-11.923,17.749-21.68,21.787,11.306,7.422,21.979,15.436,31.476,26.527l7.183-18.679c5.637-9.268,15.144-15.707,24.344-21.218l61.835-37.047c24.684-14.789,47.765-30.526,70.013-48.663,25.714-20.962,52.23-49.087,55.87-82.638l-17.178-72.877-31.397,10.646c-11.526,16.824-26.723,29.639-43.782,40.714l-45.645,25.484c-43.651,24.371-83.106,53.633-117.449,89.935-9.323,9.855-17.433,19.661-24.44,31.157-5.682,9.323-8.191,19.933-10.392,30.527l-2.575,12.393c12.519.378,24.085,6.622,35.452,9.56,11.908-.305,19.281-11.122,28.365-17.609ZM959.115,576.68c-5.724,3.461-8.878,4.655-13.741,5.727l20.614,63.053c-9.453-10.938-13.057-24.326-17.465-37.218l-8.941-26.149c-4.092-1.715-7.446-3.666-11.46-6.372l17.062,71.47,27.008,97.265c24.016-3.61,44.627-16.347,60.881-34.387l-18.539-40.241-37.632-63.311-17.786-29.837ZM669.459,621.364c3.396-8.014,8.496-10.682,14.868-14.558,5.285-3.214,3.521-12.584,1.006-17.348l-5.673,2.765c1.726,5.369,1.472,9.617-1.473,13.611-6.4,8.68-17.362,3.304-14.54,13.139.487,1.698,4.937,3.992,5.811,2.391ZM1169.633,699.837c-.277-11.017,6.996-18.703,16.728-20.232,1.004-9.773,7.768-16.022,16.813-18.149,1.753-3.05,2.396-7.422,2.488-11.113.218-8.68-6.664-14.385-14.853-13.47-1.001.112-3.621-.731-3.374-1.555l.919-3.064c1.632-5.445.439-11.464-2.778-15.164-4.097-4.711-9.476-4.975-16.108-4.043,1.911-12.797-6.512-22.083-18.447-23.027-10.596-.837-20.161,7.186-21.334,19.593-7.447-3.565-14.003-3.549-19.62.549-9.505,6.935-5.475,15.205-7.875,22.117-8.053-2.4-15.449-1.087-21.012,4.363-4.826,4.728-6.131,11.419-5.462,19.088l.218,2.5c.176,2.014-13.399-1.812-17.528,9.923l3.391,5.577c2.441,4.014,4.235,8.781.793,12.792l-9.806,11.425,116.848,1.889ZM594.324,620.205l-9.922-14.957-48.607,21.071c-2.584,1.969-1.728,8.34-.555,10.864,1.01,2.172,4.504,6.65,7.692,5.27l51.392-22.249ZM1342.647,691.547c-3.479,2.766-5.408,7-5.57,12.522l69.309,1.96,165.68,5.665-.143-61.4c-.013-5.537-5.034-10.566-8.575-12.361-4.934-2.501-10.443-2.082-16.195-.735.089-11.656-6.327-21.206-16.463-25.689-14.493-6.409-30.28.419-35.534,16.28-5.379-3.563-9.76-6.528-15.698-4.983-4.108,1.069-7.591,5.263-11.214,10.85-7.962-12.518-20.676-17.756-34.122-13.062-13.565,4.737-21.227,17.218-22.103,32.135-5.788-2.097-10.31-3.042-14.502-.735-3.942,2.169-6.012,6.369-6.916,12.311-8.006-3.049-15.337-3.78-21.964.974-5.794,4.157-9.038,11.123-8.498,19.205l.261,3.902c.182,2.73-10.039-2.973-17.754,3.162ZM508.632,1177.722l-77.822-13.397c-26.838-4.62-65.398-22.376-80.586-46.113-8.735-13.652-8.568-31.292,2.005-43.985,7.161-8.597,19.155-11.996,29.928-9.119l25.5,6.811c11.994,3.203,23.359,3.902,35.515,1.078,14.034-3.26,27.194-8.098,40.481-13.742,1.716-6.755,6.429-11.034,13.009-12.84,2.11-6.367,5.391-11.475,12.855-12.742l2.439-8.191c2.031-6.821,5.141-12.489,12.107-14.815.613-14.058,11.635-15.664,19.263-28.46,21.051-35.313,30.642-73.521,56.117-105.893-5.073-10.319,1.76-18.856,9.187-24.999,1.799-5.48,5.413-12.045,9.754-15.733,1.411-10.897,7.047-19.78,19.141-20.032l4.809-19.504c2.392-9.701,5.602-18.639,10.366-27.431,8.208-12.297,16.955-23.263,27.415-34.266-3.912-10.049-2.841-20.101.226-31.757l-344.859,1.23c-107.727,1.007-214.72,3.741-321.629,9.762l-.157,495.165,1558.408-.043-.167-489.732c-175.241-6.806-348.449-11.471-523.078-14.016-4.143-.147-6.878,1.314-8.838,3.786l3.74,10.975c1.59,4.665.107,9.732-3.422,13.423-16.266,17.016-36.256,29.787-58.83,36.593-5.11,1.541-9.702-1.171-11.012-5.831l-9.298-33.068-17.848-63.997c-1.132,27.826-6.361,53.845-14.343,80.276-2.431,3.018-7.825,4.533-11.639,5.059l-44.882,6.188-.444,34.037c7.192-1.137,11.63.199,16.635,3.135,6.21-.94,12.251.1,17.05,4.516,21.232-.257,40.917,6.036,58.871,17.34,10.707,6.741,21.602,11.803,33.974,15.151,7.736-5.75,17.103-5.081,24.463,1.239l11.293-2.534c9.451-2.121,18.974-3.795,28.492-2.345,14.027,2.138,22.935,12.148,24.466,26.092,1.268,11.545-.406,23.212-3.252,34.716-3.683,14.882-4.443,28.837-2.594,43.968,3.52,28.81-5.571,57.074-25.241,78.079-14.984,16.002-36.305,23.1-52.522,8.956-7.315-6.38-10.949-16.085-9.317-26.509l3.683-23.528c2.729-17.431,1.745-34.947-4.063-51.688-6.043-2.862-10.584-6.677-14.281-12.411-14.038-5.116-28.365-8.475-43.456-9.498l-49.39-3.35c-7.81,4.759-16.857,4.212-24.374-.609-9.555,3.839-19.21,1.618-25.985-5.474-11.887.402-23.599-2.355-32.782-9.246-9.761-5.997-11.925-16.545-16.507-25.994l-18.909-38.994c-13.193,8.062-26.401,15.492-36.017,26.746l-7.877,22.842c3.754,8.262,2.102,17.501-4.488,23.932.786,7.773-2.513,14.402-8.771,18.791-.318,8.76-5.297,15.926-13.576,18.825-8.238,22.335-20.177,42.538-37.099,59.249l-27.402,27.059-21.13,22.162c-12.114,12.706-8.245,28.143-21.685,32.609-1.674,6.271-3.277,13.003-10.273,15.769-.757,5.636-4.106,9.966-9.001,12.977.37,6.001-1.551,11.148-5.494,15.374l-7.068,46.157c-3.513,22.944-27.526,25.653-49.788,21.821ZM873.312,750.289l49.467-6.114c5.65-21.359,10.784-41.885,12.723-64.236-14.355,26.547-36.858,47.048-60.797,65.244-1.629,1.238-2.873,4.26-1.393,5.106ZM978.057,763.454c21.338-6.231,39.47-17.912,55.334-32.871,4.511-4.254,5.154-9.379,1.392-14.809-16.379,16.393-37.085,29.864-61.541,32.972l4.815,14.709ZM872.522,807.575c-.728,4.857-.192,9.165-4.414,12.442-3.797-23.135-3.827-44.657-2.071-68.098l-22.435,15.5-69.324,42.41,20.072,40.179c3.12,17.337,16.54,29.389,34.244,30.088,8.482,1.393,16.305-.664,22.989-6.208,18.429-15.288,31.586-44.976,20.94-66.312ZM866.156,883.373c21.653-17.338,35.495-51.854,23.843-75.657-3.004-6.137-9.015-10.062-15.674-8.573,20.74,24.604-1.473,74.299-30.302,86.008,6.837,4.851,15.331,3.667,22.133-1.778ZM886.298,885.696c19.74-19.272,30.76-51.451,19.128-75.604-2.391-4.964-6.691-8.669-12.61-7.734,15.79,26.978.126,66.236-24.084,85.924,5.092,3.049,12.37,2.487,17.567-2.586ZM985.401,901.205c21.403-10.609,29.708-40.258,17.936-60.51-16.626-3.034-30.875-10.308-45.152-18.944-14.582-8.821-30.128-13.893-47.342-14.622,11.905,26.732,1.601,58.75-17.584,80.188l44.156,2.877c16.63,1.084,32.214,5.004,47.986,11.011ZM716.182,880.633c4.441-4.693,4.261-11.783.061-17.084-18.368-23.187-44.419-38.83-73.983-41.501-9.33-.843-16.477,4.31-16.946,13.41,33.547-1.894,68.973,20.407,90.867,45.175ZM996.953,911.839c15.159.58,38.557-34.062,26.206-65.985-2.931-7.576-9.083-12.17-16.775-10.304,17.309,20.418,5.505,60.511-18.715,70.62,2.261,2.015,6.061,5.546,9.284,5.669ZM1035.814,1003.681c10.935-12.096,19.054-26.233,23.37-42.009,3.738-13.661,2.21-26.982.979-40.923-2.011-22.773,10.682-43.508,7.252-66.425-.933-6.233-4.459-16.54-11.021-18.143-9.809-2.395-19.327,2.391-29.046,4.066,8.472,19.624,6.176,40.993-5.047,58.933-5.262,8.412-11.98,15.003-21.474,18.557,5.478,16.361,7.214,33.013,4.653,49.92l-4.087,26.983c-.877,5.788.397,12.501,4.3,17.137,4.892,5.811,20.859,2.147,30.12-8.097ZM1016.731,1019.817c10.774,3.427,20.993-.842,28.854-7.707,22.377-19.54,32.718-49.448,28.753-78.991-1.992-14.837-1.119-28.156,2.444-42.586,5.022-20.334,9.179-46.731-10.533-53.483,17.962,29.702-5.303,55.226-.198,91.052,2.801,19.651-.451,38.393-10.093,55.687-9.946,17.84-20.386,32.229-39.228,36.028ZM708.453,899.324c5.115-4.789,5.679-10.051,3.759-15.079-20.206-23.453-51.216-43.14-82.378-44.242-6.942-.245-12.291,4.654-13.51,11.07l16.828,1.149c30.103,6.307,56.534,22.98,75.301,47.103ZM698.402,916.874c5.46-4.462,7.018-9.845,5.353-15.304-18.619-24.823-51.69-44.366-82.786-45.844-8.548-.406-16.049,5.692-16.431,13.984,6.024-1.29,12.23-1.965,18.492-.724,24.823,4.918,47.398,16.822,64.962,34.9l10.411,12.988ZM583.626,1063.404l-17.925-15.077c-4.766-4.009-10.239-7.197-14.54-12.096,16.174,2.093,31.255,24.18,38.616,21.953,1.559-.472,3.734-3.393,4.221-5.161,6.138-22.277,21.763-34.528,36.994-49.774l27.22-27.248c15.148-16.674,26.37-35.612,34.197-57.206-13.03-18.791-31.973-31.513-53.256-39.189-9.928-3.581-19.639-5.935-30.032-5.11-14.515,18.851-25.47,38.384-34.752,59.93-7.577,17.587-15.144,34.255-24.678,50.801-7.806,13.547-18.919,15.566-18.264,25.614,18.267-.175,32.654-6.719,48.612-14.711-1.064,3.533-3.898,6.235-7.015,8.078-13.076,7.73-27.686,12.515-43.02,12.799-5.111.095-8.756,2.092-10.387,7.14l-3.321,10.281c14.542,4.164,27.883,11.719,39.281,21.807l21.589,19.106c3.891-2.642,6-7.302,6.46-11.937ZM567.374,1087.874c2.668.557,6.137-5.245,5.549-7.835-16.476-16.245-34.722-33.794-57.002-39.602-5.772-1.505-10.55,1.583-12.338,6.937,10.764,2.989,21.277,6.875,29.96,14.25l22.226,18.879c3.237,2.749,6.983,6.406,11.605,7.372ZM560.945,1091.388l-18.829-16.138c-11.095-9.509-22.747-17.89-36.808-21.871-6.268-1.774-12.547.328-14.718,6.172l15.887,5.841c12.056,5.888,22.148,14.449,31.384,24.023,11.621,12.046,26.816,11.944,26.826,6.373.003-1.49-2.014-2.918-3.741-4.399ZM470.324,1148.515c19.792,4.34,38.714,6.049,58.325,7.394,8.103.556,15.162-.363,23.361-1.916l5.147-34.64,2.445-14.281c-9.327.452-17.556-4.325-24.523-10.592l-19.265-17.329c-8.416-6.069-17.823-10.317-28.068-12.175l-41.591,14.477c-15.229,3.941-29.948,1.889-45.084-1.999l-22.9-5.882c-11.379-1.816-21.957,4.891-24.92,15.62,7.756,1.22,14.81,3.586,21.239,7.917l40.452,27.253c17.145,11.551,34.483,21.571,55.383,26.154ZM549.518,1160.012c-14.728,1.668-29.353,1.508-44.278-1.019l-42.074-7.125c-15.848-4.335-30.282-11.371-43.813-20.582l-40.911-27.85c-8.367-5.696-16.77-9.867-26.829-11.385l-.08,11.119c5.71,1.229,10.634,2.22,15.148,5.231l22.028,14.696,32.718,22.788c10.873,7.573,22.901,13.726,36.008,16.044l34.048,6.024c20.903,3.698,52.451,9.317,58.035-7.94ZM425.704,1155.496l-42.068-29.511c-9.389-6.587-18.211-13.106-29.712-16.811,10.686,24.279,46.324,40.327,71.779,46.321Z"/>
    <path d="M842.07,299.156c-9.848,1.925-17.129,5.857-25.185,12.569.035-8.55,8.494-13.489,16.134-15.62l38.227-10.662c17.539-4.892,31.328-15.964,47.893-25.291-5.776,10.173-16.097,15.572-25.55,21.145-15.822,9.328-32.97,14.235-51.519,17.86Z"/>
    <path d="M790.486,297.121c5.629,2.034,10.296,6.748,9.398,13.849-6.693-6.644-12.883-10.646-21.836-12.997-15.498-4.07-31.42-10.886-41.441-24.447l31.438,15.485,22.442,8.11Z"/>
    <path d="M880.863,414.111c1.527.384-.259,2.87-2.187,3.372-16.496,4.294-33.352,5.267-49.808.819-5.886-1.591-12.238-4.193-15.043-10.375,11.237,3.621,21.289,7.85,32.542,7.44l34.496-1.256Z"/>
    <path d="M805.268,382.807c.266,3.401.082,7.148-1.211,10.203-5.442-13.295-5.288-26.571-4.071-40.116.734-8.163.809-17.161,7.362-23.663-1.947,18.701-3.485,35.575-2.08,53.576Z"/>
    <path d="M805.533,448.524c-.008,8.458,3.752,14.515,2.7,23.196-9.549-13.242-9.761-30.667-5.709-45.899l1.527-1.645c.235-.253,1.504.818,1.503,1.374l-.021,22.974Z"/>
    <path d="M945.435,314.637c-10.648-4.126-16.402-16.031-14.568-25.728l14.568,25.728Z"/>
    <path d="M657.244,562.525c-6.945.018-9.772,3.129-12.671,8.429-2.533-3.791-.38-7.932,2.21-9.778,3.075-2.193,7.169-3.552,10.462,1.349Z"/>
    <path d="M635.816,572.632c-5.817,1.255-9.391,2.742-12.172,7.876-2.807-2.486-.993-6.495,1.002-8.268,3.286-2.922,7.746-3.814,11.171.392Z"/>
    <path d="M614.71,582.017l-11.119,7.591c-.11-2.165.985-5.744,2.314-7.055,2.329-2.296,6.063-2.714,8.806-.536Z"/>
    <path d="M781.578,185.617c-1.721,1.852-13.886-2.739-15.286-7.62-1.475-5.146.441-8.61,4.709-12.019-.398-.802-4.104-3.095-5.406-2.393-2.178,1.176-4.404,5.357-6.348,8.726-1.659-2.247-2.27-6.036-1.611-9.473.501-2.614,3.893-5.732,7.877-5.479,6.051.385,12.797,7.103,12.08,13.302-1.205,10.422,7.235,11.459,3.985,14.955Z"/>
    <path d="M866.266,137.709l-17.907-3.026c-6.956-1.175-13.778,2.95-21.399,4.477,4.232-8.571,13.802-13.142,22.811-12.227l16.565,1.684c1.578.16,3.714,2.699,4.081,4.034.428,1.557-2.48,5.34-4.151,5.058Z"/>
    <path d="M866.119,214.321c-.889.073-3.269-.78-3.805-1.054-.716-.365.891-2.215,1.641-2.567l10.213-5.47c2.913-1.56,6.881-4.343,9.682-4.433l10.663-.342c2.515-.081,5.55,4.958,5.513,8.51-3.112,1.261-7.424,3.171-10.575,3.431l-23.33,1.924ZM875.874,209.237l20.445-2.312-2.032-3.253c-.486-.777-3.293,1.268-4.302,1.115-4.726-.713-11.586-.281-14.11,4.449Z"/>
    <path d="M858.823,154.4c-1.649,1.93-5.212,2.387-7.233,1.033-1.55-1.039-2.548-4.202-2.472-6.586l-14.336,4.248c5.452-8.807,24.849-12.037,27.138-7.045.702,1.53,1.607,5.454,1.593,6.229-2.633.546-3.523.755-4.691,2.122Z"/>
    <path d="M873.338,186.53c4.94-2.035,9.537-4.788,13.624.319l-8.124,1.897c-4.331,2.466-9.623,2.161-11.87-2.285-1.942-3.842-.51-10.81,5.133-11.316l-1.962,6.623c-.394,1.329,1.689,4.895,3.199,4.762Z"/>
    <path d="M894.688,220.934c-4.321,4.792-16.615,7.665-21.214-.903,6.348.726,13.425,1.688,18.872-.747l2.583-1.154c.529-.236.189,2.328-.241,2.804Z"/>
  </g>
</svg>