<?xml version="1.0" encoding="UTF-8"?>
<svg id="Bubble_7" data-name="Bubble 7" xmlns="http://www.w3.org/2000/svg" viewBox="0 0 360 259.2">
  <g id="accent_color-2" data-name="accent_color">
    <path d="M195.769,219.073l-34.155,37.506c-1.24,1.362-3.748,2.717-5.476,2.616-1.625-.095-3.404-2.599-4.547-4.522l-28.033-47.177-60.349,21.587c-1.551-.146-3.85-.485-4.78-1.027s-1.266-2.833-1.365-4.296l16.986-53.623-68.404-3.7c-2.11-.114-4.781-1.134-5.334-2.557-.935-2.407.324-5.087,2.468-6.546l59.668-40.591-33.561-39.911c-.881-1.047-2.076-3.046-2.218-4.127-.171-1.297,1.572-3.536,2.871-4.444l58.705-3.425-7.451-47.688c-.519-3.319,4.155-5.569,6.953-4.113l62.668,28.337L173.675,1.35c2.453-1.636,4.942-1.869,7.181-.234l27.888,38.176L269.019,2.133c1.877-1.157,4.836-1.878,6.62-.919,1.41.758,2.146,3.997,1.912,6.052l-5.718,50.26,56.363-4.968c1.181-.104,3.911.415,4.265,1.4s.606,2.977.758,4.565l-26.644,40.783,50.858,28.431c1.053.589,2.759,2.992,2.549,4.129s-1.527,2.874-2.631,4.048l-53.684,22.697,24.35,47.396c.639,1.244,1.335,4.026.786,5.071-.64,1.219-2.962,2.42-4.671,2.902l-61.205-11.358-8.087,45.56c-.252,1.419-1.576,3.61-2.678,4.114s-4.208.164-5.233-.492l-51.162-32.734ZM199.862,211.123l47.325,30.245,8.237-45.572c.275-1.522,4.412-2.75,5.93-2.423l55.791,10.38-22.795-43.426c-1.502-2.103-1.479-5.118.062-7.096l51.264-21.865-47.558-26.814c-2.195-1.39-2.756-4.607-1.274-6.847l23.553-35.601-52.239,4.449c-1.506.128-3.835-.337-4.692-1.2-.714-.719-1.133-3.369-1.012-4.438l5.345-47.499-56.698,34.948c-1.101.952-5.552,1.531-6.547.319l-26.785-36.756-21.567,37.113c-1.494,2.571-4.958,2.74-7.579,1.294l-57.715-26.244,6.851,43.338c.701,3.146-1.505,5.876-4.707,5.925l-52.976,3.156,31.463,37.054c.91,1.072,2.169,3.47,2.054,4.667s-1.846,2.856-3.173,3.762l-52.833,36.06,61.022,3.616c1.703.101,4.636.931,5.306,2.135.574,1.032.458,3.608.037,4.931l-15.647,49.17,56.725-20.195c1.321-.291,4.176,1.806,4.933,3.09l27.611,46.836,34.79-37.882c1.532-1.669,6.127-.38,7.5,1.369Z"/>
  </g>
  <path id="main_color-2" data-name="main_color" d="M199.862,211.123c-1.373-1.749-5.967-3.038-7.5-1.369l-34.79,37.882-27.611-46.836c-.757-1.284-3.611-3.381-4.933-3.09l-56.725,20.195,15.647-49.17c.421-1.323.537-3.899-.037-4.931-.67-1.204-3.603-2.034-5.306-2.135l-61.022-3.616,52.833-36.06c1.327-.906,3.058-2.565,3.173-3.762s-1.144-3.595-2.054-4.667l-31.463-37.054,52.976-3.156c3.202-.049,5.408-2.779,4.707-5.925l-6.851-43.338,57.715,26.244c2.621,1.446,6.085,1.277,7.579-1.294l21.567-37.113,26.785,36.756c.995,1.212,5.446.633,6.547-.319l56.698-34.948-5.345,47.499c-.12,1.068.298,3.719,1.012,4.438.857.862,3.186,1.328,4.692,1.2l52.239-4.449-23.553,35.601c-1.481,2.239-.921,5.456,1.274,6.847l47.558,26.814-51.264,21.865c-1.541,1.978-1.565,4.993-.062,7.096l22.795,43.426-55.791-10.38c-1.518-.328-5.655.901-5.93,2.423l-8.237,45.572-47.325-30.245Z" fill="#fff"/>
</svg>